%TF.GenerationSoftware,KiCad,Pcbnew,8.0.3-8.0.3-0~ubuntu22.04.1*%
%TF.CreationDate,2024-06-14T00:20:48-04:00*%
%TF.ProjectId,GarageDoor,47617261-6765-4446-9f6f-722e6b696361,rev?*%
%TF.SameCoordinates,Original*%
%TF.FileFunction,Copper,L1,Top*%
%TF.FilePolarity,Positive*%
%FSLAX46Y46*%
G04 Gerber Fmt 4.6, Leading zero omitted, Abs format (unit mm)*
G04 Created by KiCad (PCBNEW 8.0.3-8.0.3-0~ubuntu22.04.1) date 2024-06-14 00:20:48*
%MOMM*%
%LPD*%
G01*
G04 APERTURE LIST*
%TA.AperFunction,SMDPad,CuDef*%
%ADD10R,1.500000X1.500000*%
%TD*%
%TA.AperFunction,ComponentPad*%
%ADD11R,1.500000X1.500000*%
%TD*%
%TA.AperFunction,ComponentPad*%
%ADD12C,1.500000*%
%TD*%
%TA.AperFunction,ComponentPad*%
%ADD13R,1.600000X1.600000*%
%TD*%
%TA.AperFunction,ComponentPad*%
%ADD14O,1.600000X1.600000*%
%TD*%
%TA.AperFunction,ComponentPad*%
%ADD15C,1.600000*%
%TD*%
%TA.AperFunction,ComponentPad*%
%ADD16R,3.000000X3.000000*%
%TD*%
%TA.AperFunction,ComponentPad*%
%ADD17C,3.000000*%
%TD*%
%TA.AperFunction,ComponentPad*%
%ADD18C,2.500000*%
%TD*%
%TA.AperFunction,ComponentPad*%
%ADD19O,1.700000X1.700000*%
%TD*%
%TA.AperFunction,ComponentPad*%
%ADD20C,1.700000*%
%TD*%
%TA.AperFunction,ComponentPad*%
%ADD21C,1.800000*%
%TD*%
%TA.AperFunction,ComponentPad*%
%ADD22R,1.700000X1.700000*%
%TD*%
%TA.AperFunction,ComponentPad*%
%ADD23C,2.000000*%
%TD*%
%TA.AperFunction,ViaPad*%
%ADD24C,0.900000*%
%TD*%
%TA.AperFunction,Conductor*%
%ADD25C,0.500000*%
%TD*%
%TA.AperFunction,Conductor*%
%ADD26C,1.000000*%
%TD*%
G04 APERTURE END LIST*
D10*
%TO.P,TP1,1,1*%
%TO.N,LEFT_SENSOR*%
X80500000Y-75000000D03*
%TD*%
%TO.P,TP3,1,1*%
%TO.N,Net-(JP1-A)*%
X54000000Y-82000000D03*
%TD*%
D11*
%TO.P,Q1,1,D*%
%TO.N,Net-(D1-A)*%
X103920000Y-60000000D03*
D12*
%TO.P,Q1,2,G*%
%TO.N,Net-(Q1-G)*%
X106460000Y-60000000D03*
%TO.P,Q1,3,S*%
%TO.N,Earth*%
X109000000Y-60000000D03*
%TD*%
D13*
%TO.P,D1,1,K*%
%TO.N,+12V*%
X90000000Y-65840000D03*
D14*
%TO.P,D1,2,A*%
%TO.N,Net-(D1-A)*%
X90000000Y-76000000D03*
%TD*%
D10*
%TO.P,TP5,1,1*%
%TO.N,Net-(Q1-G)*%
X112000000Y-60000000D03*
%TD*%
D15*
%TO.P,R2,1*%
%TO.N,+5V*%
X60760000Y-74000000D03*
D14*
%TO.P,R2,2*%
%TO.N,LEFT_SENSOR*%
X76000000Y-74000000D03*
%TD*%
D15*
%TO.P,R3,1*%
%TO.N,Net-(Q1-G)*%
X100000000Y-60000000D03*
D14*
%TO.P,R3,2*%
%TO.N,Earth*%
X84760000Y-60000000D03*
%TD*%
D10*
%TO.P,TP2,1,1*%
%TO.N,RIGHT_SENSOR*%
X80500000Y-78000000D03*
%TD*%
D16*
%TO.P,J1,1,Pin_1*%
%TO.N,Earth*%
X42090000Y-91000000D03*
D17*
%TO.P,J1,2,Pin_2*%
%TO.N,Net-(D3-A1)*%
X47170000Y-91000000D03*
%TD*%
%TO.P,K2,1*%
%TO.N,LBUT_COM*%
X93800000Y-47950000D03*
D18*
%TO.P,K2,2*%
%TO.N,Net-(D2-A)*%
X95800000Y-53950000D03*
D17*
%TO.P,K2,3*%
%TO.N,LBUT_NO*%
X108000000Y-54000000D03*
%TO.P,K2,4*%
%TO.N,unconnected-(K2-Pad4)*%
X108000000Y-41950000D03*
D18*
%TO.P,K2,5*%
%TO.N,+12V*%
X95800000Y-41950000D03*
%TD*%
D16*
%TO.P,J2,1,Pin_1*%
%TO.N,LBUT_NO*%
X57220000Y-91000000D03*
D17*
%TO.P,J2,2,Pin_2*%
%TO.N,LBUT_COM*%
X62300000Y-91000000D03*
%TO.P,J2,3,Pin_3*%
%TO.N,LEFT_SENSOR*%
X67380000Y-91000000D03*
%TO.P,J2,4,Pin_4*%
%TO.N,Earth*%
X72460000Y-91000000D03*
%TD*%
D10*
%TO.P,TP4,1,1*%
%TO.N,Net-(Q2-G)*%
X111500000Y-35890000D03*
%TD*%
D13*
%TO.P,D2,1,K*%
%TO.N,+12V*%
X90000000Y-44000000D03*
D14*
%TO.P,D2,2,A*%
%TO.N,Net-(D2-A)*%
X90000000Y-54160000D03*
%TD*%
D17*
%TO.P,K1,1*%
%TO.N,RBUT_COM*%
X93800000Y-71000000D03*
D18*
%TO.P,K1,2*%
%TO.N,Net-(D1-A)*%
X95800000Y-77000000D03*
D17*
%TO.P,K1,3*%
%TO.N,RBUT_NO*%
X108000000Y-77050000D03*
%TO.P,K1,4*%
%TO.N,unconnected-(K1-Pad4)*%
X108000000Y-65000000D03*
D18*
%TO.P,K1,5*%
%TO.N,+12V*%
X95800000Y-65000000D03*
%TD*%
D15*
%TO.P,R1,1*%
%TO.N,+5V*%
X60760000Y-78000000D03*
D14*
%TO.P,R1,2*%
%TO.N,RIGHT_SENSOR*%
X76000000Y-78000000D03*
%TD*%
D16*
%TO.P,J3,1,Pin_1*%
%TO.N,RBUT_NO*%
X82500000Y-91000000D03*
D17*
%TO.P,J3,2,Pin_2*%
%TO.N,RBUT_COM*%
X87580000Y-91000000D03*
%TO.P,J3,3,Pin_3*%
%TO.N,RIGHT_SENSOR*%
X92660000Y-91000000D03*
%TO.P,J3,4,Pin_4*%
%TO.N,Earth*%
X97740000Y-91000000D03*
%TD*%
D19*
%TO.P,U1,1,IN+*%
%TO.N,Net-(S1-A)*%
X48140000Y-35380000D03*
%TO.P,U1,2,IN-*%
%TO.N,Earth*%
X30360000Y-35380000D03*
D20*
%TO.P,U1,3,OUT-*%
X30360000Y-76020000D03*
%TO.P,U1,4,OUT+*%
%TO.N,Net-(JP1-A)*%
X48140000Y-76020000D03*
%TD*%
D21*
%TO.P,U2,1,Rst*%
%TO.N,unconnected-(U2-Rst-Pad1)*%
X80430000Y-63890000D03*
%TO.P,U2,2,A0*%
%TO.N,unconnected-(U2-A0-Pad2)*%
X80430000Y-61350000D03*
%TO.P,U2,3,16*%
%TO.N,unconnected-(U2-16-Pad3)*%
X80430000Y-58810000D03*
%TO.P,U2,4,14/SCK*%
%TO.N,LEFT_SENSOR*%
X80430000Y-56270000D03*
%TO.P,U2,5,12/MISO*%
%TO.N,RIGHT_SENSOR*%
X80430000Y-53730000D03*
%TO.P,U2,6,13/MOSI*%
%TO.N,unconnected-(U2-13{slash}MOSI-Pad6)*%
X80430000Y-51190000D03*
%TO.P,U2,7,15*%
%TO.N,unconnected-(U2-15-Pad7)*%
X80430000Y-48650000D03*
%TO.P,U2,8,3.3V*%
%TO.N,unconnected-(U2-3.3V-Pad8)*%
X80430000Y-46110000D03*
%TO.P,U2,9,5V*%
%TO.N,+5V*%
X57570000Y-46110000D03*
%TO.P,U2,10,GND*%
%TO.N,Earth*%
X57570000Y-48650000D03*
%TO.P,U2,11,2(LED)*%
%TO.N,unconnected-(U2-2(LED)-Pad11)*%
X57570000Y-51190000D03*
%TO.P,U2,12,0*%
%TO.N,unconnected-(U2-0-Pad12)*%
X57570000Y-53730000D03*
%TO.P,U2,13,4/SDA*%
%TO.N,Net-(Q2-G)*%
X57570000Y-56270000D03*
%TO.P,U2,14,5/SCL*%
%TO.N,Net-(Q1-G)*%
X57570000Y-58810000D03*
%TO.P,U2,15,Rx*%
%TO.N,unconnected-(U2-Rx-Pad15)*%
X57570000Y-61350000D03*
%TO.P,U2,16,Tx*%
%TO.N,unconnected-(U2-Tx-Pad16)*%
X57570000Y-63890000D03*
%TD*%
D11*
%TO.P,Q2,1,D*%
%TO.N,Net-(D2-A)*%
X103420000Y-36500000D03*
D12*
%TO.P,Q2,2,G*%
%TO.N,Net-(Q2-G)*%
X105960000Y-36500000D03*
%TO.P,Q2,3,S*%
%TO.N,Earth*%
X108500000Y-36500000D03*
%TD*%
D22*
%TO.P,JP1,1,A*%
%TO.N,Net-(JP1-A)*%
X54000000Y-78000000D03*
D19*
%TO.P,JP1,2,B*%
%TO.N,+5V*%
X54000000Y-75460000D03*
%TD*%
D15*
%TO.P,R4,1*%
%TO.N,Net-(Q2-G)*%
X100000000Y-36500000D03*
D14*
%TO.P,R4,2*%
%TO.N,Earth*%
X84760000Y-36500000D03*
%TD*%
D23*
%TO.P,S1,*%
%TO.N,*%
X76000000Y-32840000D03*
X76000000Y-26840000D03*
X64000000Y-32840000D03*
X64000000Y-26840000D03*
D20*
%TO.P,S1,1,C*%
%TO.N,unconnected-(S1-C-Pad1)*%
X74000000Y-31090000D03*
%TO.P,S1,2,B*%
%TO.N,+12V*%
X70000000Y-31090000D03*
%TO.P,S1,3,A*%
%TO.N,Net-(S1-A)*%
X66000000Y-31090000D03*
%TD*%
D24*
%TO.N,+12V*%
X50500000Y-84000000D03*
X63000000Y-66000000D03*
X83000000Y-62000000D03*
X81000000Y-69000000D03*
X66000000Y-63000000D03*
%TO.N,LEFT_SENSOR*%
X69000000Y-81000000D03*
X76000000Y-64900000D03*
X76000000Y-70000000D03*
%TO.N,RIGHT_SENSOR*%
X74500000Y-65000000D03*
X83000000Y-80000000D03*
%TO.N,+5V*%
X58000000Y-72000000D03*
%TO.N,Net-(Q1-G)*%
X91000000Y-57000000D03*
X95000000Y-59000000D03*
%TD*%
D25*
%TO.N,+12V*%
X50500000Y-84000000D02*
X56000000Y-84000000D01*
X62500000Y-69000000D02*
X59000000Y-72500000D01*
X66000000Y-63000000D02*
X66000000Y-35090000D01*
X83000000Y-62000000D02*
X83000000Y-51000000D01*
X59000000Y-81000000D02*
X56000000Y-84000000D01*
X59000000Y-72500000D02*
X59000000Y-81000000D01*
X66000000Y-35090000D02*
X70000000Y-31090000D01*
X81000000Y-69000000D02*
X62500000Y-69000000D01*
X63000000Y-68500000D02*
X63000000Y-66000000D01*
X83000000Y-51000000D02*
X90000000Y-44000000D01*
X62500000Y-69000000D02*
X63000000Y-68500000D01*
%TO.N,Net-(D2-A)*%
X103420000Y-36500000D02*
X103420000Y-46330000D01*
X103420000Y-46330000D02*
X95800000Y-53950000D01*
%TO.N,LEFT_SENSOR*%
X76000000Y-74000000D02*
X79500000Y-74000000D01*
X76000000Y-74000000D02*
X76000000Y-70000000D01*
X69000000Y-81000000D02*
X76000000Y-74000000D01*
X76000000Y-64900000D02*
X76000000Y-58000000D01*
X77730000Y-56270000D02*
X80430000Y-56270000D01*
X79500000Y-74000000D02*
X80500000Y-75000000D01*
X76000000Y-58000000D02*
X77730000Y-56270000D01*
%TO.N,RIGHT_SENSOR*%
X74500000Y-58000000D02*
X79000000Y-53730000D01*
X81000000Y-78000000D02*
X76000000Y-78000000D01*
X74500000Y-65000000D02*
X74500000Y-58000000D01*
X79000000Y-53730000D02*
X80430000Y-53730000D01*
X83000000Y-80000000D02*
X81000000Y-78000000D01*
D26*
%TO.N,LBUT_NO*%
X86000000Y-82000000D02*
X86000000Y-66000000D01*
X74000000Y-94000000D02*
X86000000Y-82000000D01*
X86000000Y-66000000D02*
X95000000Y-57000000D01*
X57220000Y-91000000D02*
X60220000Y-94000000D01*
X60220000Y-94000000D02*
X74000000Y-94000000D01*
X95000000Y-57000000D02*
X105000000Y-57000000D01*
X105000000Y-57000000D02*
X108000000Y-54000000D01*
%TO.N,LBUT_COM*%
X84800000Y-65502944D02*
X93800000Y-56502944D01*
X65300000Y-88000000D02*
X77000000Y-88000000D01*
X84800000Y-80200000D02*
X84800000Y-65502944D01*
X77000000Y-88000000D02*
X84800000Y-80200000D01*
X93800000Y-56502944D02*
X93800000Y-47950000D01*
X62300000Y-91000000D02*
X65300000Y-88000000D01*
%TO.N,RBUT_NO*%
X82500000Y-91000000D02*
X82500000Y-91500000D01*
X100000000Y-94000000D02*
X108000000Y-86000000D01*
X108000000Y-86000000D02*
X108000000Y-77050000D01*
X85000000Y-94000000D02*
X100000000Y-94000000D01*
X82500000Y-91500000D02*
X85000000Y-94000000D01*
%TO.N,RBUT_COM*%
X87580000Y-81420000D02*
X87580000Y-91000000D01*
X93800000Y-71000000D02*
X93800000Y-75200000D01*
X93800000Y-75200000D02*
X87580000Y-81420000D01*
D25*
%TO.N,Net-(JP1-A)*%
X54000000Y-78000000D02*
X54000000Y-82000000D01*
X54000000Y-78000000D02*
X50120000Y-78000000D01*
X50120000Y-78000000D02*
X48140000Y-76020000D01*
%TO.N,+5V*%
X60760000Y-78000000D02*
X60760000Y-74000000D01*
X56000000Y-47680000D02*
X57570000Y-46110000D01*
X57460000Y-72000000D02*
X58000000Y-72000000D01*
X54000000Y-75460000D02*
X57460000Y-72000000D01*
X58000000Y-72000000D02*
X56000000Y-70000000D01*
X56000000Y-70000000D02*
X56000000Y-47680000D01*
%TO.N,Net-(Q1-G)*%
X96000000Y-60000000D02*
X100000000Y-60000000D01*
X57570000Y-58810000D02*
X65760000Y-67000000D01*
X107660000Y-58800000D02*
X110800000Y-58800000D01*
X110800000Y-58800000D02*
X112000000Y-60000000D01*
X81000000Y-67000000D02*
X91000000Y-57000000D01*
X79000000Y-67000000D02*
X81000000Y-67000000D01*
X106460000Y-60000000D02*
X107660000Y-58800000D01*
X65760000Y-67000000D02*
X79000000Y-67000000D01*
X95000000Y-59000000D02*
X96000000Y-60000000D01*
%TO.N,Net-(Q2-G)*%
X111500000Y-35890000D02*
X111500000Y-35500000D01*
X111000000Y-35000000D02*
X107460000Y-35000000D01*
X111500000Y-35500000D02*
X111000000Y-35000000D01*
X87000000Y-60000000D02*
X81000000Y-66000000D01*
X101500000Y-35000000D02*
X100000000Y-36500000D01*
X81000000Y-66000000D02*
X67300000Y-66000000D01*
X105960000Y-36500000D02*
X104460000Y-35000000D01*
X96500000Y-36500000D02*
X92000000Y-41000000D01*
X92000000Y-45000000D02*
X87000000Y-50000000D01*
X107460000Y-35000000D02*
X105960000Y-36500000D01*
X87000000Y-50000000D02*
X87000000Y-60000000D01*
X100000000Y-36500000D02*
X96500000Y-36500000D01*
X92000000Y-41000000D02*
X92000000Y-45000000D01*
X67300000Y-66000000D02*
X57570000Y-56270000D01*
X104460000Y-35000000D02*
X101500000Y-35000000D01*
%TO.N,Net-(S1-A)*%
X66000000Y-31090000D02*
X52430000Y-31090000D01*
X52430000Y-31090000D02*
X48140000Y-35380000D01*
%TD*%
M02*
