M48
; DRILL file {KiCad 8.0.3-8.0.3-0~ubuntu22.04.1} date 2024-06-14T00:20:51-0400
; FORMAT={-:-/ absolute / inch / decimal}
; #@! TF.CreationDate,2024-06-14T00:20:51-04:00
; #@! TF.GenerationSoftware,Kicad,Pcbnew,8.0.3-8.0.3-0~ubuntu22.04.1
; #@! TF.FileFunction,Plated,1,2,PTH
FMAT,2
INCH
; #@! TA.AperFunction,Plated,PTH,ViaDrill
T1C0.0236
; #@! TA.AperFunction,Plated,PTH,ComponentDrill
T2C0.0315
; #@! TA.AperFunction,Plated,PTH,ComponentDrill
T3C0.0354
; #@! TA.AperFunction,Plated,PTH,ComponentDrill
T4C0.0394
; #@! TA.AperFunction,Plated,PTH,ComponentDrill
T5C0.0400
; #@! TA.AperFunction,Plated,PTH,ComponentDrill
T6C0.0472
; #@! TA.AperFunction,Plated,PTH,ComponentDrill
T7C0.0512
; #@! TA.AperFunction,Plated,PTH,ComponentDrill
T8C0.0598
%
G90
G05
T1
X1.9882Y-3.3071
X2.2835Y-2.8346
X2.4803Y-2.5984
X2.5984Y-2.4803
X2.7165Y-3.189
X2.9331Y-2.5591
X2.9921Y-2.5551
X2.9921Y-2.7559
X3.189Y-2.7165
X3.2677Y-2.4409
X3.2677Y-3.1496
X3.5827Y-2.2441
X3.7402Y-2.3228
T2
X2.3921Y-2.9134
X2.3921Y-3.0709
X2.9921Y-2.9134
X2.9921Y-3.0709
X3.337Y-1.437
X3.337Y-2.3622
X3.5433Y-1.7323
X3.5433Y-2.1323
X3.5433Y-2.5921
X3.5433Y-2.9921
X3.937Y-1.437
X3.937Y-2.3622
X4.0717Y-1.437
X4.0913Y-2.3622
X4.1717Y-1.437
X4.1913Y-2.3622
X4.2717Y-1.437
X4.2913Y-2.3622
T3
X2.5984Y-1.224
X2.7559Y-1.224
X2.9134Y-1.224
T4
X1.1953Y-1.3929
X1.1953Y-2.9929
X1.8953Y-1.3929
X1.8953Y-2.9929
X2.126Y-2.9709
X2.126Y-3.0709
X3.7717Y-1.6516
X3.7717Y-2.124
X3.7717Y-2.5591
X3.7717Y-3.0315
T5
X2.2665Y-1.8154
X2.2665Y-1.9154
X2.2665Y-2.0154
X2.2665Y-2.1154
X2.2665Y-2.2154
X2.2665Y-2.3154
X2.2665Y-2.4154
X2.2665Y-2.5154
X3.1665Y-1.8154
X3.1665Y-1.9154
X3.1665Y-2.0154
X3.1665Y-2.1154
X3.1665Y-2.2154
X3.1665Y-2.3154
X3.1665Y-2.4154
X3.1665Y-2.5154
T6
X2.5197Y-1.0567
X2.5197Y-1.2929
X2.9921Y-1.0567
X2.9921Y-1.2929
T7
X3.6929Y-1.8878
X3.6929Y-2.7953
X4.252Y-1.6516
X4.252Y-2.126
X4.252Y-2.5591
X4.252Y-3.0335
T8
X1.6571Y-3.5827
X1.8571Y-3.5827
X2.2528Y-3.5827
X2.4528Y-3.5827
X2.6528Y-3.5827
X2.8528Y-3.5827
X3.248Y-3.5827
X3.448Y-3.5827
X3.648Y-3.5827
X3.848Y-3.5827
M30
