%TF.GenerationSoftware,KiCad,Pcbnew,8.0.3-8.0.3-0~ubuntu22.04.1*%
%TF.CreationDate,2024-06-14T00:20:48-04:00*%
%TF.ProjectId,GarageDoor,47617261-6765-4446-9f6f-722e6b696361,rev?*%
%TF.SameCoordinates,Original*%
%TF.FileFunction,Copper,L2,Bot*%
%TF.FilePolarity,Positive*%
%FSLAX46Y46*%
G04 Gerber Fmt 4.6, Leading zero omitted, Abs format (unit mm)*
G04 Created by KiCad (PCBNEW 8.0.3-8.0.3-0~ubuntu22.04.1) date 2024-06-14 00:20:48*
%MOMM*%
%LPD*%
G01*
G04 APERTURE LIST*
G04 Aperture macros list*
%AMRoundRect*
0 Rectangle with rounded corners*
0 $1 Rounding radius*
0 $2 $3 $4 $5 $6 $7 $8 $9 X,Y pos of 4 corners*
0 Add a 4 corners polygon primitive as box body*
4,1,4,$2,$3,$4,$5,$6,$7,$8,$9,$2,$3,0*
0 Add four circle primitives for the rounded corners*
1,1,$1+$1,$2,$3*
1,1,$1+$1,$4,$5*
1,1,$1+$1,$6,$7*
1,1,$1+$1,$8,$9*
0 Add four rect primitives between the rounded corners*
20,1,$1+$1,$2,$3,$4,$5,0*
20,1,$1+$1,$4,$5,$6,$7,0*
20,1,$1+$1,$6,$7,$8,$9,0*
20,1,$1+$1,$8,$9,$2,$3,0*%
G04 Aperture macros list end*
%TA.AperFunction,ComponentPad*%
%ADD10R,1.500000X1.500000*%
%TD*%
%TA.AperFunction,ComponentPad*%
%ADD11C,1.500000*%
%TD*%
%TA.AperFunction,ComponentPad*%
%ADD12R,1.600000X1.600000*%
%TD*%
%TA.AperFunction,ComponentPad*%
%ADD13O,1.600000X1.600000*%
%TD*%
%TA.AperFunction,ComponentPad*%
%ADD14C,1.600000*%
%TD*%
%TA.AperFunction,ComponentPad*%
%ADD15R,3.000000X3.000000*%
%TD*%
%TA.AperFunction,ComponentPad*%
%ADD16C,3.000000*%
%TD*%
%TA.AperFunction,ComponentPad*%
%ADD17C,2.500000*%
%TD*%
%TA.AperFunction,ComponentPad*%
%ADD18O,1.700000X1.700000*%
%TD*%
%TA.AperFunction,ComponentPad*%
%ADD19C,1.700000*%
%TD*%
%TA.AperFunction,ComponentPad*%
%ADD20C,1.800000*%
%TD*%
%TA.AperFunction,ComponentPad*%
%ADD21R,1.700000X1.700000*%
%TD*%
%TA.AperFunction,ComponentPad*%
%ADD22C,2.000000*%
%TD*%
%TA.AperFunction,SMDPad,CuDef*%
%ADD23RoundRect,0.250000X-1.500000X-0.650000X1.500000X-0.650000X1.500000X0.650000X-1.500000X0.650000X0*%
%TD*%
%TA.AperFunction,SMDPad,CuDef*%
%ADD24RoundRect,0.250000X0.850000X0.350000X-0.850000X0.350000X-0.850000X-0.350000X0.850000X-0.350000X0*%
%TD*%
%TA.AperFunction,SMDPad,CuDef*%
%ADD25RoundRect,0.250000X1.275000X1.125000X-1.275000X1.125000X-1.275000X-1.125000X1.275000X-1.125000X0*%
%TD*%
%TA.AperFunction,SMDPad,CuDef*%
%ADD26RoundRect,0.249997X2.950003X2.650003X-2.950003X2.650003X-2.950003X-2.650003X2.950003X-2.650003X0*%
%TD*%
%TA.AperFunction,SMDPad,CuDef*%
%ADD27RoundRect,0.250000X1.500000X0.650000X-1.500000X0.650000X-1.500000X-0.650000X1.500000X-0.650000X0*%
%TD*%
%TA.AperFunction,ViaPad*%
%ADD28C,0.900000*%
%TD*%
%TA.AperFunction,Conductor*%
%ADD29C,0.500000*%
%TD*%
%TA.AperFunction,Conductor*%
%ADD30C,1.000000*%
%TD*%
G04 APERTURE END LIST*
D10*
%TO.P,Q1,1,D*%
%TO.N,Net-(D1-A)*%
X103920000Y-60000000D03*
D11*
%TO.P,Q1,2,G*%
%TO.N,Net-(Q1-G)*%
X106460000Y-60000000D03*
%TO.P,Q1,3,S*%
%TO.N,Earth*%
X109000000Y-60000000D03*
%TD*%
D12*
%TO.P,D1,1,K*%
%TO.N,+12V*%
X90000000Y-65840000D03*
D13*
%TO.P,D1,2,A*%
%TO.N,Net-(D1-A)*%
X90000000Y-76000000D03*
%TD*%
D14*
%TO.P,R2,1*%
%TO.N,+5V*%
X60760000Y-74000000D03*
D13*
%TO.P,R2,2*%
%TO.N,LEFT_SENSOR*%
X76000000Y-74000000D03*
%TD*%
D14*
%TO.P,R3,1*%
%TO.N,Net-(Q1-G)*%
X100000000Y-60000000D03*
D13*
%TO.P,R3,2*%
%TO.N,Earth*%
X84760000Y-60000000D03*
%TD*%
D15*
%TO.P,J1,1,Pin_1*%
%TO.N,Earth*%
X42090000Y-91000000D03*
D16*
%TO.P,J1,2,Pin_2*%
%TO.N,Net-(D3-A1)*%
X47170000Y-91000000D03*
%TD*%
%TO.P,K2,1*%
%TO.N,LBUT_COM*%
X93800000Y-47950000D03*
D17*
%TO.P,K2,2*%
%TO.N,Net-(D2-A)*%
X95800000Y-53950000D03*
D16*
%TO.P,K2,3*%
%TO.N,LBUT_NO*%
X108000000Y-54000000D03*
%TO.P,K2,4*%
%TO.N,unconnected-(K2-Pad4)*%
X108000000Y-41950000D03*
D17*
%TO.P,K2,5*%
%TO.N,+12V*%
X95800000Y-41950000D03*
%TD*%
D15*
%TO.P,J2,1,Pin_1*%
%TO.N,LBUT_NO*%
X57220000Y-91000000D03*
D16*
%TO.P,J2,2,Pin_2*%
%TO.N,LBUT_COM*%
X62300000Y-91000000D03*
%TO.P,J2,3,Pin_3*%
%TO.N,LEFT_SENSOR*%
X67380000Y-91000000D03*
%TO.P,J2,4,Pin_4*%
%TO.N,Earth*%
X72460000Y-91000000D03*
%TD*%
D12*
%TO.P,D2,1,K*%
%TO.N,+12V*%
X90000000Y-44000000D03*
D13*
%TO.P,D2,2,A*%
%TO.N,Net-(D2-A)*%
X90000000Y-54160000D03*
%TD*%
D16*
%TO.P,K1,1*%
%TO.N,RBUT_COM*%
X93800000Y-71000000D03*
D17*
%TO.P,K1,2*%
%TO.N,Net-(D1-A)*%
X95800000Y-77000000D03*
D16*
%TO.P,K1,3*%
%TO.N,RBUT_NO*%
X108000000Y-77050000D03*
%TO.P,K1,4*%
%TO.N,unconnected-(K1-Pad4)*%
X108000000Y-65000000D03*
D17*
%TO.P,K1,5*%
%TO.N,+12V*%
X95800000Y-65000000D03*
%TD*%
D14*
%TO.P,R1,1*%
%TO.N,+5V*%
X60760000Y-78000000D03*
D13*
%TO.P,R1,2*%
%TO.N,RIGHT_SENSOR*%
X76000000Y-78000000D03*
%TD*%
D15*
%TO.P,J3,1,Pin_1*%
%TO.N,RBUT_NO*%
X82500000Y-91000000D03*
D16*
%TO.P,J3,2,Pin_2*%
%TO.N,RBUT_COM*%
X87580000Y-91000000D03*
%TO.P,J3,3,Pin_3*%
%TO.N,RIGHT_SENSOR*%
X92660000Y-91000000D03*
%TO.P,J3,4,Pin_4*%
%TO.N,Earth*%
X97740000Y-91000000D03*
%TD*%
D18*
%TO.P,U1,1,IN+*%
%TO.N,Net-(S1-A)*%
X48140000Y-35380000D03*
%TO.P,U1,2,IN-*%
%TO.N,Earth*%
X30360000Y-35380000D03*
D19*
%TO.P,U1,3,OUT-*%
X30360000Y-76020000D03*
%TO.P,U1,4,OUT+*%
%TO.N,Net-(JP1-A)*%
X48140000Y-76020000D03*
%TD*%
D20*
%TO.P,U2,1,Rst*%
%TO.N,unconnected-(U2-Rst-Pad1)*%
X80430000Y-63890000D03*
%TO.P,U2,2,A0*%
%TO.N,unconnected-(U2-A0-Pad2)*%
X80430000Y-61350000D03*
%TO.P,U2,3,16*%
%TO.N,unconnected-(U2-16-Pad3)*%
X80430000Y-58810000D03*
%TO.P,U2,4,14/SCK*%
%TO.N,LEFT_SENSOR*%
X80430000Y-56270000D03*
%TO.P,U2,5,12/MISO*%
%TO.N,RIGHT_SENSOR*%
X80430000Y-53730000D03*
%TO.P,U2,6,13/MOSI*%
%TO.N,unconnected-(U2-13{slash}MOSI-Pad6)*%
X80430000Y-51190000D03*
%TO.P,U2,7,15*%
%TO.N,unconnected-(U2-15-Pad7)*%
X80430000Y-48650000D03*
%TO.P,U2,8,3.3V*%
%TO.N,unconnected-(U2-3.3V-Pad8)*%
X80430000Y-46110000D03*
%TO.P,U2,9,5V*%
%TO.N,+5V*%
X57570000Y-46110000D03*
%TO.P,U2,10,GND*%
%TO.N,Earth*%
X57570000Y-48650000D03*
%TO.P,U2,11,2(LED)*%
%TO.N,unconnected-(U2-2(LED)-Pad11)*%
X57570000Y-51190000D03*
%TO.P,U2,12,0*%
%TO.N,unconnected-(U2-0-Pad12)*%
X57570000Y-53730000D03*
%TO.P,U2,13,4/SDA*%
%TO.N,Net-(Q2-G)*%
X57570000Y-56270000D03*
%TO.P,U2,14,5/SCL*%
%TO.N,Net-(Q1-G)*%
X57570000Y-58810000D03*
%TO.P,U2,15,Rx*%
%TO.N,unconnected-(U2-Rx-Pad15)*%
X57570000Y-61350000D03*
%TO.P,U2,16,Tx*%
%TO.N,unconnected-(U2-Tx-Pad16)*%
X57570000Y-63890000D03*
%TD*%
D10*
%TO.P,Q2,1,D*%
%TO.N,Net-(D2-A)*%
X103420000Y-36500000D03*
D11*
%TO.P,Q2,2,G*%
%TO.N,Net-(Q2-G)*%
X105960000Y-36500000D03*
%TO.P,Q2,3,S*%
%TO.N,Earth*%
X108500000Y-36500000D03*
%TD*%
D21*
%TO.P,JP1,1,A*%
%TO.N,Net-(JP1-A)*%
X54000000Y-78000000D03*
D18*
%TO.P,JP1,2,B*%
%TO.N,+5V*%
X54000000Y-75460000D03*
%TD*%
D14*
%TO.P,R4,1*%
%TO.N,Net-(Q2-G)*%
X100000000Y-36500000D03*
D13*
%TO.P,R4,2*%
%TO.N,Earth*%
X84760000Y-36500000D03*
%TD*%
D22*
%TO.P,S1,*%
%TO.N,*%
X76000000Y-32840000D03*
X76000000Y-26840000D03*
X64000000Y-32840000D03*
X64000000Y-26840000D03*
D19*
%TO.P,S1,1,C*%
%TO.N,unconnected-(S1-C-Pad1)*%
X74000000Y-31090000D03*
%TO.P,S1,2,B*%
%TO.N,+12V*%
X70000000Y-31090000D03*
%TO.P,S1,3,A*%
%TO.N,Net-(S1-A)*%
X66000000Y-31090000D03*
%TD*%
D23*
%TO.P,D5,1,A1*%
%TO.N,RIGHT_SENSOR*%
X93000000Y-84000000D03*
%TO.P,D5,2,A2*%
%TO.N,Earth*%
X98000000Y-84000000D03*
%TD*%
%TO.P,D4,1,A1*%
%TO.N,LEFT_SENSOR*%
X68500000Y-84000000D03*
%TO.P,D4,2,A2*%
%TO.N,Earth*%
X73500000Y-84000000D03*
%TD*%
D24*
%TO.P,Q3,1,G*%
%TO.N,Earth*%
X44500000Y-76000000D03*
D25*
%TO.P,Q3,2,D*%
%TO.N,Net-(D3-A1)*%
X39875000Y-79805000D03*
X39875000Y-76755000D03*
D26*
X38200000Y-78280000D03*
D25*
X36525000Y-79805000D03*
X36525000Y-76755000D03*
D24*
%TO.P,Q3,3,S*%
%TO.N,+12V*%
X44500000Y-80560000D03*
%TD*%
D27*
%TO.P,D3,1,A1*%
%TO.N,Net-(D3-A1)*%
X45500000Y-84000000D03*
%TO.P,D3,2,A2*%
%TO.N,Earth*%
X40500000Y-84000000D03*
%TD*%
D28*
%TO.N,+12V*%
X50500000Y-84000000D03*
X63000000Y-66000000D03*
X83000000Y-62000000D03*
X81000000Y-69000000D03*
X66000000Y-63000000D03*
%TO.N,LEFT_SENSOR*%
X69000000Y-81000000D03*
X76000000Y-64900000D03*
X76000000Y-70000000D03*
%TO.N,RIGHT_SENSOR*%
X74500000Y-65000000D03*
X83000000Y-80000000D03*
%TO.N,+5V*%
X58000000Y-72000000D03*
%TO.N,Net-(Q1-G)*%
X91000000Y-57000000D03*
X95000000Y-59000000D03*
%TD*%
D29*
%TO.N,+12V*%
X81000000Y-69000000D02*
X84160000Y-65840000D01*
X84160000Y-63160000D02*
X83000000Y-62000000D01*
D30*
X93750000Y-44000000D02*
X95800000Y-41950000D01*
D29*
X84160000Y-65840000D02*
X90000000Y-65840000D01*
X63000000Y-66000000D02*
X66000000Y-63000000D01*
X44500000Y-80560000D02*
X47060000Y-80560000D01*
D30*
X90000000Y-44000000D02*
X93750000Y-44000000D01*
X90000000Y-65840000D02*
X94960000Y-65840000D01*
X94960000Y-65840000D02*
X95800000Y-65000000D01*
D29*
X47060000Y-80560000D02*
X50500000Y-84000000D01*
X84160000Y-65840000D02*
X84160000Y-63160000D01*
%TO.N,Net-(D1-A)*%
X103920000Y-66080000D02*
X103920000Y-60000000D01*
X95800000Y-74200000D02*
X103920000Y-66080000D01*
D30*
X90000000Y-76000000D02*
X94800000Y-76000000D01*
X94800000Y-76000000D02*
X95800000Y-77000000D01*
D29*
X95800000Y-77000000D02*
X95800000Y-74200000D01*
D30*
%TO.N,Net-(D2-A)*%
X95800000Y-53950000D02*
X90210000Y-53950000D01*
X90210000Y-53950000D02*
X90000000Y-54160000D01*
%TO.N,LEFT_SENSOR*%
X68500000Y-89880000D02*
X67380000Y-91000000D01*
D29*
X68500000Y-81500000D02*
X69000000Y-81000000D01*
X68500000Y-84000000D02*
X68500000Y-81500000D01*
X76000000Y-70000000D02*
X76000000Y-64900000D01*
D30*
X68500000Y-84000000D02*
X68500000Y-89880000D01*
D29*
%TO.N,RIGHT_SENSOR*%
X87000000Y-84000000D02*
X93000000Y-84000000D01*
X74500000Y-65000000D02*
X74500000Y-76000000D01*
D30*
X93000000Y-90660000D02*
X92660000Y-91000000D01*
D29*
X83000000Y-80000000D02*
X87000000Y-84000000D01*
X74500000Y-76000000D02*
X76000000Y-78000000D01*
D30*
X93000000Y-84000000D02*
X93000000Y-90660000D01*
D29*
%TO.N,+5V*%
X60000000Y-74000000D02*
X58000000Y-72000000D01*
X60760000Y-74000000D02*
X60000000Y-74000000D01*
%TO.N,Net-(Q1-G)*%
X105260000Y-58800000D02*
X101200000Y-58800000D01*
X101200000Y-58800000D02*
X100000000Y-60000000D01*
X91000000Y-57000000D02*
X93000000Y-57000000D01*
X106460000Y-60000000D02*
X105260000Y-58800000D01*
X93000000Y-57000000D02*
X95000000Y-59000000D01*
D30*
%TO.N,Net-(D3-A1)*%
X43000000Y-82500000D02*
X40305000Y-79805000D01*
X47170000Y-91000000D02*
X47170000Y-85670000D01*
X47170000Y-85670000D02*
X45500000Y-84000000D01*
X45500000Y-84000000D02*
X44000000Y-82500000D01*
X44000000Y-82500000D02*
X43000000Y-82500000D01*
X40305000Y-79805000D02*
X39875000Y-79805000D01*
%TD*%
%TA.AperFunction,Conductor*%
%TO.N,Earth*%
G36*
X112000855Y-25000011D02*
G01*
X112162269Y-25002274D01*
X112174390Y-25003041D01*
X112478553Y-25037312D01*
X112495992Y-25039277D01*
X112509700Y-25041606D01*
X112824366Y-25113426D01*
X112837725Y-25117273D01*
X113142392Y-25223881D01*
X113155228Y-25229199D01*
X113384271Y-25339500D01*
X113446025Y-25369239D01*
X113458195Y-25375965D01*
X113731486Y-25547685D01*
X113742824Y-25555730D01*
X113995173Y-25756971D01*
X114005541Y-25766237D01*
X114233762Y-25994458D01*
X114243028Y-26004826D01*
X114444267Y-26257172D01*
X114452314Y-26268513D01*
X114624034Y-26541804D01*
X114630760Y-26553974D01*
X114770798Y-26844766D01*
X114776120Y-26857613D01*
X114882724Y-27162270D01*
X114886573Y-27175633D01*
X114958393Y-27490299D01*
X114960722Y-27504007D01*
X114996957Y-27825597D01*
X114997725Y-27837743D01*
X114999988Y-27999144D01*
X115000000Y-28000882D01*
X115000000Y-91999117D01*
X114999988Y-92000855D01*
X114997725Y-92162256D01*
X114996957Y-92174402D01*
X114960722Y-92495992D01*
X114958393Y-92509700D01*
X114886573Y-92824366D01*
X114882724Y-92837729D01*
X114776120Y-93142386D01*
X114770798Y-93155233D01*
X114630760Y-93446025D01*
X114624034Y-93458195D01*
X114452314Y-93731486D01*
X114444267Y-93742827D01*
X114243028Y-93995173D01*
X114233762Y-94005541D01*
X114005541Y-94233762D01*
X113995173Y-94243028D01*
X113742827Y-94444267D01*
X113731486Y-94452314D01*
X113458195Y-94624034D01*
X113446025Y-94630760D01*
X113155233Y-94770798D01*
X113142386Y-94776120D01*
X112837729Y-94882724D01*
X112824366Y-94886573D01*
X112509700Y-94958393D01*
X112495992Y-94960722D01*
X112174402Y-94996957D01*
X112162256Y-94997725D01*
X112000856Y-94999988D01*
X111999118Y-95000000D01*
X28000882Y-95000000D01*
X27999144Y-94999988D01*
X27837743Y-94997725D01*
X27825597Y-94996957D01*
X27504007Y-94960722D01*
X27490299Y-94958393D01*
X27175633Y-94886573D01*
X27162270Y-94882724D01*
X26857613Y-94776120D01*
X26844766Y-94770798D01*
X26553974Y-94630760D01*
X26541804Y-94624034D01*
X26268513Y-94452314D01*
X26257172Y-94444267D01*
X26004826Y-94243028D01*
X25994458Y-94233762D01*
X25766237Y-94005541D01*
X25756971Y-93995173D01*
X25555732Y-93742827D01*
X25547685Y-93731486D01*
X25375965Y-93458195D01*
X25369239Y-93446025D01*
X25229201Y-93155233D01*
X25223879Y-93142386D01*
X25174230Y-93000498D01*
X25117273Y-92837725D01*
X25113426Y-92824366D01*
X25113321Y-92823908D01*
X25094646Y-92742086D01*
X25041606Y-92509700D01*
X25039277Y-92495992D01*
X25018702Y-92313387D01*
X25003041Y-92174390D01*
X25002274Y-92162269D01*
X25000012Y-92000855D01*
X25000000Y-91999117D01*
X25000000Y-89452155D01*
X40090000Y-89452155D01*
X40090000Y-90750000D01*
X41370936Y-90750000D01*
X41359207Y-90778316D01*
X41330000Y-90925147D01*
X41330000Y-91074853D01*
X41359207Y-91221684D01*
X41370936Y-91250000D01*
X40090000Y-91250000D01*
X40090000Y-92547844D01*
X40096401Y-92607372D01*
X40096403Y-92607379D01*
X40146645Y-92742086D01*
X40146649Y-92742093D01*
X40232809Y-92857187D01*
X40232812Y-92857190D01*
X40347906Y-92943350D01*
X40347913Y-92943354D01*
X40482620Y-92993596D01*
X40482627Y-92993598D01*
X40542155Y-92999999D01*
X40542172Y-93000000D01*
X41840000Y-93000000D01*
X41840000Y-91719064D01*
X41868316Y-91730793D01*
X42015147Y-91760000D01*
X42164853Y-91760000D01*
X42311684Y-91730793D01*
X42340000Y-91719064D01*
X42340000Y-93000000D01*
X43637828Y-93000000D01*
X43637844Y-92999999D01*
X43697372Y-92993598D01*
X43697379Y-92993596D01*
X43832086Y-92943354D01*
X43832093Y-92943350D01*
X43947187Y-92857190D01*
X43947190Y-92857187D01*
X44033350Y-92742093D01*
X44033354Y-92742086D01*
X44083596Y-92607379D01*
X44083598Y-92607372D01*
X44089999Y-92547844D01*
X44090000Y-92547827D01*
X44090000Y-91250000D01*
X42809064Y-91250000D01*
X42820793Y-91221684D01*
X42850000Y-91074853D01*
X42850000Y-90925147D01*
X42820793Y-90778316D01*
X42809064Y-90750000D01*
X44090000Y-90750000D01*
X44090000Y-89452172D01*
X44089999Y-89452155D01*
X44083598Y-89392627D01*
X44083596Y-89392620D01*
X44033354Y-89257913D01*
X44033350Y-89257906D01*
X43947190Y-89142812D01*
X43947187Y-89142809D01*
X43832093Y-89056649D01*
X43832086Y-89056645D01*
X43697379Y-89006403D01*
X43697372Y-89006401D01*
X43637844Y-89000000D01*
X42340000Y-89000000D01*
X42340000Y-90280935D01*
X42311684Y-90269207D01*
X42164853Y-90240000D01*
X42015147Y-90240000D01*
X41868316Y-90269207D01*
X41840000Y-90280935D01*
X41840000Y-89000000D01*
X40542155Y-89000000D01*
X40482627Y-89006401D01*
X40482620Y-89006403D01*
X40347913Y-89056645D01*
X40347906Y-89056649D01*
X40232812Y-89142809D01*
X40232809Y-89142812D01*
X40146649Y-89257906D01*
X40146645Y-89257913D01*
X40096403Y-89392620D01*
X40096401Y-89392627D01*
X40090000Y-89452155D01*
X25000000Y-89452155D01*
X25000000Y-84699986D01*
X38250001Y-84699986D01*
X38260494Y-84802697D01*
X38315641Y-84969119D01*
X38315643Y-84969124D01*
X38407684Y-85118345D01*
X38531654Y-85242315D01*
X38680875Y-85334356D01*
X38680880Y-85334358D01*
X38847302Y-85389505D01*
X38847309Y-85389506D01*
X38950019Y-85399999D01*
X40249999Y-85399999D01*
X40750000Y-85399999D01*
X42049972Y-85399999D01*
X42049986Y-85399998D01*
X42152697Y-85389505D01*
X42319119Y-85334358D01*
X42319124Y-85334356D01*
X42468345Y-85242315D01*
X42592315Y-85118345D01*
X42684356Y-84969124D01*
X42684358Y-84969119D01*
X42739505Y-84802697D01*
X42739506Y-84802690D01*
X42749999Y-84699986D01*
X42750000Y-84699973D01*
X42750000Y-84250000D01*
X40750000Y-84250000D01*
X40750000Y-85399999D01*
X40249999Y-85399999D01*
X40250000Y-85399998D01*
X40250000Y-84250000D01*
X38250001Y-84250000D01*
X38250001Y-84699986D01*
X25000000Y-84699986D01*
X25000000Y-83300013D01*
X38250000Y-83300013D01*
X38250000Y-83750000D01*
X40250000Y-83750000D01*
X40250000Y-82600000D01*
X38950028Y-82600000D01*
X38950012Y-82600001D01*
X38847302Y-82610494D01*
X38680880Y-82665641D01*
X38680875Y-82665643D01*
X38531654Y-82757684D01*
X38407684Y-82881654D01*
X38315643Y-83030875D01*
X38315641Y-83030880D01*
X38260494Y-83197302D01*
X38260493Y-83197309D01*
X38250000Y-83300013D01*
X25000000Y-83300013D01*
X25000000Y-76019998D01*
X29004843Y-76019998D01*
X29004843Y-76020001D01*
X29025430Y-76255315D01*
X29025432Y-76255326D01*
X29086566Y-76483482D01*
X29086570Y-76483492D01*
X29186400Y-76697579D01*
X29186402Y-76697583D01*
X29245072Y-76781373D01*
X29245073Y-76781373D01*
X29877037Y-76149409D01*
X29894075Y-76212993D01*
X29959901Y-76327007D01*
X30052993Y-76420099D01*
X30167007Y-76485925D01*
X30230590Y-76502962D01*
X29598625Y-77134925D01*
X29682421Y-77193599D01*
X29896507Y-77293429D01*
X29896516Y-77293433D01*
X30124673Y-77354567D01*
X30124684Y-77354569D01*
X30359998Y-77375157D01*
X30360002Y-77375157D01*
X30595315Y-77354569D01*
X30595326Y-77354567D01*
X30823483Y-77293433D01*
X30823492Y-77293429D01*
X31037578Y-77193600D01*
X31037582Y-77193598D01*
X31121373Y-77134926D01*
X31121373Y-77134925D01*
X30489409Y-76502962D01*
X30552993Y-76485925D01*
X30667007Y-76420099D01*
X30760099Y-76327007D01*
X30825925Y-76212993D01*
X30842962Y-76149410D01*
X31474925Y-76781373D01*
X31474926Y-76781373D01*
X31533598Y-76697582D01*
X31533600Y-76697578D01*
X31633429Y-76483492D01*
X31633434Y-76483482D01*
X31694567Y-76255326D01*
X31694569Y-76255315D01*
X31715157Y-76020001D01*
X31715157Y-76019998D01*
X31694569Y-75784684D01*
X31694567Y-75784673D01*
X31639720Y-75579980D01*
X34499500Y-75579980D01*
X34499500Y-80980019D01*
X34510001Y-81082801D01*
X34565184Y-81249333D01*
X34565189Y-81249344D01*
X34657285Y-81398653D01*
X34657288Y-81398657D01*
X34781342Y-81522711D01*
X34781346Y-81522714D01*
X34930655Y-81614810D01*
X34930658Y-81614811D01*
X34930664Y-81614815D01*
X35097200Y-81669999D01*
X35199988Y-81680500D01*
X35199991Y-81680500D01*
X38549991Y-81680500D01*
X40714218Y-81680500D01*
X40781257Y-81700185D01*
X40801899Y-81716819D01*
X41473398Y-82388319D01*
X41506883Y-82449642D01*
X41501899Y-82519334D01*
X41460027Y-82575267D01*
X41394563Y-82599684D01*
X41385717Y-82600000D01*
X40750000Y-82600000D01*
X40750000Y-83750000D01*
X42749999Y-83750000D01*
X42749999Y-83621468D01*
X42769684Y-83554429D01*
X42822488Y-83508674D01*
X42891646Y-83498730D01*
X42898187Y-83499850D01*
X42901460Y-83500501D01*
X43104655Y-83500501D01*
X43104675Y-83500500D01*
X43125500Y-83500500D01*
X43192539Y-83520185D01*
X43238294Y-83572989D01*
X43249500Y-83624500D01*
X43249500Y-84700001D01*
X43249501Y-84700018D01*
X43260000Y-84802796D01*
X43260001Y-84802799D01*
X43304387Y-84936746D01*
X43315186Y-84969334D01*
X43407288Y-85118656D01*
X43531344Y-85242712D01*
X43680666Y-85334814D01*
X43847203Y-85389999D01*
X43949991Y-85400500D01*
X45434217Y-85400499D01*
X45501256Y-85420184D01*
X45521898Y-85436818D01*
X46133181Y-86048101D01*
X46166666Y-86109424D01*
X46169500Y-86135782D01*
X46169500Y-89193434D01*
X46149815Y-89260473D01*
X46104929Y-89302265D01*
X46085690Y-89312770D01*
X46085682Y-89312775D01*
X45856612Y-89484254D01*
X45856594Y-89484270D01*
X45654270Y-89686594D01*
X45654254Y-89686612D01*
X45482775Y-89915682D01*
X45482770Y-89915690D01*
X45345635Y-90166833D01*
X45245628Y-90434962D01*
X45184804Y-90714566D01*
X45164390Y-90999998D01*
X45164390Y-91000001D01*
X45184804Y-91285433D01*
X45245628Y-91565037D01*
X45245630Y-91565043D01*
X45245631Y-91565046D01*
X45307452Y-91730793D01*
X45345635Y-91833166D01*
X45482770Y-92084309D01*
X45482775Y-92084317D01*
X45654254Y-92313387D01*
X45654270Y-92313405D01*
X45856594Y-92515729D01*
X45856612Y-92515745D01*
X46085682Y-92687224D01*
X46085690Y-92687229D01*
X46336833Y-92824364D01*
X46336832Y-92824364D01*
X46336836Y-92824365D01*
X46336839Y-92824367D01*
X46604954Y-92924369D01*
X46604960Y-92924370D01*
X46604962Y-92924371D01*
X46884566Y-92985195D01*
X46884568Y-92985195D01*
X46884572Y-92985196D01*
X47138220Y-93003337D01*
X47169999Y-93005610D01*
X47170000Y-93005610D01*
X47170001Y-93005610D01*
X47198595Y-93003564D01*
X47455428Y-92985196D01*
X47645742Y-92943796D01*
X47735037Y-92924371D01*
X47735037Y-92924370D01*
X47735046Y-92924369D01*
X48003161Y-92824367D01*
X48254315Y-92687226D01*
X48483395Y-92515739D01*
X48685739Y-92313395D01*
X48857226Y-92084315D01*
X48994367Y-91833161D01*
X49094369Y-91565046D01*
X49155196Y-91285428D01*
X49175610Y-91000000D01*
X49155196Y-90714572D01*
X49112468Y-90518156D01*
X49094371Y-90434962D01*
X49094370Y-90434960D01*
X49094369Y-90434954D01*
X48994367Y-90166839D01*
X48857372Y-89915953D01*
X48857229Y-89915690D01*
X48857224Y-89915682D01*
X48685745Y-89686612D01*
X48685729Y-89686594D01*
X48483405Y-89484270D01*
X48483387Y-89484254D01*
X48440481Y-89452135D01*
X55219500Y-89452135D01*
X55219500Y-92547870D01*
X55219501Y-92547876D01*
X55225908Y-92607483D01*
X55276202Y-92742328D01*
X55276206Y-92742335D01*
X55362452Y-92857544D01*
X55362455Y-92857547D01*
X55477664Y-92943793D01*
X55477671Y-92943797D01*
X55612517Y-92994091D01*
X55612516Y-92994091D01*
X55619444Y-92994835D01*
X55672127Y-93000500D01*
X58767872Y-93000499D01*
X58827483Y-92994091D01*
X58962331Y-92943796D01*
X59077546Y-92857546D01*
X59163796Y-92742331D01*
X59214091Y-92607483D01*
X59220500Y-92547873D01*
X59220499Y-90999998D01*
X60294390Y-90999998D01*
X60294390Y-91000001D01*
X60314804Y-91285433D01*
X60375628Y-91565037D01*
X60375630Y-91565043D01*
X60375631Y-91565046D01*
X60437452Y-91730793D01*
X60475635Y-91833166D01*
X60612770Y-92084309D01*
X60612775Y-92084317D01*
X60784254Y-92313387D01*
X60784270Y-92313405D01*
X60986594Y-92515729D01*
X60986612Y-92515745D01*
X61215682Y-92687224D01*
X61215690Y-92687229D01*
X61466833Y-92824364D01*
X61466832Y-92824364D01*
X61466836Y-92824365D01*
X61466839Y-92824367D01*
X61734954Y-92924369D01*
X61734960Y-92924370D01*
X61734962Y-92924371D01*
X62014566Y-92985195D01*
X62014568Y-92985195D01*
X62014572Y-92985196D01*
X62268220Y-93003337D01*
X62299999Y-93005610D01*
X62300000Y-93005610D01*
X62300001Y-93005610D01*
X62328595Y-93003564D01*
X62585428Y-92985196D01*
X62775742Y-92943796D01*
X62865037Y-92924371D01*
X62865037Y-92924370D01*
X62865046Y-92924369D01*
X63133161Y-92824367D01*
X63384315Y-92687226D01*
X63613395Y-92515739D01*
X63815739Y-92313395D01*
X63987226Y-92084315D01*
X64124367Y-91833161D01*
X64224369Y-91565046D01*
X64285196Y-91285428D01*
X64305610Y-91000000D01*
X64305610Y-90999998D01*
X65374390Y-90999998D01*
X65374390Y-91000001D01*
X65394804Y-91285433D01*
X65455628Y-91565037D01*
X65455630Y-91565043D01*
X65455631Y-91565046D01*
X65517452Y-91730793D01*
X65555635Y-91833166D01*
X65692770Y-92084309D01*
X65692775Y-92084317D01*
X65864254Y-92313387D01*
X65864270Y-92313405D01*
X66066594Y-92515729D01*
X66066612Y-92515745D01*
X66295682Y-92687224D01*
X66295690Y-92687229D01*
X66546833Y-92824364D01*
X66546832Y-92824364D01*
X66546836Y-92824365D01*
X66546839Y-92824367D01*
X66814954Y-92924369D01*
X66814960Y-92924370D01*
X66814962Y-92924371D01*
X67094566Y-92985195D01*
X67094568Y-92985195D01*
X67094572Y-92985196D01*
X67348220Y-93003337D01*
X67379999Y-93005610D01*
X67380000Y-93005610D01*
X67380001Y-93005610D01*
X67408595Y-93003564D01*
X67665428Y-92985196D01*
X67855742Y-92943796D01*
X67945037Y-92924371D01*
X67945037Y-92924370D01*
X67945046Y-92924369D01*
X68213161Y-92824367D01*
X68464315Y-92687226D01*
X68693395Y-92515739D01*
X68895739Y-92313395D01*
X69067226Y-92084315D01*
X69204367Y-91833161D01*
X69304369Y-91565046D01*
X69365196Y-91285428D01*
X69385610Y-91000000D01*
X69385610Y-90999998D01*
X70454891Y-90999998D01*
X70454891Y-91000001D01*
X70475300Y-91285362D01*
X70536109Y-91564895D01*
X70636091Y-91832958D01*
X70773191Y-92084038D01*
X70773196Y-92084046D01*
X70879882Y-92226561D01*
X70879883Y-92226562D01*
X71774767Y-91331677D01*
X71786497Y-91359995D01*
X71869670Y-91484472D01*
X71975528Y-91590330D01*
X72100005Y-91673503D01*
X72128320Y-91685231D01*
X71233436Y-92580115D01*
X71375960Y-92686807D01*
X71375961Y-92686808D01*
X71627042Y-92823908D01*
X71627041Y-92823908D01*
X71895104Y-92923890D01*
X72174637Y-92984699D01*
X72459999Y-93005109D01*
X72460001Y-93005109D01*
X72745362Y-92984699D01*
X73024895Y-92923890D01*
X73292958Y-92823908D01*
X73544047Y-92686803D01*
X73686561Y-92580116D01*
X73686562Y-92580115D01*
X72791679Y-91685231D01*
X72819995Y-91673503D01*
X72944472Y-91590330D01*
X73050330Y-91484472D01*
X73133503Y-91359995D01*
X73145231Y-91331678D01*
X74040115Y-92226562D01*
X74040116Y-92226561D01*
X74146803Y-92084047D01*
X74283908Y-91832958D01*
X74383890Y-91564895D01*
X74444699Y-91285362D01*
X74465109Y-91000001D01*
X74465109Y-90999998D01*
X74444699Y-90714637D01*
X74383890Y-90435104D01*
X74283908Y-90167041D01*
X74146808Y-89915961D01*
X74146807Y-89915960D01*
X74040115Y-89773436D01*
X73145231Y-90668320D01*
X73133503Y-90640005D01*
X73050330Y-90515528D01*
X72944472Y-90409670D01*
X72819995Y-90326497D01*
X72791678Y-90314767D01*
X73654310Y-89452135D01*
X80499500Y-89452135D01*
X80499500Y-92547870D01*
X80499501Y-92547876D01*
X80505908Y-92607483D01*
X80556202Y-92742328D01*
X80556206Y-92742335D01*
X80642452Y-92857544D01*
X80642455Y-92857547D01*
X80757664Y-92943793D01*
X80757671Y-92943797D01*
X80892517Y-92994091D01*
X80892516Y-92994091D01*
X80899444Y-92994835D01*
X80952127Y-93000500D01*
X84047872Y-93000499D01*
X84107483Y-92994091D01*
X84242331Y-92943796D01*
X84357546Y-92857546D01*
X84443796Y-92742331D01*
X84494091Y-92607483D01*
X84500500Y-92547873D01*
X84500499Y-90999998D01*
X85574390Y-90999998D01*
X85574390Y-91000001D01*
X85594804Y-91285433D01*
X85655628Y-91565037D01*
X85655630Y-91565043D01*
X85655631Y-91565046D01*
X85717452Y-91730793D01*
X85755635Y-91833166D01*
X85892770Y-92084309D01*
X85892775Y-92084317D01*
X86064254Y-92313387D01*
X86064270Y-92313405D01*
X86266594Y-92515729D01*
X86266612Y-92515745D01*
X86495682Y-92687224D01*
X86495690Y-92687229D01*
X86746833Y-92824364D01*
X86746832Y-92824364D01*
X86746836Y-92824365D01*
X86746839Y-92824367D01*
X87014954Y-92924369D01*
X87014960Y-92924370D01*
X87014962Y-92924371D01*
X87294566Y-92985195D01*
X87294568Y-92985195D01*
X87294572Y-92985196D01*
X87548220Y-93003337D01*
X87579999Y-93005610D01*
X87580000Y-93005610D01*
X87580001Y-93005610D01*
X87608595Y-93003564D01*
X87865428Y-92985196D01*
X88055742Y-92943796D01*
X88145037Y-92924371D01*
X88145037Y-92924370D01*
X88145046Y-92924369D01*
X88413161Y-92824367D01*
X88664315Y-92687226D01*
X88893395Y-92515739D01*
X89095739Y-92313395D01*
X89267226Y-92084315D01*
X89404367Y-91833161D01*
X89504369Y-91565046D01*
X89565196Y-91285428D01*
X89585610Y-91000000D01*
X89565196Y-90714572D01*
X89522468Y-90518156D01*
X89504371Y-90434962D01*
X89504370Y-90434960D01*
X89504369Y-90434954D01*
X89404367Y-90166839D01*
X89267372Y-89915953D01*
X89267229Y-89915690D01*
X89267224Y-89915682D01*
X89095745Y-89686612D01*
X89095729Y-89686594D01*
X88893405Y-89484270D01*
X88893387Y-89484254D01*
X88664317Y-89312775D01*
X88664309Y-89312770D01*
X88413166Y-89175635D01*
X88413167Y-89175635D01*
X88189407Y-89092177D01*
X88145046Y-89075631D01*
X88145043Y-89075630D01*
X88145037Y-89075628D01*
X87865433Y-89014804D01*
X87580001Y-88994390D01*
X87579999Y-88994390D01*
X87294566Y-89014804D01*
X87014962Y-89075628D01*
X86746833Y-89175635D01*
X86495690Y-89312770D01*
X86495682Y-89312775D01*
X86266612Y-89484254D01*
X86266594Y-89484270D01*
X86064270Y-89686594D01*
X86064254Y-89686612D01*
X85892775Y-89915682D01*
X85892770Y-89915690D01*
X85755635Y-90166833D01*
X85655628Y-90434962D01*
X85594804Y-90714566D01*
X85574390Y-90999998D01*
X84500499Y-90999998D01*
X84500499Y-89452128D01*
X84494091Y-89392517D01*
X84464506Y-89313196D01*
X84443797Y-89257671D01*
X84443793Y-89257664D01*
X84357547Y-89142455D01*
X84357544Y-89142452D01*
X84242335Y-89056206D01*
X84242328Y-89056202D01*
X84107482Y-89005908D01*
X84107483Y-89005908D01*
X84047883Y-88999501D01*
X84047881Y-88999500D01*
X84047873Y-88999500D01*
X84047864Y-88999500D01*
X80952129Y-88999500D01*
X80952123Y-88999501D01*
X80892516Y-89005908D01*
X80757671Y-89056202D01*
X80757664Y-89056206D01*
X80642455Y-89142452D01*
X80642452Y-89142455D01*
X80556206Y-89257664D01*
X80556202Y-89257671D01*
X80505908Y-89392517D01*
X80499501Y-89452116D01*
X80499501Y-89452123D01*
X80499500Y-89452135D01*
X73654310Y-89452135D01*
X73686562Y-89419883D01*
X73686561Y-89419882D01*
X73544046Y-89313196D01*
X73544038Y-89313191D01*
X73292957Y-89176091D01*
X73292958Y-89176091D01*
X73024895Y-89076109D01*
X72745362Y-89015300D01*
X72460001Y-88994891D01*
X72459999Y-88994891D01*
X72174637Y-89015300D01*
X71895104Y-89076109D01*
X71627041Y-89176091D01*
X71375961Y-89313191D01*
X71375953Y-89313196D01*
X71233437Y-89419882D01*
X71233436Y-89419883D01*
X72128321Y-90314767D01*
X72100005Y-90326497D01*
X71975528Y-90409670D01*
X71869670Y-90515528D01*
X71786497Y-90640005D01*
X71774768Y-90668321D01*
X70879883Y-89773436D01*
X70879882Y-89773437D01*
X70773196Y-89915953D01*
X70773191Y-89915961D01*
X70636091Y-90167041D01*
X70536109Y-90435104D01*
X70475300Y-90714637D01*
X70454891Y-90999998D01*
X69385610Y-90999998D01*
X69365196Y-90714572D01*
X69322467Y-90518153D01*
X69327451Y-90448464D01*
X69340528Y-90422911D01*
X69386632Y-90353914D01*
X69462051Y-90171835D01*
X69500500Y-89978541D01*
X69500500Y-85524499D01*
X69520185Y-85457460D01*
X69572989Y-85411705D01*
X69624500Y-85400499D01*
X70050002Y-85400499D01*
X70050008Y-85400499D01*
X70152797Y-85389999D01*
X70319334Y-85334814D01*
X70468656Y-85242712D01*
X70592712Y-85118656D01*
X70684814Y-84969334D01*
X70739999Y-84802797D01*
X70750500Y-84700009D01*
X70750500Y-84699986D01*
X71250001Y-84699986D01*
X71260494Y-84802697D01*
X71315641Y-84969119D01*
X71315643Y-84969124D01*
X71407684Y-85118345D01*
X71531654Y-85242315D01*
X71680875Y-85334356D01*
X71680880Y-85334358D01*
X71847302Y-85389505D01*
X71847309Y-85389506D01*
X71950019Y-85399999D01*
X73249999Y-85399999D01*
X73750000Y-85399999D01*
X75049972Y-85399999D01*
X75049986Y-85399998D01*
X75152697Y-85389505D01*
X75319119Y-85334358D01*
X75319124Y-85334356D01*
X75468345Y-85242315D01*
X75592315Y-85118345D01*
X75684356Y-84969124D01*
X75684358Y-84969119D01*
X75739505Y-84802697D01*
X75739506Y-84802690D01*
X75749999Y-84699986D01*
X75750000Y-84699973D01*
X75750000Y-84250000D01*
X73750000Y-84250000D01*
X73750000Y-85399999D01*
X73249999Y-85399999D01*
X73250000Y-85399998D01*
X73250000Y-84250000D01*
X71250001Y-84250000D01*
X71250001Y-84699986D01*
X70750500Y-84699986D01*
X70750499Y-83300013D01*
X71250000Y-83300013D01*
X71250000Y-83750000D01*
X73250000Y-83750000D01*
X73750000Y-83750000D01*
X75749999Y-83750000D01*
X75749999Y-83300028D01*
X75749998Y-83300013D01*
X75739505Y-83197302D01*
X75684358Y-83030880D01*
X75684356Y-83030875D01*
X75592315Y-82881654D01*
X75468345Y-82757684D01*
X75319124Y-82665643D01*
X75319119Y-82665641D01*
X75152697Y-82610494D01*
X75152690Y-82610493D01*
X75049986Y-82600000D01*
X73750000Y-82600000D01*
X73750000Y-83750000D01*
X73250000Y-83750000D01*
X73250000Y-82600000D01*
X71950028Y-82600000D01*
X71950012Y-82600001D01*
X71847302Y-82610494D01*
X71680880Y-82665641D01*
X71680875Y-82665643D01*
X71531654Y-82757684D01*
X71407684Y-82881654D01*
X71315643Y-83030875D01*
X71315641Y-83030880D01*
X71260494Y-83197302D01*
X71260493Y-83197309D01*
X71250000Y-83300013D01*
X70750499Y-83300013D01*
X70750499Y-83299992D01*
X70739999Y-83197203D01*
X70684814Y-83030666D01*
X70592712Y-82881344D01*
X70468656Y-82757288D01*
X70319334Y-82665186D01*
X70152797Y-82610001D01*
X70152795Y-82610000D01*
X70050016Y-82599500D01*
X70050009Y-82599500D01*
X69374500Y-82599500D01*
X69307461Y-82579815D01*
X69261706Y-82527011D01*
X69250500Y-82475500D01*
X69250500Y-82009245D01*
X69270185Y-81942206D01*
X69322989Y-81896451D01*
X69338500Y-81890586D01*
X69365501Y-81882396D01*
X69530625Y-81794136D01*
X69675357Y-81675357D01*
X69794136Y-81530625D01*
X69882396Y-81365501D01*
X69936747Y-81186331D01*
X69955099Y-81000000D01*
X69936747Y-80813669D01*
X69882396Y-80634499D01*
X69794136Y-80469375D01*
X69794135Y-80469373D01*
X69675357Y-80324642D01*
X69530626Y-80205864D01*
X69530623Y-80205862D01*
X69365502Y-80117604D01*
X69186333Y-80063253D01*
X69186331Y-80063252D01*
X69000000Y-80044901D01*
X68813668Y-80063252D01*
X68813666Y-80063253D01*
X68634497Y-80117604D01*
X68469376Y-80205862D01*
X68469373Y-80205864D01*
X68324642Y-80324642D01*
X68205864Y-80469373D01*
X68205862Y-80469376D01*
X68117604Y-80634497D01*
X68063253Y-80813666D01*
X68060859Y-80837969D01*
X68034696Y-80902755D01*
X68025138Y-80913491D01*
X67917048Y-81021583D01*
X67917043Y-81021589D01*
X67889511Y-81062796D01*
X67889511Y-81062797D01*
X67834914Y-81144508D01*
X67778343Y-81281082D01*
X67778340Y-81281092D01*
X67749500Y-81426079D01*
X67749500Y-82475500D01*
X67729815Y-82542539D01*
X67677011Y-82588294D01*
X67625500Y-82599500D01*
X66949998Y-82599500D01*
X66949980Y-82599501D01*
X66847203Y-82610000D01*
X66847200Y-82610001D01*
X66680668Y-82665185D01*
X66680663Y-82665187D01*
X66531342Y-82757289D01*
X66407289Y-82881342D01*
X66315187Y-83030663D01*
X66315185Y-83030668D01*
X66315115Y-83030880D01*
X66260001Y-83197203D01*
X66260001Y-83197204D01*
X66260000Y-83197204D01*
X66249500Y-83299983D01*
X66249500Y-84700001D01*
X66249501Y-84700018D01*
X66260000Y-84802796D01*
X66260001Y-84802799D01*
X66304387Y-84936746D01*
X66315186Y-84969334D01*
X66407288Y-85118656D01*
X66531344Y-85242712D01*
X66680666Y-85334814D01*
X66847203Y-85389999D01*
X66949991Y-85400500D01*
X67375500Y-85400499D01*
X67442539Y-85420183D01*
X67488294Y-85472987D01*
X67499500Y-85524499D01*
X67499500Y-88870395D01*
X67479815Y-88937434D01*
X67427011Y-88983189D01*
X67384346Y-88994079D01*
X67094566Y-89014804D01*
X66814962Y-89075628D01*
X66546833Y-89175635D01*
X66295690Y-89312770D01*
X66295682Y-89312775D01*
X66066612Y-89484254D01*
X66066594Y-89484270D01*
X65864270Y-89686594D01*
X65864254Y-89686612D01*
X65692775Y-89915682D01*
X65692770Y-89915690D01*
X65555635Y-90166833D01*
X65455628Y-90434962D01*
X65394804Y-90714566D01*
X65374390Y-90999998D01*
X64305610Y-90999998D01*
X64285196Y-90714572D01*
X64242468Y-90518156D01*
X64224371Y-90434962D01*
X64224370Y-90434960D01*
X64224369Y-90434954D01*
X64124367Y-90166839D01*
X63987372Y-89915953D01*
X63987229Y-89915690D01*
X63987224Y-89915682D01*
X63815745Y-89686612D01*
X63815729Y-89686594D01*
X63613405Y-89484270D01*
X63613387Y-89484254D01*
X63384317Y-89312775D01*
X63384309Y-89312770D01*
X63133166Y-89175635D01*
X63133167Y-89175635D01*
X62909407Y-89092177D01*
X62865046Y-89075631D01*
X62865043Y-89075630D01*
X62865037Y-89075628D01*
X62585433Y-89014804D01*
X62300001Y-88994390D01*
X62299999Y-88994390D01*
X62014566Y-89014804D01*
X61734962Y-89075628D01*
X61466833Y-89175635D01*
X61215690Y-89312770D01*
X61215682Y-89312775D01*
X60986612Y-89484254D01*
X60986594Y-89484270D01*
X60784270Y-89686594D01*
X60784254Y-89686612D01*
X60612775Y-89915682D01*
X60612770Y-89915690D01*
X60475635Y-90166833D01*
X60375628Y-90434962D01*
X60314804Y-90714566D01*
X60294390Y-90999998D01*
X59220499Y-90999998D01*
X59220499Y-89452128D01*
X59214091Y-89392517D01*
X59184506Y-89313196D01*
X59163797Y-89257671D01*
X59163793Y-89257664D01*
X59077547Y-89142455D01*
X59077544Y-89142452D01*
X58962335Y-89056206D01*
X58962328Y-89056202D01*
X58827482Y-89005908D01*
X58827483Y-89005908D01*
X58767883Y-88999501D01*
X58767881Y-88999500D01*
X58767873Y-88999500D01*
X58767864Y-88999500D01*
X55672129Y-88999500D01*
X55672123Y-88999501D01*
X55612516Y-89005908D01*
X55477671Y-89056202D01*
X55477664Y-89056206D01*
X55362455Y-89142452D01*
X55362452Y-89142455D01*
X55276206Y-89257664D01*
X55276202Y-89257671D01*
X55225908Y-89392517D01*
X55219501Y-89452116D01*
X55219501Y-89452123D01*
X55219500Y-89452135D01*
X48440481Y-89452135D01*
X48254317Y-89312775D01*
X48254309Y-89312770D01*
X48235071Y-89302265D01*
X48185667Y-89252859D01*
X48170500Y-89193434D01*
X48170500Y-85571458D01*
X48170499Y-85571457D01*
X48164121Y-85539389D01*
X48132052Y-85378165D01*
X48056632Y-85196086D01*
X48056631Y-85196085D01*
X48056628Y-85196079D01*
X47947140Y-85032219D01*
X47947137Y-85032215D01*
X47779599Y-84864678D01*
X47746114Y-84803355D01*
X47743922Y-84764394D01*
X47745342Y-84750500D01*
X47750500Y-84700009D01*
X47750499Y-83299992D01*
X47739999Y-83197203D01*
X47684814Y-83030666D01*
X47592712Y-82881344D01*
X47468656Y-82757288D01*
X47319334Y-82665186D01*
X47152797Y-82610001D01*
X47152795Y-82610000D01*
X47050016Y-82599500D01*
X47050009Y-82599500D01*
X45565783Y-82599500D01*
X45498744Y-82579815D01*
X45478102Y-82563181D01*
X44787100Y-81872180D01*
X44753615Y-81810857D01*
X44758599Y-81741166D01*
X44800470Y-81685232D01*
X44865935Y-81660815D01*
X44874781Y-81660499D01*
X45400002Y-81660499D01*
X45400008Y-81660499D01*
X45502797Y-81649999D01*
X45669334Y-81594814D01*
X45818656Y-81502712D01*
X45942712Y-81378656D01*
X45948420Y-81369402D01*
X46000368Y-81322678D01*
X46053958Y-81310500D01*
X46697770Y-81310500D01*
X46764809Y-81330185D01*
X46785451Y-81346819D01*
X49525137Y-84086505D01*
X49558622Y-84147828D01*
X49560859Y-84162030D01*
X49563252Y-84186328D01*
X49563254Y-84186336D01*
X49617604Y-84365502D01*
X49705862Y-84530623D01*
X49705864Y-84530626D01*
X49824642Y-84675357D01*
X49969373Y-84794135D01*
X49969376Y-84794137D01*
X50134497Y-84882395D01*
X50134499Y-84882396D01*
X50313666Y-84936746D01*
X50313668Y-84936747D01*
X50330374Y-84938392D01*
X50500000Y-84955099D01*
X50686331Y-84936747D01*
X50865501Y-84882396D01*
X51030625Y-84794136D01*
X51175357Y-84675357D01*
X51294136Y-84530625D01*
X51382396Y-84365501D01*
X51436747Y-84186331D01*
X51455099Y-84000000D01*
X51436747Y-83813669D01*
X51382396Y-83634499D01*
X51382395Y-83634497D01*
X51294137Y-83469376D01*
X51294135Y-83469373D01*
X51175357Y-83324642D01*
X51030626Y-83205864D01*
X51030623Y-83205862D01*
X50865502Y-83117604D01*
X50686336Y-83063254D01*
X50686328Y-83063252D01*
X50662030Y-83060859D01*
X50597243Y-83034697D01*
X50586505Y-83025137D01*
X47561369Y-80000000D01*
X82044901Y-80000000D01*
X82063252Y-80186331D01*
X82063253Y-80186333D01*
X82117604Y-80365502D01*
X82205862Y-80530623D01*
X82205864Y-80530626D01*
X82324642Y-80675357D01*
X82469373Y-80794135D01*
X82469376Y-80794137D01*
X82551381Y-80837969D01*
X82634499Y-80882396D01*
X82813669Y-80936747D01*
X82837964Y-80939139D01*
X82902751Y-80965297D01*
X82913494Y-80974861D01*
X86521580Y-84582948D01*
X86521584Y-84582951D01*
X86644498Y-84665080D01*
X86644511Y-84665087D01*
X86728838Y-84700016D01*
X86781087Y-84721658D01*
X86781091Y-84721658D01*
X86781092Y-84721659D01*
X86926079Y-84750500D01*
X86926082Y-84750500D01*
X87073917Y-84750500D01*
X90653130Y-84750500D01*
X90720169Y-84770185D01*
X90765924Y-84822989D01*
X90770836Y-84835495D01*
X90815186Y-84969334D01*
X90907288Y-85118656D01*
X91031344Y-85242712D01*
X91180666Y-85334814D01*
X91347203Y-85389999D01*
X91449991Y-85400500D01*
X91875500Y-85400499D01*
X91942539Y-85420183D01*
X91988294Y-85472987D01*
X91999500Y-85524499D01*
X91999500Y-89025138D01*
X91979815Y-89092177D01*
X91927011Y-89137932D01*
X91918835Y-89141319D01*
X91826840Y-89175632D01*
X91826833Y-89175635D01*
X91575690Y-89312770D01*
X91575682Y-89312775D01*
X91346612Y-89484254D01*
X91346594Y-89484270D01*
X91144270Y-89686594D01*
X91144254Y-89686612D01*
X90972775Y-89915682D01*
X90972770Y-89915690D01*
X90835635Y-90166833D01*
X90735628Y-90434962D01*
X90674804Y-90714566D01*
X90654390Y-90999998D01*
X90654390Y-91000001D01*
X90674804Y-91285433D01*
X90735628Y-91565037D01*
X90735630Y-91565043D01*
X90735631Y-91565046D01*
X90797452Y-91730793D01*
X90835635Y-91833166D01*
X90972770Y-92084309D01*
X90972775Y-92084317D01*
X91144254Y-92313387D01*
X91144270Y-92313405D01*
X91346594Y-92515729D01*
X91346612Y-92515745D01*
X91575682Y-92687224D01*
X91575690Y-92687229D01*
X91826833Y-92824364D01*
X91826832Y-92824364D01*
X91826836Y-92824365D01*
X91826839Y-92824367D01*
X92094954Y-92924369D01*
X92094960Y-92924370D01*
X92094962Y-92924371D01*
X92374566Y-92985195D01*
X92374568Y-92985195D01*
X92374572Y-92985196D01*
X92628220Y-93003337D01*
X92659999Y-93005610D01*
X92660000Y-93005610D01*
X92660001Y-93005610D01*
X92688595Y-93003564D01*
X92945428Y-92985196D01*
X93135742Y-92943796D01*
X93225037Y-92924371D01*
X93225037Y-92924370D01*
X93225046Y-92924369D01*
X93493161Y-92824367D01*
X93744315Y-92687226D01*
X93973395Y-92515739D01*
X94175739Y-92313395D01*
X94347226Y-92084315D01*
X94484367Y-91833161D01*
X94584369Y-91565046D01*
X94645196Y-91285428D01*
X94665610Y-91000000D01*
X94665610Y-90999998D01*
X95734891Y-90999998D01*
X95734891Y-91000001D01*
X95755300Y-91285362D01*
X95816109Y-91564895D01*
X95916091Y-91832958D01*
X96053191Y-92084038D01*
X96053196Y-92084046D01*
X96159882Y-92226561D01*
X96159883Y-92226562D01*
X97054767Y-91331677D01*
X97066497Y-91359995D01*
X97149670Y-91484472D01*
X97255528Y-91590330D01*
X97380005Y-91673503D01*
X97408320Y-91685231D01*
X96513436Y-92580115D01*
X96655960Y-92686807D01*
X96655961Y-92686808D01*
X96907042Y-92823908D01*
X96907041Y-92823908D01*
X97175104Y-92923890D01*
X97454637Y-92984699D01*
X97739999Y-93005109D01*
X97740001Y-93005109D01*
X98025362Y-92984699D01*
X98304895Y-92923890D01*
X98572958Y-92823908D01*
X98824047Y-92686803D01*
X98966561Y-92580116D01*
X98966562Y-92580115D01*
X98071679Y-91685231D01*
X98099995Y-91673503D01*
X98224472Y-91590330D01*
X98330330Y-91484472D01*
X98413503Y-91359995D01*
X98425231Y-91331678D01*
X99320115Y-92226562D01*
X99320116Y-92226561D01*
X99426803Y-92084047D01*
X99563908Y-91832958D01*
X99663890Y-91564895D01*
X99724699Y-91285362D01*
X99745109Y-91000001D01*
X99745109Y-90999998D01*
X99724699Y-90714637D01*
X99663890Y-90435104D01*
X99563908Y-90167041D01*
X99426808Y-89915961D01*
X99426807Y-89915960D01*
X99320115Y-89773436D01*
X98425231Y-90668320D01*
X98413503Y-90640005D01*
X98330330Y-90515528D01*
X98224472Y-90409670D01*
X98099995Y-90326497D01*
X98071678Y-90314767D01*
X98966562Y-89419883D01*
X98966561Y-89419882D01*
X98824046Y-89313196D01*
X98824038Y-89313191D01*
X98572957Y-89176091D01*
X98572958Y-89176091D01*
X98304895Y-89076109D01*
X98025362Y-89015300D01*
X97740001Y-88994891D01*
X97739999Y-88994891D01*
X97454637Y-89015300D01*
X97175104Y-89076109D01*
X96907041Y-89176091D01*
X96655961Y-89313191D01*
X96655953Y-89313196D01*
X96513437Y-89419882D01*
X96513436Y-89419883D01*
X97408321Y-90314767D01*
X97380005Y-90326497D01*
X97255528Y-90409670D01*
X97149670Y-90515528D01*
X97066497Y-90640005D01*
X97054768Y-90668321D01*
X96159883Y-89773436D01*
X96159882Y-89773437D01*
X96053196Y-89915953D01*
X96053191Y-89915961D01*
X95916091Y-90167041D01*
X95816109Y-90435104D01*
X95755300Y-90714637D01*
X95734891Y-90999998D01*
X94665610Y-90999998D01*
X94645196Y-90714572D01*
X94602468Y-90518156D01*
X94584371Y-90434962D01*
X94584370Y-90434960D01*
X94584369Y-90434954D01*
X94484367Y-90166839D01*
X94347372Y-89915953D01*
X94347229Y-89915690D01*
X94347224Y-89915682D01*
X94175745Y-89686612D01*
X94175729Y-89686594D01*
X94036819Y-89547684D01*
X94003334Y-89486361D01*
X94000500Y-89460003D01*
X94000500Y-85524499D01*
X94020185Y-85457460D01*
X94072989Y-85411705D01*
X94124500Y-85400499D01*
X94550002Y-85400499D01*
X94550008Y-85400499D01*
X94652797Y-85389999D01*
X94819334Y-85334814D01*
X94968656Y-85242712D01*
X95092712Y-85118656D01*
X95184814Y-84969334D01*
X95239999Y-84802797D01*
X95250500Y-84700009D01*
X95250500Y-84699986D01*
X95750001Y-84699986D01*
X95760494Y-84802697D01*
X95815641Y-84969119D01*
X95815643Y-84969124D01*
X95907684Y-85118345D01*
X96031654Y-85242315D01*
X96180875Y-85334356D01*
X96180880Y-85334358D01*
X96347302Y-85389505D01*
X96347309Y-85389506D01*
X96450019Y-85399999D01*
X97749999Y-85399999D01*
X98250000Y-85399999D01*
X99549972Y-85399999D01*
X99549986Y-85399998D01*
X99652697Y-85389505D01*
X99819119Y-85334358D01*
X99819124Y-85334356D01*
X99968345Y-85242315D01*
X100092315Y-85118345D01*
X100184356Y-84969124D01*
X100184358Y-84969119D01*
X100239505Y-84802697D01*
X100239506Y-84802690D01*
X100249999Y-84699986D01*
X100250000Y-84699973D01*
X100250000Y-84250000D01*
X98250000Y-84250000D01*
X98250000Y-85399999D01*
X97749999Y-85399999D01*
X97750000Y-85399998D01*
X97750000Y-84250000D01*
X95750001Y-84250000D01*
X95750001Y-84699986D01*
X95250500Y-84699986D01*
X95250499Y-83300013D01*
X95750000Y-83300013D01*
X95750000Y-83750000D01*
X97750000Y-83750000D01*
X98250000Y-83750000D01*
X100249999Y-83750000D01*
X100249999Y-83300028D01*
X100249998Y-83300013D01*
X100239505Y-83197302D01*
X100184358Y-83030880D01*
X100184356Y-83030875D01*
X100092315Y-82881654D01*
X99968345Y-82757684D01*
X99819124Y-82665643D01*
X99819119Y-82665641D01*
X99652697Y-82610494D01*
X99652690Y-82610493D01*
X99549986Y-82600000D01*
X98250000Y-82600000D01*
X98250000Y-83750000D01*
X97750000Y-83750000D01*
X97750000Y-82600000D01*
X96450028Y-82600000D01*
X96450012Y-82600001D01*
X96347302Y-82610494D01*
X96180880Y-82665641D01*
X96180875Y-82665643D01*
X96031654Y-82757684D01*
X95907684Y-82881654D01*
X95815643Y-83030875D01*
X95815641Y-83030880D01*
X95760494Y-83197302D01*
X95760493Y-83197309D01*
X95750000Y-83300013D01*
X95250499Y-83300013D01*
X95250499Y-83299992D01*
X95239999Y-83197203D01*
X95184814Y-83030666D01*
X95092712Y-82881344D01*
X94968656Y-82757288D01*
X94819334Y-82665186D01*
X94652797Y-82610001D01*
X94652795Y-82610000D01*
X94550010Y-82599500D01*
X91449998Y-82599500D01*
X91449981Y-82599501D01*
X91347203Y-82610000D01*
X91347200Y-82610001D01*
X91180668Y-82665185D01*
X91180663Y-82665187D01*
X91031342Y-82757289D01*
X90907289Y-82881342D01*
X90815187Y-83030663D01*
X90815185Y-83030668D01*
X90815115Y-83030880D01*
X90770835Y-83164505D01*
X90731064Y-83221949D01*
X90666549Y-83248772D01*
X90653131Y-83249500D01*
X87362229Y-83249500D01*
X87295190Y-83229815D01*
X87274548Y-83213181D01*
X83974861Y-79913494D01*
X83941376Y-79852171D01*
X83939139Y-79837963D01*
X83936747Y-79813672D01*
X83936747Y-79813669D01*
X83882396Y-79634499D01*
X83823968Y-79525187D01*
X83794137Y-79469376D01*
X83794135Y-79469373D01*
X83675357Y-79324642D01*
X83530626Y-79205864D01*
X83530623Y-79205862D01*
X83365502Y-79117604D01*
X83186333Y-79063253D01*
X83186331Y-79063252D01*
X83000000Y-79044901D01*
X82813668Y-79063252D01*
X82813666Y-79063253D01*
X82634497Y-79117604D01*
X82469376Y-79205862D01*
X82469373Y-79205864D01*
X82324642Y-79324642D01*
X82205864Y-79469373D01*
X82205862Y-79469376D01*
X82117604Y-79634497D01*
X82063253Y-79813666D01*
X82063252Y-79813668D01*
X82044901Y-80000000D01*
X47561369Y-80000000D01*
X47538421Y-79977052D01*
X47538420Y-79977051D01*
X47538416Y-79977048D01*
X47428403Y-79903541D01*
X47428400Y-79903538D01*
X47415498Y-79894918D01*
X47415490Y-79894913D01*
X47278917Y-79838343D01*
X47278907Y-79838340D01*
X47133920Y-79809500D01*
X47133918Y-79809500D01*
X46053958Y-79809500D01*
X45986919Y-79789815D01*
X45948420Y-79750598D01*
X45942712Y-79741344D01*
X45818657Y-79617289D01*
X45818656Y-79617288D01*
X45669334Y-79525186D01*
X45502797Y-79470001D01*
X45502795Y-79470000D01*
X45400010Y-79459500D01*
X43599998Y-79459500D01*
X43599981Y-79459501D01*
X43497203Y-79470000D01*
X43497200Y-79470001D01*
X43330668Y-79525185D01*
X43330663Y-79525187D01*
X43181342Y-79617289D01*
X43057289Y-79741342D01*
X42965187Y-79890663D01*
X42965185Y-79890668D01*
X42942020Y-79960575D01*
X42910001Y-80057203D01*
X42910001Y-80057204D01*
X42910000Y-80057204D01*
X42899500Y-80159983D01*
X42899500Y-80685217D01*
X42879815Y-80752256D01*
X42827011Y-80798011D01*
X42757853Y-80807955D01*
X42694297Y-80778930D01*
X42687819Y-80772898D01*
X41936819Y-80021898D01*
X41903334Y-79960575D01*
X41900500Y-79934217D01*
X41900500Y-76399986D01*
X42900001Y-76399986D01*
X42910494Y-76502697D01*
X42965641Y-76669119D01*
X42965643Y-76669124D01*
X43057684Y-76818345D01*
X43181654Y-76942315D01*
X43330875Y-77034356D01*
X43330880Y-77034358D01*
X43497302Y-77089505D01*
X43497309Y-77089506D01*
X43600019Y-77099999D01*
X44249999Y-77099999D01*
X44750000Y-77099999D01*
X45399972Y-77099999D01*
X45399986Y-77099998D01*
X45502697Y-77089505D01*
X45669119Y-77034358D01*
X45669124Y-77034356D01*
X45818345Y-76942315D01*
X45942315Y-76818345D01*
X46034356Y-76669124D01*
X46034358Y-76669119D01*
X46089505Y-76502697D01*
X46089506Y-76502690D01*
X46099999Y-76399986D01*
X46100000Y-76399973D01*
X46100000Y-76250000D01*
X44750000Y-76250000D01*
X44750000Y-77099999D01*
X44249999Y-77099999D01*
X44250000Y-77099998D01*
X44250000Y-76250000D01*
X42900001Y-76250000D01*
X42900001Y-76399986D01*
X41900500Y-76399986D01*
X41900500Y-76019999D01*
X46784341Y-76019999D01*
X46784341Y-76020000D01*
X46804936Y-76255403D01*
X46804938Y-76255413D01*
X46866094Y-76483655D01*
X46866096Y-76483659D01*
X46866097Y-76483663D01*
X46944936Y-76652734D01*
X46965965Y-76697830D01*
X46965967Y-76697834D01*
X47064911Y-76839139D01*
X47101505Y-76891401D01*
X47268599Y-77058495D01*
X47349631Y-77115234D01*
X47462165Y-77194032D01*
X47462167Y-77194033D01*
X47462170Y-77194035D01*
X47676337Y-77293903D01*
X47904592Y-77355063D01*
X48092918Y-77371539D01*
X48139999Y-77375659D01*
X48140000Y-77375659D01*
X48140001Y-77375659D01*
X48179234Y-77372226D01*
X48375408Y-77355063D01*
X48603663Y-77293903D01*
X48817830Y-77194035D01*
X49011401Y-77058495D01*
X49178495Y-76891401D01*
X49314035Y-76697830D01*
X49413903Y-76483663D01*
X49475063Y-76255408D01*
X49495659Y-76020000D01*
X49475063Y-75784592D01*
X49413903Y-75556337D01*
X49368980Y-75459999D01*
X52644341Y-75459999D01*
X52644341Y-75460000D01*
X52664936Y-75695403D01*
X52664938Y-75695413D01*
X52726094Y-75923655D01*
X52726096Y-75923659D01*
X52726097Y-75923663D01*
X52815158Y-76114654D01*
X52825965Y-76137830D01*
X52825967Y-76137834D01*
X52910014Y-76257864D01*
X52961501Y-76331396D01*
X52961506Y-76331402D01*
X53083430Y-76453326D01*
X53116915Y-76514649D01*
X53111931Y-76584341D01*
X53070059Y-76640274D01*
X53039083Y-76657189D01*
X52907669Y-76706203D01*
X52907664Y-76706206D01*
X52792455Y-76792452D01*
X52792452Y-76792455D01*
X52706206Y-76907664D01*
X52706202Y-76907671D01*
X52655908Y-77042517D01*
X52650857Y-77089505D01*
X52649501Y-77102123D01*
X52649500Y-77102135D01*
X52649500Y-78897870D01*
X52649501Y-78897876D01*
X52655908Y-78957483D01*
X52706202Y-79092328D01*
X52706206Y-79092335D01*
X52792452Y-79207544D01*
X52792455Y-79207547D01*
X52907664Y-79293793D01*
X52907671Y-79293797D01*
X53042517Y-79344091D01*
X53042516Y-79344091D01*
X53049444Y-79344835D01*
X53102127Y-79350500D01*
X54897872Y-79350499D01*
X54957483Y-79344091D01*
X55092331Y-79293796D01*
X55207546Y-79207546D01*
X55293796Y-79092331D01*
X55344091Y-78957483D01*
X55350500Y-78897873D01*
X55350499Y-77999998D01*
X59454532Y-77999998D01*
X59454532Y-78000001D01*
X59474364Y-78226686D01*
X59474366Y-78226697D01*
X59533258Y-78446488D01*
X59533261Y-78446497D01*
X59629431Y-78652732D01*
X59629432Y-78652734D01*
X59759954Y-78839141D01*
X59920858Y-79000045D01*
X59920861Y-79000047D01*
X60107266Y-79130568D01*
X60313504Y-79226739D01*
X60533308Y-79285635D01*
X60695230Y-79299801D01*
X60759998Y-79305468D01*
X60760000Y-79305468D01*
X60760002Y-79305468D01*
X60816673Y-79300509D01*
X60986692Y-79285635D01*
X61206496Y-79226739D01*
X61412734Y-79130568D01*
X61599139Y-79000047D01*
X61760047Y-78839139D01*
X61890568Y-78652734D01*
X61986739Y-78446496D01*
X62045635Y-78226692D01*
X62065468Y-78000000D01*
X62045635Y-77773308D01*
X61986739Y-77553504D01*
X61890568Y-77347266D01*
X61792839Y-77207693D01*
X61760045Y-77160858D01*
X61599141Y-76999954D01*
X61412734Y-76869432D01*
X61412732Y-76869431D01*
X61206497Y-76773261D01*
X61206488Y-76773258D01*
X60986697Y-76714366D01*
X60986693Y-76714365D01*
X60986692Y-76714365D01*
X60986691Y-76714364D01*
X60986686Y-76714364D01*
X60760002Y-76694532D01*
X60759998Y-76694532D01*
X60533313Y-76714364D01*
X60533302Y-76714366D01*
X60313511Y-76773258D01*
X60313502Y-76773261D01*
X60107267Y-76869431D01*
X60107265Y-76869432D01*
X59920858Y-76999954D01*
X59759954Y-77160858D01*
X59629432Y-77347265D01*
X59629431Y-77347267D01*
X59533261Y-77553502D01*
X59533258Y-77553511D01*
X59474366Y-77773302D01*
X59474364Y-77773313D01*
X59454532Y-77999998D01*
X55350499Y-77999998D01*
X55350499Y-77102128D01*
X55344091Y-77042517D01*
X55341047Y-77034356D01*
X55293797Y-76907671D01*
X55293793Y-76907664D01*
X55207547Y-76792455D01*
X55207544Y-76792452D01*
X55092335Y-76706206D01*
X55092328Y-76706202D01*
X54960917Y-76657189D01*
X54904983Y-76615318D01*
X54880566Y-76549853D01*
X54895418Y-76481580D01*
X54916563Y-76453332D01*
X55038495Y-76331401D01*
X55174035Y-76137830D01*
X55273903Y-75923663D01*
X55335063Y-75695408D01*
X55355659Y-75460000D01*
X55335063Y-75224592D01*
X55273903Y-74996337D01*
X55174035Y-74782171D01*
X55167797Y-74773261D01*
X55038494Y-74588597D01*
X54871402Y-74421506D01*
X54871395Y-74421501D01*
X54677834Y-74285967D01*
X54677830Y-74285965D01*
X54677828Y-74285964D01*
X54463663Y-74186097D01*
X54463659Y-74186096D01*
X54463655Y-74186094D01*
X54235413Y-74124938D01*
X54235403Y-74124936D01*
X54000001Y-74104341D01*
X53999999Y-74104341D01*
X53764596Y-74124936D01*
X53764586Y-74124938D01*
X53536344Y-74186094D01*
X53536335Y-74186098D01*
X53322171Y-74285964D01*
X53322169Y-74285965D01*
X53128597Y-74421505D01*
X52961505Y-74588597D01*
X52825965Y-74782169D01*
X52825964Y-74782171D01*
X52726098Y-74996335D01*
X52726094Y-74996344D01*
X52664938Y-75224586D01*
X52664936Y-75224596D01*
X52644341Y-75459999D01*
X49368980Y-75459999D01*
X49314035Y-75342171D01*
X49312935Y-75340599D01*
X49178494Y-75148597D01*
X49011402Y-74981506D01*
X49011395Y-74981501D01*
X48817834Y-74845967D01*
X48817830Y-74845965D01*
X48803192Y-74839139D01*
X48603663Y-74746097D01*
X48603659Y-74746096D01*
X48603655Y-74746094D01*
X48375413Y-74684938D01*
X48375403Y-74684936D01*
X48140001Y-74664341D01*
X48139999Y-74664341D01*
X47904596Y-74684936D01*
X47904586Y-74684938D01*
X47676344Y-74746094D01*
X47676335Y-74746098D01*
X47462171Y-74845964D01*
X47462169Y-74845965D01*
X47268597Y-74981505D01*
X47101505Y-75148597D01*
X46965965Y-75342169D01*
X46965964Y-75342171D01*
X46866098Y-75556335D01*
X46866094Y-75556344D01*
X46804938Y-75784586D01*
X46804936Y-75784596D01*
X46784341Y-76019999D01*
X41900500Y-76019999D01*
X41900500Y-75600013D01*
X42900000Y-75600013D01*
X42900000Y-75750000D01*
X44250000Y-75750000D01*
X44750000Y-75750000D01*
X46099999Y-75750000D01*
X46099999Y-75600028D01*
X46099998Y-75600013D01*
X46089505Y-75497302D01*
X46034358Y-75330880D01*
X46034356Y-75330875D01*
X45942315Y-75181654D01*
X45818345Y-75057684D01*
X45669124Y-74965643D01*
X45669119Y-74965641D01*
X45502697Y-74910494D01*
X45502690Y-74910493D01*
X45399986Y-74900000D01*
X44750000Y-74900000D01*
X44750000Y-75750000D01*
X44250000Y-75750000D01*
X44250000Y-74900000D01*
X43600028Y-74900000D01*
X43600012Y-74900001D01*
X43497302Y-74910494D01*
X43330880Y-74965641D01*
X43330875Y-74965643D01*
X43181654Y-75057684D01*
X43057684Y-75181654D01*
X42965643Y-75330875D01*
X42965641Y-75330880D01*
X42910494Y-75497302D01*
X42910493Y-75497309D01*
X42900000Y-75600013D01*
X41900500Y-75600013D01*
X41900500Y-75579993D01*
X41900499Y-75579980D01*
X41898084Y-75556344D01*
X41889999Y-75477200D01*
X41834815Y-75310664D01*
X41834811Y-75310658D01*
X41834810Y-75310655D01*
X41742714Y-75161346D01*
X41742711Y-75161342D01*
X41618657Y-75037288D01*
X41618653Y-75037285D01*
X41469344Y-74945189D01*
X41469338Y-74945186D01*
X41469336Y-74945185D01*
X41469333Y-74945184D01*
X41302801Y-74890001D01*
X41200019Y-74879500D01*
X41200012Y-74879500D01*
X35199988Y-74879500D01*
X35199980Y-74879500D01*
X35097198Y-74890001D01*
X34930666Y-74945184D01*
X34930655Y-74945189D01*
X34781346Y-75037285D01*
X34781342Y-75037288D01*
X34657288Y-75161342D01*
X34657285Y-75161346D01*
X34565189Y-75310655D01*
X34565184Y-75310666D01*
X34510001Y-75477198D01*
X34499500Y-75579980D01*
X31639720Y-75579980D01*
X31633433Y-75556516D01*
X31633429Y-75556507D01*
X31533600Y-75342423D01*
X31533599Y-75342421D01*
X31474925Y-75258626D01*
X31474925Y-75258625D01*
X30842962Y-75890589D01*
X30825925Y-75827007D01*
X30760099Y-75712993D01*
X30667007Y-75619901D01*
X30552993Y-75554075D01*
X30489410Y-75537037D01*
X31121373Y-74905073D01*
X31121373Y-74905072D01*
X31037583Y-74846402D01*
X31037579Y-74846400D01*
X30823492Y-74746570D01*
X30823483Y-74746566D01*
X30595326Y-74685432D01*
X30595315Y-74685430D01*
X30360002Y-74664843D01*
X30359998Y-74664843D01*
X30124684Y-74685430D01*
X30124673Y-74685432D01*
X29896516Y-74746566D01*
X29896507Y-74746570D01*
X29682419Y-74846401D01*
X29598625Y-74905072D01*
X30230590Y-75537037D01*
X30167007Y-75554075D01*
X30052993Y-75619901D01*
X29959901Y-75712993D01*
X29894075Y-75827007D01*
X29877037Y-75890590D01*
X29245072Y-75258625D01*
X29186401Y-75342419D01*
X29086570Y-75556507D01*
X29086566Y-75556516D01*
X29025432Y-75784673D01*
X29025430Y-75784684D01*
X29004843Y-76019998D01*
X25000000Y-76019998D01*
X25000000Y-72000000D01*
X57044901Y-72000000D01*
X57063252Y-72186331D01*
X57063253Y-72186333D01*
X57117604Y-72365502D01*
X57205862Y-72530623D01*
X57205864Y-72530626D01*
X57324642Y-72675357D01*
X57469373Y-72794135D01*
X57469376Y-72794137D01*
X57560395Y-72842787D01*
X57634499Y-72882396D01*
X57813669Y-72936747D01*
X57837964Y-72939139D01*
X57902751Y-72965297D01*
X57913494Y-72974861D01*
X59417049Y-74478416D01*
X59500862Y-74562229D01*
X59521584Y-74582951D01*
X59521585Y-74582952D01*
X59613088Y-74644092D01*
X59645773Y-74676071D01*
X59759954Y-74839141D01*
X59920858Y-75000045D01*
X59920861Y-75000047D01*
X60107266Y-75130568D01*
X60313504Y-75226739D01*
X60533308Y-75285635D01*
X60695230Y-75299801D01*
X60759998Y-75305468D01*
X60760000Y-75305468D01*
X60760002Y-75305468D01*
X60816673Y-75300509D01*
X60986692Y-75285635D01*
X61206496Y-75226739D01*
X61412734Y-75130568D01*
X61599139Y-75000047D01*
X61760047Y-74839139D01*
X61890568Y-74652734D01*
X61986739Y-74446496D01*
X62045635Y-74226692D01*
X62065468Y-74000000D01*
X62045635Y-73773308D01*
X61986739Y-73553504D01*
X61890568Y-73347266D01*
X61760047Y-73160861D01*
X61760045Y-73160858D01*
X61599141Y-72999954D01*
X61412734Y-72869432D01*
X61412732Y-72869431D01*
X61206497Y-72773261D01*
X61206488Y-72773258D01*
X60986697Y-72714366D01*
X60986693Y-72714365D01*
X60986692Y-72714365D01*
X60986691Y-72714364D01*
X60986686Y-72714364D01*
X60760002Y-72694532D01*
X60759998Y-72694532D01*
X60533313Y-72714364D01*
X60533302Y-72714366D01*
X60313511Y-72773258D01*
X60313502Y-72773261D01*
X60109192Y-72868534D01*
X60107266Y-72869432D01*
X60088703Y-72882430D01*
X60022496Y-72904756D01*
X59954729Y-72887743D01*
X59929901Y-72868534D01*
X58974861Y-71913494D01*
X58941376Y-71852171D01*
X58939139Y-71837963D01*
X58938666Y-71833161D01*
X58936747Y-71813669D01*
X58882396Y-71634499D01*
X58794136Y-71469375D01*
X58794135Y-71469373D01*
X58675357Y-71324642D01*
X58530626Y-71205864D01*
X58530623Y-71205862D01*
X58365502Y-71117604D01*
X58186333Y-71063253D01*
X58186331Y-71063252D01*
X58000000Y-71044901D01*
X57813668Y-71063252D01*
X57813666Y-71063253D01*
X57634497Y-71117604D01*
X57469376Y-71205862D01*
X57469373Y-71205864D01*
X57324642Y-71324642D01*
X57205864Y-71469373D01*
X57205862Y-71469376D01*
X57117604Y-71634497D01*
X57063253Y-71813666D01*
X57063252Y-71813668D01*
X57044901Y-72000000D01*
X25000000Y-72000000D01*
X25000000Y-66000000D01*
X62044901Y-66000000D01*
X62063252Y-66186331D01*
X62063253Y-66186333D01*
X62117604Y-66365502D01*
X62205862Y-66530623D01*
X62205864Y-66530626D01*
X62324642Y-66675357D01*
X62469373Y-66794135D01*
X62469376Y-66794137D01*
X62570743Y-66848318D01*
X62634499Y-66882396D01*
X62813666Y-66936746D01*
X62813668Y-66936747D01*
X62830374Y-66938392D01*
X63000000Y-66955099D01*
X63186331Y-66936747D01*
X63365501Y-66882396D01*
X63530625Y-66794136D01*
X63675357Y-66675357D01*
X63794136Y-66530625D01*
X63882396Y-66365501D01*
X63936747Y-66186331D01*
X63939139Y-66162034D01*
X63965297Y-66097248D01*
X63974852Y-66086513D01*
X65061366Y-65000000D01*
X73544901Y-65000000D01*
X73563252Y-65186331D01*
X73563253Y-65186333D01*
X73617604Y-65365502D01*
X73705860Y-65530619D01*
X73705861Y-65530621D01*
X73705863Y-65530624D01*
X73705864Y-65530625D01*
X73721352Y-65549497D01*
X73748666Y-65613806D01*
X73749500Y-65628163D01*
X73749500Y-75937854D01*
X73748254Y-75955387D01*
X73746589Y-75967038D01*
X73749316Y-76017049D01*
X73749500Y-76023799D01*
X73749500Y-76073918D01*
X73749500Y-76073920D01*
X73749499Y-76073920D01*
X73751796Y-76085463D01*
X73753995Y-76102905D01*
X73754635Y-76114649D01*
X73754636Y-76114655D01*
X73767068Y-76163182D01*
X73768564Y-76169762D01*
X73778341Y-76218911D01*
X73782850Y-76229799D01*
X73788404Y-76246462D01*
X73791326Y-76257867D01*
X73812987Y-76303035D01*
X73815740Y-76309200D01*
X73834915Y-76355494D01*
X73841454Y-76365280D01*
X73850156Y-76380546D01*
X73855249Y-76391166D01*
X73885323Y-76431265D01*
X73889226Y-76436775D01*
X73917050Y-76478418D01*
X73925366Y-76486734D01*
X73936885Y-76500015D01*
X74724901Y-77550702D01*
X74749377Y-77616144D01*
X74745476Y-77657194D01*
X74714366Y-77773302D01*
X74714365Y-77773308D01*
X74694532Y-77999999D01*
X74694532Y-78000001D01*
X74714364Y-78226686D01*
X74714366Y-78226697D01*
X74773258Y-78446488D01*
X74773261Y-78446497D01*
X74869431Y-78652732D01*
X74869432Y-78652734D01*
X74999954Y-78839141D01*
X75160858Y-79000045D01*
X75160861Y-79000047D01*
X75347266Y-79130568D01*
X75553504Y-79226739D01*
X75773308Y-79285635D01*
X75935230Y-79299801D01*
X75999998Y-79305468D01*
X76000000Y-79305468D01*
X76000002Y-79305468D01*
X76056673Y-79300509D01*
X76226692Y-79285635D01*
X76446496Y-79226739D01*
X76652734Y-79130568D01*
X76839139Y-79000047D01*
X77000047Y-78839139D01*
X77130568Y-78652734D01*
X77226739Y-78446496D01*
X77285635Y-78226692D01*
X77305468Y-78000000D01*
X77285635Y-77773308D01*
X77226739Y-77553504D01*
X77130568Y-77347266D01*
X77032839Y-77207693D01*
X77000045Y-77160858D01*
X76839141Y-76999954D01*
X76652734Y-76869432D01*
X76652732Y-76869431D01*
X76446497Y-76773261D01*
X76446488Y-76773258D01*
X76226697Y-76714366D01*
X76226687Y-76714364D01*
X76011312Y-76695521D01*
X75946244Y-76670068D01*
X75922920Y-76646393D01*
X75438124Y-75999998D01*
X88694532Y-75999998D01*
X88694532Y-76000001D01*
X88714364Y-76226686D01*
X88714366Y-76226697D01*
X88773258Y-76446488D01*
X88773261Y-76446497D01*
X88869431Y-76652732D01*
X88869432Y-76652734D01*
X88999954Y-76839141D01*
X89160858Y-77000045D01*
X89160861Y-77000047D01*
X89347266Y-77130568D01*
X89553504Y-77226739D01*
X89773308Y-77285635D01*
X89935230Y-77299801D01*
X89999998Y-77305468D01*
X90000000Y-77305468D01*
X90000002Y-77305468D01*
X90056673Y-77300509D01*
X90226692Y-77285635D01*
X90446496Y-77226739D01*
X90652734Y-77130568D01*
X90806465Y-77022924D01*
X90872671Y-77000598D01*
X90877588Y-77000500D01*
X93929574Y-77000500D01*
X93996613Y-77020185D01*
X94042368Y-77072989D01*
X94053227Y-77115234D01*
X94064196Y-77261620D01*
X94064197Y-77261625D01*
X94122576Y-77517402D01*
X94122578Y-77517411D01*
X94122580Y-77517416D01*
X94218432Y-77761643D01*
X94349614Y-77988857D01*
X94465608Y-78134309D01*
X94513198Y-78193985D01*
X94694753Y-78362441D01*
X94705521Y-78372433D01*
X94922296Y-78520228D01*
X94922301Y-78520230D01*
X94922302Y-78520231D01*
X94922303Y-78520232D01*
X95016813Y-78565745D01*
X95158673Y-78634061D01*
X95158674Y-78634061D01*
X95158677Y-78634063D01*
X95409385Y-78711396D01*
X95668818Y-78750500D01*
X95931182Y-78750500D01*
X96190615Y-78711396D01*
X96441323Y-78634063D01*
X96677704Y-78520228D01*
X96894479Y-78372433D01*
X97043733Y-78233945D01*
X97086801Y-78193985D01*
X97086801Y-78193983D01*
X97086805Y-78193981D01*
X97250386Y-77988857D01*
X97381568Y-77761643D01*
X97477420Y-77517416D01*
X97535802Y-77261630D01*
X97538417Y-77226738D01*
X97551662Y-77049998D01*
X105994390Y-77049998D01*
X105994390Y-77050001D01*
X106014804Y-77335433D01*
X106075628Y-77615037D01*
X106075630Y-77615043D01*
X106075631Y-77615046D01*
X106130309Y-77761643D01*
X106175635Y-77883166D01*
X106312770Y-78134309D01*
X106312775Y-78134317D01*
X106484254Y-78363387D01*
X106484270Y-78363405D01*
X106686594Y-78565729D01*
X106686612Y-78565745D01*
X106915682Y-78737224D01*
X106915690Y-78737229D01*
X107166833Y-78874364D01*
X107166832Y-78874364D01*
X107166836Y-78874365D01*
X107166839Y-78874367D01*
X107434954Y-78974369D01*
X107434960Y-78974370D01*
X107434962Y-78974371D01*
X107714566Y-79035195D01*
X107714568Y-79035195D01*
X107714572Y-79035196D01*
X107968220Y-79053337D01*
X107999999Y-79055610D01*
X108000000Y-79055610D01*
X108000001Y-79055610D01*
X108028595Y-79053564D01*
X108285428Y-79035196D01*
X108565046Y-78974369D01*
X108833161Y-78874367D01*
X109084315Y-78737226D01*
X109313395Y-78565739D01*
X109515739Y-78363395D01*
X109687226Y-78134315D01*
X109824367Y-77883161D01*
X109924369Y-77615046D01*
X109985196Y-77335428D01*
X110005610Y-77050000D01*
X109985196Y-76764572D01*
X109974274Y-76714366D01*
X109924371Y-76484962D01*
X109924370Y-76484960D01*
X109924369Y-76484954D01*
X109824367Y-76216839D01*
X109716884Y-76020000D01*
X109687229Y-75965690D01*
X109687224Y-75965682D01*
X109515745Y-75736612D01*
X109515729Y-75736594D01*
X109313405Y-75534270D01*
X109313387Y-75534254D01*
X109084317Y-75362775D01*
X109084309Y-75362770D01*
X108833166Y-75225635D01*
X108833167Y-75225635D01*
X108715249Y-75181654D01*
X108565046Y-75125631D01*
X108565043Y-75125630D01*
X108565037Y-75125628D01*
X108285433Y-75064804D01*
X108000001Y-75044390D01*
X107999999Y-75044390D01*
X107714566Y-75064804D01*
X107434962Y-75125628D01*
X107166833Y-75225635D01*
X106915690Y-75362770D01*
X106915682Y-75362775D01*
X106686612Y-75534254D01*
X106686594Y-75534270D01*
X106484270Y-75736594D01*
X106484254Y-75736612D01*
X106312775Y-75965682D01*
X106312770Y-75965690D01*
X106175635Y-76216833D01*
X106075628Y-76484962D01*
X106014804Y-76764566D01*
X105994390Y-77049998D01*
X97551662Y-77049998D01*
X97555408Y-77000004D01*
X97555408Y-76999995D01*
X97535803Y-76738379D01*
X97535802Y-76738374D01*
X97535802Y-76738370D01*
X97477420Y-76482584D01*
X97381568Y-76238357D01*
X97250386Y-76011143D01*
X97086805Y-75806019D01*
X97086804Y-75806018D01*
X97086801Y-75806014D01*
X96894479Y-75627567D01*
X96824701Y-75579993D01*
X96677704Y-75479772D01*
X96677701Y-75479771D01*
X96677699Y-75479769D01*
X96620698Y-75452319D01*
X96568838Y-75405496D01*
X96550500Y-75340599D01*
X96550500Y-74562229D01*
X96570185Y-74495190D01*
X96586819Y-74474548D01*
X104502947Y-66558420D01*
X104502951Y-66558416D01*
X104556405Y-66478416D01*
X104585084Y-66435495D01*
X104641658Y-66298913D01*
X104662531Y-66193981D01*
X104670500Y-66153920D01*
X104670500Y-64999998D01*
X105994390Y-64999998D01*
X105994390Y-65000001D01*
X106014804Y-65285433D01*
X106075628Y-65565037D01*
X106075630Y-65565043D01*
X106075631Y-65565046D01*
X106168363Y-65813669D01*
X106175635Y-65833166D01*
X106312770Y-66084309D01*
X106312775Y-66084317D01*
X106484254Y-66313387D01*
X106484270Y-66313405D01*
X106686594Y-66515729D01*
X106686612Y-66515745D01*
X106915682Y-66687224D01*
X106915690Y-66687229D01*
X107166833Y-66824364D01*
X107166832Y-66824364D01*
X107166836Y-66824365D01*
X107166839Y-66824367D01*
X107434954Y-66924369D01*
X107434960Y-66924370D01*
X107434962Y-66924371D01*
X107714566Y-66985195D01*
X107714568Y-66985195D01*
X107714572Y-66985196D01*
X107968220Y-67003337D01*
X107999999Y-67005610D01*
X108000000Y-67005610D01*
X108000001Y-67005610D01*
X108028595Y-67003564D01*
X108285428Y-66985196D01*
X108565046Y-66924369D01*
X108833161Y-66824367D01*
X109084315Y-66687226D01*
X109313395Y-66515739D01*
X109515739Y-66313395D01*
X109687226Y-66084315D01*
X109824367Y-65833161D01*
X109924369Y-65565046D01*
X109927752Y-65549496D01*
X109985195Y-65285433D01*
X109985195Y-65285432D01*
X109985196Y-65285428D01*
X110005610Y-65000000D01*
X110004090Y-64978754D01*
X109994131Y-64839500D01*
X109985196Y-64714572D01*
X109984999Y-64713668D01*
X109924371Y-64434962D01*
X109924370Y-64434960D01*
X109924369Y-64434954D01*
X109824367Y-64166839D01*
X109799503Y-64121305D01*
X109687229Y-63915690D01*
X109687224Y-63915682D01*
X109515745Y-63686612D01*
X109515729Y-63686594D01*
X109313405Y-63484270D01*
X109313387Y-63484254D01*
X109084317Y-63312775D01*
X109084309Y-63312770D01*
X108833166Y-63175635D01*
X108833167Y-63175635D01*
X108725915Y-63135632D01*
X108565046Y-63075631D01*
X108565043Y-63075630D01*
X108565037Y-63075628D01*
X108285433Y-63014804D01*
X108000001Y-62994390D01*
X107999999Y-62994390D01*
X107714566Y-63014804D01*
X107434962Y-63075628D01*
X107166833Y-63175635D01*
X106915690Y-63312770D01*
X106915682Y-63312775D01*
X106686612Y-63484254D01*
X106686594Y-63484270D01*
X106484270Y-63686594D01*
X106484254Y-63686612D01*
X106312775Y-63915682D01*
X106312770Y-63915690D01*
X106175635Y-64166833D01*
X106075628Y-64434962D01*
X106014804Y-64714566D01*
X105994390Y-64999998D01*
X104670500Y-64999998D01*
X104670500Y-61366976D01*
X104690185Y-61299937D01*
X104742989Y-61254182D01*
X104770135Y-61246736D01*
X104769932Y-61245876D01*
X104777479Y-61244092D01*
X104777481Y-61244091D01*
X104777483Y-61244091D01*
X104912331Y-61193796D01*
X105027546Y-61107546D01*
X105113796Y-60992331D01*
X105164091Y-60857483D01*
X105170500Y-60797873D01*
X105170499Y-60731860D01*
X105190183Y-60664824D01*
X105242986Y-60619068D01*
X105312144Y-60609124D01*
X105375700Y-60638148D01*
X105396073Y-60660738D01*
X105445877Y-60731864D01*
X105498402Y-60806877D01*
X105653123Y-60961598D01*
X105832361Y-61087102D01*
X106030670Y-61179575D01*
X106242023Y-61236207D01*
X106424926Y-61252208D01*
X106459998Y-61255277D01*
X106460000Y-61255277D01*
X106460002Y-61255277D01*
X106488254Y-61252805D01*
X106677977Y-61236207D01*
X106889330Y-61179575D01*
X107087639Y-61087102D01*
X107266877Y-60961598D01*
X107421598Y-60806877D01*
X107547102Y-60627639D01*
X107617895Y-60475822D01*
X107664066Y-60423385D01*
X107731260Y-60404233D01*
X107798141Y-60424449D01*
X107842658Y-60475824D01*
X107913333Y-60627387D01*
X107956874Y-60689571D01*
X108600000Y-60046445D01*
X108600000Y-60052661D01*
X108627259Y-60154394D01*
X108679920Y-60245606D01*
X108754394Y-60320080D01*
X108845606Y-60372741D01*
X108947339Y-60400000D01*
X108953553Y-60400000D01*
X108310427Y-61043124D01*
X108372612Y-61086666D01*
X108570840Y-61179101D01*
X108570849Y-61179105D01*
X108782105Y-61235710D01*
X108782115Y-61235712D01*
X108999999Y-61254775D01*
X109000001Y-61254775D01*
X109217884Y-61235712D01*
X109217894Y-61235710D01*
X109429150Y-61179105D01*
X109429164Y-61179100D01*
X109627383Y-61086669D01*
X109627385Y-61086668D01*
X109689571Y-61043124D01*
X109046448Y-60400000D01*
X109052661Y-60400000D01*
X109154394Y-60372741D01*
X109245606Y-60320080D01*
X109320080Y-60245606D01*
X109372741Y-60154394D01*
X109400000Y-60052661D01*
X109400000Y-60046446D01*
X110043124Y-60689570D01*
X110086668Y-60627385D01*
X110086669Y-60627383D01*
X110179100Y-60429164D01*
X110179105Y-60429150D01*
X110235710Y-60217894D01*
X110235712Y-60217884D01*
X110254775Y-60000000D01*
X110254775Y-59999999D01*
X110235712Y-59782115D01*
X110235710Y-59782105D01*
X110179105Y-59570849D01*
X110179101Y-59570840D01*
X110086667Y-59372614D01*
X110086666Y-59372612D01*
X110043124Y-59310428D01*
X110043124Y-59310427D01*
X109400000Y-59953551D01*
X109400000Y-59947339D01*
X109372741Y-59845606D01*
X109320080Y-59754394D01*
X109245606Y-59679920D01*
X109154394Y-59627259D01*
X109052661Y-59600000D01*
X109046447Y-59600000D01*
X109689571Y-58956874D01*
X109627387Y-58913333D01*
X109429159Y-58820898D01*
X109429150Y-58820894D01*
X109217894Y-58764289D01*
X109217884Y-58764287D01*
X109000001Y-58745225D01*
X108999999Y-58745225D01*
X108782115Y-58764287D01*
X108782105Y-58764289D01*
X108570849Y-58820894D01*
X108570840Y-58820898D01*
X108372613Y-58913333D01*
X108310428Y-58956874D01*
X108953554Y-59600000D01*
X108947339Y-59600000D01*
X108845606Y-59627259D01*
X108754394Y-59679920D01*
X108679920Y-59754394D01*
X108627259Y-59845606D01*
X108600000Y-59947339D01*
X108600000Y-59953554D01*
X107956874Y-59310428D01*
X107913333Y-59372613D01*
X107842658Y-59524175D01*
X107796485Y-59576614D01*
X107729292Y-59595766D01*
X107662411Y-59575550D01*
X107617894Y-59524175D01*
X107596757Y-59478848D01*
X107547102Y-59372362D01*
X107547100Y-59372359D01*
X107547099Y-59372357D01*
X107421599Y-59193124D01*
X107346353Y-59117878D01*
X107266877Y-59038402D01*
X107128978Y-58941844D01*
X107087638Y-58912897D01*
X106988484Y-58866661D01*
X106889330Y-58820425D01*
X106889326Y-58820424D01*
X106889322Y-58820422D01*
X106677977Y-58763793D01*
X106460002Y-58744723D01*
X106459997Y-58744723D01*
X106339290Y-58755282D01*
X106270790Y-58741515D01*
X106240803Y-58719435D01*
X105738421Y-58217052D01*
X105738420Y-58217051D01*
X105721677Y-58205864D01*
X105624826Y-58141151D01*
X105624826Y-58141150D01*
X105624820Y-58141147D01*
X105615497Y-58134917D01*
X105615490Y-58134913D01*
X105478917Y-58078343D01*
X105478907Y-58078340D01*
X105333920Y-58049500D01*
X105333918Y-58049500D01*
X101273917Y-58049500D01*
X101126082Y-58049500D01*
X101126080Y-58049500D01*
X100981092Y-58078340D01*
X100981082Y-58078343D01*
X100844511Y-58134912D01*
X100844498Y-58134919D01*
X100721584Y-58217048D01*
X100721580Y-58217051D01*
X100265348Y-58673282D01*
X100204025Y-58706767D01*
X100166861Y-58709129D01*
X100000003Y-58694532D01*
X99999998Y-58694532D01*
X99773313Y-58714364D01*
X99773302Y-58714366D01*
X99553511Y-58773258D01*
X99553502Y-58773261D01*
X99347267Y-58869431D01*
X99347265Y-58869432D01*
X99160858Y-58999954D01*
X98999954Y-59160858D01*
X98869432Y-59347265D01*
X98869431Y-59347267D01*
X98773261Y-59553502D01*
X98773258Y-59553511D01*
X98714366Y-59773302D01*
X98714364Y-59773313D01*
X98694532Y-59999998D01*
X98694532Y-60000001D01*
X98714364Y-60226686D01*
X98714366Y-60226697D01*
X98773258Y-60446488D01*
X98773261Y-60446497D01*
X98869431Y-60652732D01*
X98869432Y-60652734D01*
X98999954Y-60839141D01*
X99160858Y-61000045D01*
X99160861Y-61000047D01*
X99347266Y-61130568D01*
X99553504Y-61226739D01*
X99553509Y-61226740D01*
X99553511Y-61226741D01*
X99588839Y-61236207D01*
X99773308Y-61285635D01*
X99935230Y-61299801D01*
X99999998Y-61305468D01*
X100000000Y-61305468D01*
X100000002Y-61305468D01*
X100056673Y-61300509D01*
X100226692Y-61285635D01*
X100446496Y-61226739D01*
X100652734Y-61130568D01*
X100839139Y-61000047D01*
X101000047Y-60839139D01*
X101130568Y-60652734D01*
X101226739Y-60446496D01*
X101285635Y-60226692D01*
X101305468Y-60000000D01*
X101290869Y-59833137D01*
X101304635Y-59764639D01*
X101326710Y-59734656D01*
X101474550Y-59586816D01*
X101535871Y-59553334D01*
X101562229Y-59550500D01*
X102545500Y-59550500D01*
X102612539Y-59570185D01*
X102658294Y-59622989D01*
X102669500Y-59674500D01*
X102669500Y-60797870D01*
X102669501Y-60797876D01*
X102675908Y-60857483D01*
X102726202Y-60992328D01*
X102726206Y-60992335D01*
X102812452Y-61107544D01*
X102812455Y-61107547D01*
X102927664Y-61193793D01*
X102927671Y-61193797D01*
X103062517Y-61244091D01*
X103070062Y-61245874D01*
X103069523Y-61248151D01*
X103123287Y-61270408D01*
X103163147Y-61327793D01*
X103169500Y-61366975D01*
X103169500Y-65717770D01*
X103149815Y-65784809D01*
X103133181Y-65805451D01*
X95217047Y-73721584D01*
X95217043Y-73721589D01*
X95182488Y-73773307D01*
X95182488Y-73773308D01*
X95134913Y-73844508D01*
X95078343Y-73981082D01*
X95078340Y-73981092D01*
X95049500Y-74126079D01*
X95049500Y-74878433D01*
X95029815Y-74945472D01*
X94977011Y-74991227D01*
X94907853Y-75001171D01*
X94901317Y-75000052D01*
X94898541Y-74999500D01*
X94898540Y-74999500D01*
X90877588Y-74999500D01*
X90810549Y-74979815D01*
X90806465Y-74977075D01*
X90790138Y-74965643D01*
X90652734Y-74869432D01*
X90652732Y-74869431D01*
X90446497Y-74773261D01*
X90446488Y-74773258D01*
X90226697Y-74714366D01*
X90226693Y-74714365D01*
X90226692Y-74714365D01*
X90226691Y-74714364D01*
X90226686Y-74714364D01*
X90000002Y-74694532D01*
X89999998Y-74694532D01*
X89773313Y-74714364D01*
X89773302Y-74714366D01*
X89553511Y-74773258D01*
X89553502Y-74773261D01*
X89347267Y-74869431D01*
X89347265Y-74869432D01*
X89160858Y-74999954D01*
X88999954Y-75160858D01*
X88869432Y-75347265D01*
X88869431Y-75347267D01*
X88773261Y-75553502D01*
X88773258Y-75553511D01*
X88714366Y-75773302D01*
X88714364Y-75773313D01*
X88694532Y-75999998D01*
X75438124Y-75999998D01*
X75275300Y-75782899D01*
X75250824Y-75717457D01*
X75250500Y-75708499D01*
X75250500Y-75280086D01*
X75270185Y-75213047D01*
X75322989Y-75167292D01*
X75392147Y-75157348D01*
X75426901Y-75167703D01*
X75553504Y-75226739D01*
X75773308Y-75285635D01*
X75935230Y-75299801D01*
X75999998Y-75305468D01*
X76000000Y-75305468D01*
X76000002Y-75305468D01*
X76056673Y-75300509D01*
X76226692Y-75285635D01*
X76446496Y-75226739D01*
X76652734Y-75130568D01*
X76839139Y-75000047D01*
X77000047Y-74839139D01*
X77130568Y-74652734D01*
X77226739Y-74446496D01*
X77285635Y-74226692D01*
X77305468Y-74000000D01*
X77285635Y-73773308D01*
X77226739Y-73553504D01*
X77130568Y-73347266D01*
X77000047Y-73160861D01*
X77000045Y-73160858D01*
X76839141Y-72999954D01*
X76652734Y-72869432D01*
X76652732Y-72869431D01*
X76446497Y-72773261D01*
X76446488Y-72773258D01*
X76226697Y-72714366D01*
X76226693Y-72714365D01*
X76226692Y-72714365D01*
X76226691Y-72714364D01*
X76226686Y-72714364D01*
X76000002Y-72694532D01*
X75999998Y-72694532D01*
X75773313Y-72714364D01*
X75773302Y-72714366D01*
X75553511Y-72773258D01*
X75553497Y-72773263D01*
X75426904Y-72832295D01*
X75357827Y-72842787D01*
X75294043Y-72814267D01*
X75255804Y-72755790D01*
X75250500Y-72719913D01*
X75250500Y-70999998D01*
X91794390Y-70999998D01*
X91794390Y-71000001D01*
X91814804Y-71285433D01*
X91875628Y-71565037D01*
X91875630Y-71565043D01*
X91875631Y-71565046D01*
X91968363Y-71813669D01*
X91975635Y-71833166D01*
X92112770Y-72084309D01*
X92112775Y-72084317D01*
X92284254Y-72313387D01*
X92284270Y-72313405D01*
X92486594Y-72515729D01*
X92486612Y-72515745D01*
X92715682Y-72687224D01*
X92715690Y-72687229D01*
X92966833Y-72824364D01*
X92966832Y-72824364D01*
X92966836Y-72824365D01*
X92966839Y-72824367D01*
X93234954Y-72924369D01*
X93234960Y-72924370D01*
X93234962Y-72924371D01*
X93514566Y-72985195D01*
X93514568Y-72985195D01*
X93514572Y-72985196D01*
X93768220Y-73003337D01*
X93799999Y-73005610D01*
X93800000Y-73005610D01*
X93800001Y-73005610D01*
X93828595Y-73003564D01*
X94085428Y-72985196D01*
X94132938Y-72974861D01*
X94365037Y-72924371D01*
X94365037Y-72924370D01*
X94365046Y-72924369D01*
X94633161Y-72824367D01*
X94884315Y-72687226D01*
X95113395Y-72515739D01*
X95315739Y-72313395D01*
X95487226Y-72084315D01*
X95624367Y-71833161D01*
X95724369Y-71565046D01*
X95785196Y-71285428D01*
X95805610Y-71000000D01*
X95785196Y-70714572D01*
X95776665Y-70675357D01*
X95724371Y-70434962D01*
X95724370Y-70434960D01*
X95724369Y-70434954D01*
X95624367Y-70166839D01*
X95487226Y-69915685D01*
X95487224Y-69915682D01*
X95315745Y-69686612D01*
X95315729Y-69686594D01*
X95113405Y-69484270D01*
X95113387Y-69484254D01*
X94884317Y-69312775D01*
X94884309Y-69312770D01*
X94633166Y-69175635D01*
X94633167Y-69175635D01*
X94423003Y-69097248D01*
X94365046Y-69075631D01*
X94365043Y-69075630D01*
X94365037Y-69075628D01*
X94085433Y-69014804D01*
X93800001Y-68994390D01*
X93799999Y-68994390D01*
X93514566Y-69014804D01*
X93234962Y-69075628D01*
X92966833Y-69175635D01*
X92715690Y-69312770D01*
X92715682Y-69312775D01*
X92486612Y-69484254D01*
X92486594Y-69484270D01*
X92284270Y-69686594D01*
X92284254Y-69686612D01*
X92112775Y-69915682D01*
X92112770Y-69915690D01*
X91975635Y-70166833D01*
X91875628Y-70434962D01*
X91814804Y-70714566D01*
X91794390Y-70999998D01*
X75250500Y-70999998D01*
X75250500Y-70876686D01*
X75270185Y-70809647D01*
X75322989Y-70763892D01*
X75392147Y-70753948D01*
X75453165Y-70780833D01*
X75469373Y-70794135D01*
X75469376Y-70794137D01*
X75498394Y-70809647D01*
X75634499Y-70882396D01*
X75813666Y-70936746D01*
X75813668Y-70936747D01*
X75830374Y-70938392D01*
X76000000Y-70955099D01*
X76186331Y-70936747D01*
X76365501Y-70882396D01*
X76530625Y-70794136D01*
X76675357Y-70675357D01*
X76794136Y-70530625D01*
X76882396Y-70365501D01*
X76936747Y-70186331D01*
X76955099Y-70000000D01*
X76936747Y-69813669D01*
X76882396Y-69634499D01*
X76794136Y-69469375D01*
X76778645Y-69450499D01*
X76751333Y-69386188D01*
X76750500Y-69371836D01*
X76750500Y-69000000D01*
X80044901Y-69000000D01*
X80063252Y-69186331D01*
X80063253Y-69186333D01*
X80117604Y-69365502D01*
X80205862Y-69530623D01*
X80205864Y-69530626D01*
X80324642Y-69675357D01*
X80469373Y-69794135D01*
X80469376Y-69794137D01*
X80634497Y-69882395D01*
X80634499Y-69882396D01*
X80813666Y-69936746D01*
X80813668Y-69936747D01*
X80830374Y-69938392D01*
X81000000Y-69955099D01*
X81186331Y-69936747D01*
X81365501Y-69882396D01*
X81530625Y-69794136D01*
X81675357Y-69675357D01*
X81794136Y-69530625D01*
X81882396Y-69365501D01*
X81936747Y-69186331D01*
X81939139Y-69162035D01*
X81965297Y-69097248D01*
X81974852Y-69086514D01*
X84434549Y-66626819D01*
X84495872Y-66593334D01*
X84522230Y-66590500D01*
X88577649Y-66590500D01*
X88644688Y-66610185D01*
X88690443Y-66662989D01*
X88700939Y-66701248D01*
X88705908Y-66747483D01*
X88756202Y-66882328D01*
X88756206Y-66882335D01*
X88842452Y-66997544D01*
X88842455Y-66997547D01*
X88957664Y-67083793D01*
X88957671Y-67083797D01*
X89092517Y-67134091D01*
X89092516Y-67134091D01*
X89099444Y-67134835D01*
X89152127Y-67140500D01*
X90847872Y-67140499D01*
X90907483Y-67134091D01*
X91042331Y-67083796D01*
X91157546Y-66997546D01*
X91237914Y-66890188D01*
X91293847Y-66848318D01*
X91337180Y-66840500D01*
X95058542Y-66840500D01*
X95077870Y-66836655D01*
X95155188Y-66821275D01*
X95251836Y-66802051D01*
X95305165Y-66779961D01*
X95422492Y-66731362D01*
X95488422Y-66723309D01*
X95668818Y-66750500D01*
X95931182Y-66750500D01*
X96190615Y-66711396D01*
X96441323Y-66634063D01*
X96656112Y-66530626D01*
X96677696Y-66520232D01*
X96677696Y-66520231D01*
X96677704Y-66520228D01*
X96894479Y-66372433D01*
X97086805Y-66193981D01*
X97250386Y-65988857D01*
X97381568Y-65761643D01*
X97477420Y-65517416D01*
X97535802Y-65261630D01*
X97535803Y-65261620D01*
X97555408Y-65000004D01*
X97555408Y-64999995D01*
X97535803Y-64738379D01*
X97535802Y-64738374D01*
X97535802Y-64738370D01*
X97477420Y-64482584D01*
X97381568Y-64238357D01*
X97250386Y-64011143D01*
X97086805Y-63806019D01*
X97086804Y-63806018D01*
X97086801Y-63806014D01*
X96894479Y-63627567D01*
X96677704Y-63479772D01*
X96677700Y-63479770D01*
X96677697Y-63479768D01*
X96677696Y-63479767D01*
X96441325Y-63365938D01*
X96441327Y-63365938D01*
X96190623Y-63288606D01*
X96190619Y-63288605D01*
X96190615Y-63288604D01*
X96065823Y-63269794D01*
X95931187Y-63249500D01*
X95931182Y-63249500D01*
X95668818Y-63249500D01*
X95668812Y-63249500D01*
X95507247Y-63273853D01*
X95409385Y-63288604D01*
X95409382Y-63288605D01*
X95409376Y-63288606D01*
X95158673Y-63365938D01*
X94922303Y-63479767D01*
X94922302Y-63479768D01*
X94705520Y-63627567D01*
X94513198Y-63806014D01*
X94349614Y-64011143D01*
X94218432Y-64238356D01*
X94122582Y-64482578D01*
X94122577Y-64482595D01*
X94063165Y-64742894D01*
X94060951Y-64742388D01*
X94035400Y-64797341D01*
X93976366Y-64834713D01*
X93942244Y-64839500D01*
X91337180Y-64839500D01*
X91270141Y-64819815D01*
X91237913Y-64789811D01*
X91157546Y-64682454D01*
X91134709Y-64665358D01*
X91042335Y-64596206D01*
X91042328Y-64596202D01*
X90907482Y-64545908D01*
X90907483Y-64545908D01*
X90847883Y-64539501D01*
X90847881Y-64539500D01*
X90847873Y-64539500D01*
X90847864Y-64539500D01*
X89152129Y-64539500D01*
X89152123Y-64539501D01*
X89092516Y-64545908D01*
X88957671Y-64596202D01*
X88957664Y-64596206D01*
X88842455Y-64682452D01*
X88842452Y-64682455D01*
X88756206Y-64797664D01*
X88756202Y-64797671D01*
X88709118Y-64923913D01*
X88705909Y-64932517D01*
X88700937Y-64978757D01*
X88674201Y-65043306D01*
X88616809Y-65083154D01*
X88577649Y-65089500D01*
X85034500Y-65089500D01*
X84967461Y-65069815D01*
X84921706Y-65017011D01*
X84910500Y-64965500D01*
X84910500Y-63086080D01*
X84898717Y-63026847D01*
X84892261Y-62994390D01*
X84881659Y-62941088D01*
X84831811Y-62820745D01*
X84825084Y-62804505D01*
X84825083Y-62804504D01*
X84825080Y-62804498D01*
X84764298Y-62713531D01*
X84764298Y-62713530D01*
X84764295Y-62713528D01*
X84742952Y-62681584D01*
X83974861Y-61913493D01*
X83941376Y-61852170D01*
X83939139Y-61837962D01*
X83936747Y-61813672D01*
X83936747Y-61813669D01*
X83882396Y-61634499D01*
X83853965Y-61581308D01*
X83794137Y-61469376D01*
X83794135Y-61469373D01*
X83675357Y-61324642D01*
X83530626Y-61205864D01*
X83530623Y-61205862D01*
X83365502Y-61117604D01*
X83186333Y-61063253D01*
X83186331Y-61063252D01*
X83000000Y-61044901D01*
X82813668Y-61063252D01*
X82813666Y-61063253D01*
X82634497Y-61117604D01*
X82469376Y-61205862D01*
X82469373Y-61205864D01*
X82324642Y-61324642D01*
X82205864Y-61469373D01*
X82205862Y-61469376D01*
X82117604Y-61634497D01*
X82063253Y-61813666D01*
X82063252Y-61813668D01*
X82044901Y-62000000D01*
X82063252Y-62186331D01*
X82063253Y-62186333D01*
X82117604Y-62365502D01*
X82205862Y-62530623D01*
X82205864Y-62530626D01*
X82324642Y-62675357D01*
X82469373Y-62794135D01*
X82469376Y-62794137D01*
X82634497Y-62882395D01*
X82634499Y-62882396D01*
X82813669Y-62936747D01*
X82837963Y-62939139D01*
X82902750Y-62965297D01*
X82913493Y-62974861D01*
X83373181Y-63434549D01*
X83406666Y-63495872D01*
X83409500Y-63522230D01*
X83409500Y-65477769D01*
X83389815Y-65544808D01*
X83373181Y-65565450D01*
X80913493Y-68025137D01*
X80852170Y-68058622D01*
X80837969Y-68060859D01*
X80813667Y-68063253D01*
X80813666Y-68063253D01*
X80634497Y-68117604D01*
X80469376Y-68205862D01*
X80469373Y-68205864D01*
X80324642Y-68324642D01*
X80205864Y-68469373D01*
X80205862Y-68469376D01*
X80117604Y-68634497D01*
X80063253Y-68813666D01*
X80063252Y-68813668D01*
X80044901Y-69000000D01*
X76750500Y-69000000D01*
X76750500Y-65528163D01*
X76770185Y-65461124D01*
X76778641Y-65449504D01*
X76794136Y-65430625D01*
X76882396Y-65265501D01*
X76936747Y-65086331D01*
X76955099Y-64900000D01*
X76936747Y-64713669D01*
X76882396Y-64534499D01*
X76829193Y-64434962D01*
X76794137Y-64369376D01*
X76794135Y-64369373D01*
X76675357Y-64224642D01*
X76530626Y-64105864D01*
X76530623Y-64105862D01*
X76365502Y-64017604D01*
X76186333Y-63963253D01*
X76186331Y-63963252D01*
X76000000Y-63944901D01*
X75813668Y-63963252D01*
X75813666Y-63963253D01*
X75634497Y-64017604D01*
X75469376Y-64105862D01*
X75469373Y-64105864D01*
X75324644Y-64224640D01*
X75294186Y-64261754D01*
X75236440Y-64301088D01*
X75166595Y-64302957D01*
X75119669Y-64278941D01*
X75030626Y-64205864D01*
X75030623Y-64205862D01*
X74865502Y-64117604D01*
X74686333Y-64063253D01*
X74686331Y-64063252D01*
X74500000Y-64044901D01*
X74313668Y-64063252D01*
X74313666Y-64063253D01*
X74134497Y-64117604D01*
X73969376Y-64205862D01*
X73969373Y-64205864D01*
X73824642Y-64324642D01*
X73705864Y-64469373D01*
X73705862Y-64469376D01*
X73617604Y-64634497D01*
X73563253Y-64813666D01*
X73563252Y-64813668D01*
X73544901Y-65000000D01*
X65061366Y-65000000D01*
X66086506Y-63974860D01*
X66147827Y-63941377D01*
X66162030Y-63939140D01*
X66186331Y-63936747D01*
X66365501Y-63882396D01*
X66530625Y-63794136D01*
X66675357Y-63675357D01*
X66794136Y-63530625D01*
X66882396Y-63365501D01*
X66936747Y-63186331D01*
X66955099Y-63000000D01*
X66936747Y-62813669D01*
X66882396Y-62634499D01*
X66822343Y-62522147D01*
X66794137Y-62469376D01*
X66794135Y-62469373D01*
X66675357Y-62324642D01*
X66530626Y-62205864D01*
X66530623Y-62205862D01*
X66365502Y-62117604D01*
X66186333Y-62063253D01*
X66186331Y-62063252D01*
X66000000Y-62044901D01*
X65813668Y-62063252D01*
X65813666Y-62063253D01*
X65634497Y-62117604D01*
X65469376Y-62205862D01*
X65469373Y-62205864D01*
X65324642Y-62324642D01*
X65205864Y-62469373D01*
X65205862Y-62469376D01*
X65117604Y-62634497D01*
X65063253Y-62813665D01*
X65060859Y-62837969D01*
X65034696Y-62902756D01*
X65025137Y-62913493D01*
X62913494Y-65025137D01*
X62852171Y-65058622D01*
X62837970Y-65060859D01*
X62813666Y-65063253D01*
X62634497Y-65117604D01*
X62469376Y-65205862D01*
X62469373Y-65205864D01*
X62324642Y-65324642D01*
X62205864Y-65469373D01*
X62205862Y-65469376D01*
X62117604Y-65634497D01*
X62063253Y-65813666D01*
X62063252Y-65813668D01*
X62044901Y-66000000D01*
X25000000Y-66000000D01*
X25000000Y-46109993D01*
X56164700Y-46109993D01*
X56164700Y-46110006D01*
X56183864Y-46341297D01*
X56183866Y-46341308D01*
X56240842Y-46566300D01*
X56334075Y-46778848D01*
X56461016Y-46973147D01*
X56461019Y-46973151D01*
X56461021Y-46973153D01*
X56618216Y-47143913D01*
X56795819Y-47282146D01*
X56796225Y-47282462D01*
X56837038Y-47339173D01*
X56840713Y-47408946D01*
X56806082Y-47469629D01*
X56796225Y-47478170D01*
X56771201Y-47497646D01*
X56771200Y-47497647D01*
X57434058Y-48160504D01*
X57373919Y-48176619D01*
X57258080Y-48243498D01*
X57163498Y-48338080D01*
X57096619Y-48453919D01*
X57080504Y-48514058D01*
X56418811Y-47852365D01*
X56334516Y-47981390D01*
X56241317Y-48193864D01*
X56184361Y-48418781D01*
X56165202Y-48649994D01*
X56165202Y-48650005D01*
X56184361Y-48881218D01*
X56241317Y-49106135D01*
X56334515Y-49318606D01*
X56418812Y-49447633D01*
X57080504Y-48785941D01*
X57096619Y-48846081D01*
X57163498Y-48961920D01*
X57258080Y-49056502D01*
X57373919Y-49123381D01*
X57434057Y-49139495D01*
X56771201Y-49802351D01*
X56796226Y-49821829D01*
X56837038Y-49878539D01*
X56840713Y-49948312D01*
X56806081Y-50008995D01*
X56796226Y-50017535D01*
X56618218Y-50156085D01*
X56461016Y-50326852D01*
X56334075Y-50521151D01*
X56240842Y-50733699D01*
X56183866Y-50958691D01*
X56183864Y-50958702D01*
X56164700Y-51189993D01*
X56164700Y-51190006D01*
X56183864Y-51421297D01*
X56183866Y-51421308D01*
X56240842Y-51646300D01*
X56334075Y-51858848D01*
X56461016Y-52053147D01*
X56461019Y-52053151D01*
X56461021Y-52053153D01*
X56618216Y-52223913D01*
X56618219Y-52223915D01*
X56618222Y-52223918D01*
X56795818Y-52362147D01*
X56836631Y-52418857D01*
X56840306Y-52488630D01*
X56805674Y-52549313D01*
X56795818Y-52557853D01*
X56618222Y-52696081D01*
X56618219Y-52696084D01*
X56461016Y-52866852D01*
X56334075Y-53061151D01*
X56240842Y-53273699D01*
X56183866Y-53498691D01*
X56183864Y-53498702D01*
X56164700Y-53729993D01*
X56164700Y-53730006D01*
X56183864Y-53961297D01*
X56183866Y-53961308D01*
X56240842Y-54186300D01*
X56334075Y-54398848D01*
X56461016Y-54593147D01*
X56461019Y-54593151D01*
X56461021Y-54593153D01*
X56618216Y-54763913D01*
X56618219Y-54763915D01*
X56618222Y-54763918D01*
X56795818Y-54902147D01*
X56836631Y-54958857D01*
X56840306Y-55028630D01*
X56805674Y-55089313D01*
X56795818Y-55097853D01*
X56618222Y-55236081D01*
X56618219Y-55236084D01*
X56461016Y-55406852D01*
X56334075Y-55601151D01*
X56240842Y-55813699D01*
X56183866Y-56038691D01*
X56183864Y-56038702D01*
X56164700Y-56269993D01*
X56164700Y-56270006D01*
X56183864Y-56501297D01*
X56183866Y-56501308D01*
X56240842Y-56726300D01*
X56334075Y-56938848D01*
X56461016Y-57133147D01*
X56461019Y-57133151D01*
X56461021Y-57133153D01*
X56618216Y-57303913D01*
X56618219Y-57303915D01*
X56618222Y-57303918D01*
X56795818Y-57442147D01*
X56836631Y-57498857D01*
X56840306Y-57568630D01*
X56805674Y-57629313D01*
X56795818Y-57637853D01*
X56618222Y-57776081D01*
X56618219Y-57776084D01*
X56618216Y-57776086D01*
X56618216Y-57776087D01*
X56608337Y-57786819D01*
X56461016Y-57946852D01*
X56334075Y-58141151D01*
X56240842Y-58353699D01*
X56183866Y-58578691D01*
X56183864Y-58578702D01*
X56164700Y-58809993D01*
X56164700Y-58810006D01*
X56183864Y-59041297D01*
X56183866Y-59041308D01*
X56240842Y-59266300D01*
X56334075Y-59478848D01*
X56461016Y-59673147D01*
X56461019Y-59673151D01*
X56461021Y-59673153D01*
X56618216Y-59843913D01*
X56618219Y-59843915D01*
X56618222Y-59843918D01*
X56795818Y-59982147D01*
X56836631Y-60038857D01*
X56840306Y-60108630D01*
X56805674Y-60169313D01*
X56795818Y-60177853D01*
X56618222Y-60316081D01*
X56618219Y-60316084D01*
X56461016Y-60486852D01*
X56334075Y-60681151D01*
X56240842Y-60893699D01*
X56183866Y-61118691D01*
X56183864Y-61118702D01*
X56164700Y-61349993D01*
X56164700Y-61350006D01*
X56183864Y-61581297D01*
X56183866Y-61581308D01*
X56240842Y-61806300D01*
X56334075Y-62018848D01*
X56461016Y-62213147D01*
X56461019Y-62213151D01*
X56461021Y-62213153D01*
X56618216Y-62383913D01*
X56618219Y-62383915D01*
X56618222Y-62383918D01*
X56795818Y-62522147D01*
X56836631Y-62578857D01*
X56840306Y-62648630D01*
X56805674Y-62709313D01*
X56795818Y-62717853D01*
X56618222Y-62856081D01*
X56618219Y-62856084D01*
X56461016Y-63026852D01*
X56334075Y-63221151D01*
X56240842Y-63433699D01*
X56183866Y-63658691D01*
X56183864Y-63658702D01*
X56164700Y-63889993D01*
X56164700Y-63890006D01*
X56183864Y-64121297D01*
X56183866Y-64121308D01*
X56240842Y-64346300D01*
X56334075Y-64558848D01*
X56461016Y-64753147D01*
X56461019Y-64753151D01*
X56461021Y-64753153D01*
X56618216Y-64923913D01*
X56618219Y-64923915D01*
X56618222Y-64923918D01*
X56801365Y-65066464D01*
X56801371Y-65066468D01*
X56801374Y-65066470D01*
X57005497Y-65176936D01*
X57119487Y-65216068D01*
X57225015Y-65252297D01*
X57225017Y-65252297D01*
X57225019Y-65252298D01*
X57453951Y-65290500D01*
X57453952Y-65290500D01*
X57686048Y-65290500D01*
X57686049Y-65290500D01*
X57914981Y-65252298D01*
X58134503Y-65176936D01*
X58338626Y-65066470D01*
X58351422Y-65056511D01*
X58424027Y-65000000D01*
X58521784Y-64923913D01*
X58678979Y-64753153D01*
X58805924Y-64558849D01*
X58899157Y-64346300D01*
X58956134Y-64121305D01*
X58956441Y-64117604D01*
X58975300Y-63890006D01*
X58975300Y-63889993D01*
X58956135Y-63658702D01*
X58956133Y-63658691D01*
X58899157Y-63433699D01*
X58805924Y-63221151D01*
X58678983Y-63026852D01*
X58678980Y-63026849D01*
X58678979Y-63026847D01*
X58521784Y-62856087D01*
X58344180Y-62717853D01*
X58303368Y-62661143D01*
X58299693Y-62591370D01*
X58334324Y-62530687D01*
X58344181Y-62522146D01*
X58521784Y-62383913D01*
X58678979Y-62213153D01*
X58805924Y-62018849D01*
X58899157Y-61806300D01*
X58956134Y-61581305D01*
X58956135Y-61581297D01*
X58975300Y-61350006D01*
X58975300Y-61349993D01*
X58956135Y-61118702D01*
X58956133Y-61118691D01*
X58899157Y-60893699D01*
X58805924Y-60681151D01*
X58678983Y-60486852D01*
X58678980Y-60486849D01*
X58678979Y-60486847D01*
X58521784Y-60316087D01*
X58344180Y-60177853D01*
X58303368Y-60121143D01*
X58299693Y-60051370D01*
X58334324Y-59990687D01*
X58344181Y-59982146D01*
X58521784Y-59843913D01*
X58678979Y-59673153D01*
X58805924Y-59478849D01*
X58899157Y-59266300D01*
X58956134Y-59041305D01*
X58956135Y-59041297D01*
X58975300Y-58810006D01*
X58975300Y-58809993D01*
X58956135Y-58578702D01*
X58956133Y-58578691D01*
X58899157Y-58353699D01*
X58805924Y-58141151D01*
X58678983Y-57946852D01*
X58678980Y-57946849D01*
X58678979Y-57946847D01*
X58521784Y-57776087D01*
X58344180Y-57637853D01*
X58303368Y-57581143D01*
X58299693Y-57511370D01*
X58334324Y-57450687D01*
X58344181Y-57442146D01*
X58521784Y-57303913D01*
X58678979Y-57133153D01*
X58805924Y-56938849D01*
X58899157Y-56726300D01*
X58956134Y-56501305D01*
X58958780Y-56469373D01*
X58975300Y-56270006D01*
X58975300Y-56269993D01*
X58956135Y-56038702D01*
X58956133Y-56038691D01*
X58899157Y-55813699D01*
X58805924Y-55601151D01*
X58678983Y-55406852D01*
X58678980Y-55406849D01*
X58678979Y-55406847D01*
X58521784Y-55236087D01*
X58344180Y-55097853D01*
X58303368Y-55041143D01*
X58299693Y-54971370D01*
X58334324Y-54910687D01*
X58344181Y-54902146D01*
X58521784Y-54763913D01*
X58678979Y-54593153D01*
X58805924Y-54398849D01*
X58899157Y-54186300D01*
X58956134Y-53961305D01*
X58956135Y-53961297D01*
X58975300Y-53730006D01*
X58975300Y-53729993D01*
X58956135Y-53498702D01*
X58956133Y-53498691D01*
X58899157Y-53273699D01*
X58805924Y-53061151D01*
X58678983Y-52866852D01*
X58678980Y-52866849D01*
X58678979Y-52866847D01*
X58521784Y-52696087D01*
X58344180Y-52557853D01*
X58303368Y-52501143D01*
X58299693Y-52431370D01*
X58334324Y-52370687D01*
X58344181Y-52362146D01*
X58521784Y-52223913D01*
X58678979Y-52053153D01*
X58805924Y-51858849D01*
X58899157Y-51646300D01*
X58956134Y-51421305D01*
X58975300Y-51190000D01*
X58975300Y-51189993D01*
X58956135Y-50958702D01*
X58956133Y-50958691D01*
X58899157Y-50733699D01*
X58805924Y-50521151D01*
X58678983Y-50326852D01*
X58678980Y-50326849D01*
X58678979Y-50326847D01*
X58521784Y-50156087D01*
X58343773Y-50017536D01*
X58302961Y-49960826D01*
X58299286Y-49891053D01*
X58333917Y-49830370D01*
X58343772Y-49821831D01*
X58368797Y-49802352D01*
X58368798Y-49802350D01*
X57705942Y-49139494D01*
X57766081Y-49123381D01*
X57881920Y-49056502D01*
X57976502Y-48961920D01*
X58043381Y-48846081D01*
X58059495Y-48785942D01*
X58721186Y-49447633D01*
X58805482Y-49318611D01*
X58898682Y-49106135D01*
X58955638Y-48881218D01*
X58974798Y-48650005D01*
X58974798Y-48649994D01*
X58955638Y-48418781D01*
X58898682Y-48193864D01*
X58805484Y-47981393D01*
X58721186Y-47852365D01*
X58059494Y-48514057D01*
X58043381Y-48453919D01*
X57976502Y-48338080D01*
X57881920Y-48243498D01*
X57766081Y-48176619D01*
X57705941Y-48160504D01*
X58368797Y-47497647D01*
X58368797Y-47497646D01*
X58343773Y-47478169D01*
X58302961Y-47421459D01*
X58299286Y-47351686D01*
X58333918Y-47291003D01*
X58343760Y-47282473D01*
X58521784Y-47143913D01*
X58678979Y-46973153D01*
X58805924Y-46778849D01*
X58899157Y-46566300D01*
X58956134Y-46341305D01*
X58962641Y-46262774D01*
X58975300Y-46110006D01*
X58975300Y-46109993D01*
X79024700Y-46109993D01*
X79024700Y-46110006D01*
X79043864Y-46341297D01*
X79043866Y-46341308D01*
X79100842Y-46566300D01*
X79194075Y-46778848D01*
X79321016Y-46973147D01*
X79321019Y-46973151D01*
X79321021Y-46973153D01*
X79478216Y-47143913D01*
X79478219Y-47143915D01*
X79478222Y-47143918D01*
X79655818Y-47282147D01*
X79696631Y-47338857D01*
X79700306Y-47408630D01*
X79665674Y-47469313D01*
X79655818Y-47477853D01*
X79478222Y-47616081D01*
X79478219Y-47616084D01*
X79321016Y-47786852D01*
X79194075Y-47981151D01*
X79100842Y-48193699D01*
X79043866Y-48418691D01*
X79043864Y-48418702D01*
X79024700Y-48649993D01*
X79024700Y-48650006D01*
X79043864Y-48881297D01*
X79043866Y-48881308D01*
X79100842Y-49106300D01*
X79194075Y-49318848D01*
X79321016Y-49513147D01*
X79321019Y-49513151D01*
X79321021Y-49513153D01*
X79478216Y-49683913D01*
X79478219Y-49683915D01*
X79478222Y-49683918D01*
X79655818Y-49822147D01*
X79696631Y-49878857D01*
X79700306Y-49948630D01*
X79665674Y-50009313D01*
X79655818Y-50017853D01*
X79478222Y-50156081D01*
X79478219Y-50156084D01*
X79321016Y-50326852D01*
X79194075Y-50521151D01*
X79100842Y-50733699D01*
X79043866Y-50958691D01*
X79043864Y-50958702D01*
X79024700Y-51189993D01*
X79024700Y-51190006D01*
X79043864Y-51421297D01*
X79043866Y-51421308D01*
X79100842Y-51646300D01*
X79194075Y-51858848D01*
X79321016Y-52053147D01*
X79321019Y-52053151D01*
X79321021Y-52053153D01*
X79478216Y-52223913D01*
X79478219Y-52223915D01*
X79478222Y-52223918D01*
X79655818Y-52362147D01*
X79696631Y-52418857D01*
X79700306Y-52488630D01*
X79665674Y-52549313D01*
X79655818Y-52557853D01*
X79478222Y-52696081D01*
X79478219Y-52696084D01*
X79321016Y-52866852D01*
X79194075Y-53061151D01*
X79100842Y-53273699D01*
X79043866Y-53498691D01*
X79043864Y-53498702D01*
X79024700Y-53729993D01*
X79024700Y-53730006D01*
X79043864Y-53961297D01*
X79043866Y-53961308D01*
X79100842Y-54186300D01*
X79194075Y-54398848D01*
X79321016Y-54593147D01*
X79321019Y-54593151D01*
X79321021Y-54593153D01*
X79478216Y-54763913D01*
X79478219Y-54763915D01*
X79478222Y-54763918D01*
X79655818Y-54902147D01*
X79696631Y-54958857D01*
X79700306Y-55028630D01*
X79665674Y-55089313D01*
X79655818Y-55097853D01*
X79478222Y-55236081D01*
X79478219Y-55236084D01*
X79321016Y-55406852D01*
X79194075Y-55601151D01*
X79100842Y-55813699D01*
X79043866Y-56038691D01*
X79043864Y-56038702D01*
X79024700Y-56269993D01*
X79024700Y-56270006D01*
X79043864Y-56501297D01*
X79043866Y-56501308D01*
X79100842Y-56726300D01*
X79194075Y-56938848D01*
X79321016Y-57133147D01*
X79321019Y-57133151D01*
X79321021Y-57133153D01*
X79478216Y-57303913D01*
X79478219Y-57303915D01*
X79478222Y-57303918D01*
X79655818Y-57442147D01*
X79696631Y-57498857D01*
X79700306Y-57568630D01*
X79665674Y-57629313D01*
X79655818Y-57637853D01*
X79478222Y-57776081D01*
X79478219Y-57776084D01*
X79478216Y-57776086D01*
X79478216Y-57776087D01*
X79468337Y-57786819D01*
X79321016Y-57946852D01*
X79194075Y-58141151D01*
X79100842Y-58353699D01*
X79043866Y-58578691D01*
X79043864Y-58578702D01*
X79024700Y-58809993D01*
X79024700Y-58810006D01*
X79043864Y-59041297D01*
X79043866Y-59041308D01*
X79100842Y-59266300D01*
X79194075Y-59478848D01*
X79321016Y-59673147D01*
X79321019Y-59673151D01*
X79321021Y-59673153D01*
X79478216Y-59843913D01*
X79478219Y-59843915D01*
X79478222Y-59843918D01*
X79655818Y-59982147D01*
X79696631Y-60038857D01*
X79700306Y-60108630D01*
X79665674Y-60169313D01*
X79655818Y-60177853D01*
X79478222Y-60316081D01*
X79478219Y-60316084D01*
X79321016Y-60486852D01*
X79194075Y-60681151D01*
X79100842Y-60893699D01*
X79043866Y-61118691D01*
X79043864Y-61118702D01*
X79024700Y-61349993D01*
X79024700Y-61350006D01*
X79043864Y-61581297D01*
X79043866Y-61581308D01*
X79100842Y-61806300D01*
X79194075Y-62018848D01*
X79321016Y-62213147D01*
X79321019Y-62213151D01*
X79321021Y-62213153D01*
X79478216Y-62383913D01*
X79478219Y-62383915D01*
X79478222Y-62383918D01*
X79655818Y-62522147D01*
X79696631Y-62578857D01*
X79700306Y-62648630D01*
X79665674Y-62709313D01*
X79655818Y-62717853D01*
X79478222Y-62856081D01*
X79478219Y-62856084D01*
X79321016Y-63026852D01*
X79194075Y-63221151D01*
X79100842Y-63433699D01*
X79043866Y-63658691D01*
X79043864Y-63658702D01*
X79024700Y-63889993D01*
X79024700Y-63890006D01*
X79043864Y-64121297D01*
X79043866Y-64121308D01*
X79100842Y-64346300D01*
X79194075Y-64558848D01*
X79321016Y-64753147D01*
X79321019Y-64753151D01*
X79321021Y-64753153D01*
X79478216Y-64923913D01*
X79478219Y-64923915D01*
X79478222Y-64923918D01*
X79661365Y-65066464D01*
X79661371Y-65066468D01*
X79661374Y-65066470D01*
X79865497Y-65176936D01*
X79979487Y-65216068D01*
X80085015Y-65252297D01*
X80085017Y-65252297D01*
X80085019Y-65252298D01*
X80313951Y-65290500D01*
X80313952Y-65290500D01*
X80546048Y-65290500D01*
X80546049Y-65290500D01*
X80774981Y-65252298D01*
X80994503Y-65176936D01*
X81198626Y-65066470D01*
X81211422Y-65056511D01*
X81284027Y-65000000D01*
X81381784Y-64923913D01*
X81538979Y-64753153D01*
X81665924Y-64558849D01*
X81759157Y-64346300D01*
X81816134Y-64121305D01*
X81816441Y-64117604D01*
X81835300Y-63890006D01*
X81835300Y-63889993D01*
X81816135Y-63658702D01*
X81816133Y-63658691D01*
X81759157Y-63433699D01*
X81665924Y-63221151D01*
X81538983Y-63026852D01*
X81538980Y-63026849D01*
X81538979Y-63026847D01*
X81381784Y-62856087D01*
X81204180Y-62717853D01*
X81163368Y-62661143D01*
X81159693Y-62591370D01*
X81194324Y-62530687D01*
X81204181Y-62522146D01*
X81381784Y-62383913D01*
X81538979Y-62213153D01*
X81665924Y-62018849D01*
X81759157Y-61806300D01*
X81816134Y-61581305D01*
X81816135Y-61581297D01*
X81835300Y-61350006D01*
X81835300Y-61349993D01*
X81816135Y-61118702D01*
X81816133Y-61118691D01*
X81759157Y-60893699D01*
X81665924Y-60681151D01*
X81538983Y-60486852D01*
X81538980Y-60486849D01*
X81538979Y-60486847D01*
X81381784Y-60316087D01*
X81204180Y-60177853D01*
X81163368Y-60121143D01*
X81159693Y-60051370D01*
X81194324Y-59990687D01*
X81204181Y-59982146D01*
X81381784Y-59843913D01*
X81468238Y-59749999D01*
X83481127Y-59749999D01*
X83481128Y-59750000D01*
X84444314Y-59750000D01*
X84439920Y-59754394D01*
X84387259Y-59845606D01*
X84360000Y-59947339D01*
X84360000Y-60052661D01*
X84387259Y-60154394D01*
X84439920Y-60245606D01*
X84444314Y-60250000D01*
X83481128Y-60250000D01*
X83533730Y-60446317D01*
X83533734Y-60446326D01*
X83629865Y-60652482D01*
X83760342Y-60838820D01*
X83921179Y-60999657D01*
X84107517Y-61130134D01*
X84313673Y-61226265D01*
X84313682Y-61226269D01*
X84509999Y-61278872D01*
X84510000Y-61278871D01*
X84510000Y-60315686D01*
X84514394Y-60320080D01*
X84605606Y-60372741D01*
X84707339Y-60400000D01*
X84812661Y-60400000D01*
X84914394Y-60372741D01*
X85005606Y-60320080D01*
X85010000Y-60315686D01*
X85010000Y-61278872D01*
X85206317Y-61226269D01*
X85206326Y-61226265D01*
X85412482Y-61130134D01*
X85598820Y-60999657D01*
X85759657Y-60838820D01*
X85890134Y-60652482D01*
X85986265Y-60446326D01*
X85986269Y-60446317D01*
X86038872Y-60250000D01*
X85075686Y-60250000D01*
X85080080Y-60245606D01*
X85132741Y-60154394D01*
X85160000Y-60052661D01*
X85160000Y-59947339D01*
X85132741Y-59845606D01*
X85080080Y-59754394D01*
X85075686Y-59750000D01*
X86038872Y-59750000D01*
X86038872Y-59749999D01*
X85986269Y-59553682D01*
X85986265Y-59553673D01*
X85890134Y-59347517D01*
X85759657Y-59161179D01*
X85598820Y-59000342D01*
X85412482Y-58869865D01*
X85206328Y-58773734D01*
X85010000Y-58721127D01*
X85010000Y-59684314D01*
X85005606Y-59679920D01*
X84914394Y-59627259D01*
X84812661Y-59600000D01*
X84707339Y-59600000D01*
X84605606Y-59627259D01*
X84514394Y-59679920D01*
X84510000Y-59684314D01*
X84510000Y-58721127D01*
X84313671Y-58773734D01*
X84107517Y-58869865D01*
X83921179Y-59000342D01*
X83760342Y-59161179D01*
X83629865Y-59347517D01*
X83533734Y-59553673D01*
X83533730Y-59553682D01*
X83481127Y-59749999D01*
X81468238Y-59749999D01*
X81538979Y-59673153D01*
X81665924Y-59478849D01*
X81759157Y-59266300D01*
X81816134Y-59041305D01*
X81816135Y-59041297D01*
X81835300Y-58810006D01*
X81835300Y-58809993D01*
X81816135Y-58578702D01*
X81816133Y-58578691D01*
X81759157Y-58353699D01*
X81665924Y-58141151D01*
X81538983Y-57946852D01*
X81538980Y-57946849D01*
X81538979Y-57946847D01*
X81381784Y-57776087D01*
X81204180Y-57637853D01*
X81163368Y-57581143D01*
X81159693Y-57511370D01*
X81194324Y-57450687D01*
X81204181Y-57442146D01*
X81381784Y-57303913D01*
X81538979Y-57133153D01*
X81625972Y-57000000D01*
X90044901Y-57000000D01*
X90063252Y-57186331D01*
X90063253Y-57186333D01*
X90117604Y-57365502D01*
X90205862Y-57530623D01*
X90205864Y-57530626D01*
X90324642Y-57675357D01*
X90469373Y-57794135D01*
X90469376Y-57794137D01*
X90634497Y-57882395D01*
X90634499Y-57882396D01*
X90813666Y-57936746D01*
X90813668Y-57936747D01*
X90830374Y-57938392D01*
X91000000Y-57955099D01*
X91186331Y-57936747D01*
X91365501Y-57882396D01*
X91530625Y-57794136D01*
X91549497Y-57778647D01*
X91613806Y-57751334D01*
X91628163Y-57750500D01*
X92637770Y-57750500D01*
X92704809Y-57770185D01*
X92725451Y-57786819D01*
X94025137Y-59086505D01*
X94058622Y-59147828D01*
X94060859Y-59162030D01*
X94063252Y-59186328D01*
X94063254Y-59186336D01*
X94117604Y-59365502D01*
X94205862Y-59530623D01*
X94205864Y-59530626D01*
X94324642Y-59675357D01*
X94469373Y-59794135D01*
X94469376Y-59794137D01*
X94562511Y-59843918D01*
X94634499Y-59882396D01*
X94813666Y-59936746D01*
X94813668Y-59936747D01*
X94830374Y-59938392D01*
X95000000Y-59955099D01*
X95186331Y-59936747D01*
X95365501Y-59882396D01*
X95530625Y-59794136D01*
X95675357Y-59675357D01*
X95794136Y-59530625D01*
X95882396Y-59365501D01*
X95936747Y-59186331D01*
X95955099Y-59000000D01*
X95936747Y-58813669D01*
X95882396Y-58634499D01*
X95852572Y-58578702D01*
X95794137Y-58469376D01*
X95794135Y-58469373D01*
X95675357Y-58324642D01*
X95530626Y-58205864D01*
X95530623Y-58205862D01*
X95365502Y-58117604D01*
X95186336Y-58063254D01*
X95186328Y-58063252D01*
X95162030Y-58060859D01*
X95097243Y-58034697D01*
X95086505Y-58025137D01*
X93478421Y-56417052D01*
X93478414Y-56417046D01*
X93404729Y-56367812D01*
X93404729Y-56367813D01*
X93355491Y-56334913D01*
X93218917Y-56278343D01*
X93218907Y-56278340D01*
X93073920Y-56249500D01*
X93073918Y-56249500D01*
X91628163Y-56249500D01*
X91561124Y-56229815D01*
X91549504Y-56221358D01*
X91530625Y-56205864D01*
X91530624Y-56205863D01*
X91530621Y-56205861D01*
X91530619Y-56205860D01*
X91365502Y-56117604D01*
X91186333Y-56063253D01*
X91186331Y-56063252D01*
X91000000Y-56044901D01*
X90813668Y-56063252D01*
X90813666Y-56063253D01*
X90634497Y-56117604D01*
X90469376Y-56205862D01*
X90469373Y-56205864D01*
X90324642Y-56324642D01*
X90205864Y-56469373D01*
X90205862Y-56469376D01*
X90117604Y-56634497D01*
X90063253Y-56813666D01*
X90063252Y-56813668D01*
X90044901Y-57000000D01*
X81625972Y-57000000D01*
X81665924Y-56938849D01*
X81759157Y-56726300D01*
X81816134Y-56501305D01*
X81818780Y-56469373D01*
X81835300Y-56270006D01*
X81835300Y-56269993D01*
X81816135Y-56038702D01*
X81816133Y-56038691D01*
X81759157Y-55813699D01*
X81665924Y-55601151D01*
X81538983Y-55406852D01*
X81538980Y-55406849D01*
X81538979Y-55406847D01*
X81381784Y-55236087D01*
X81204180Y-55097853D01*
X81163368Y-55041143D01*
X81159693Y-54971370D01*
X81194324Y-54910687D01*
X81204181Y-54902146D01*
X81381784Y-54763913D01*
X81538979Y-54593153D01*
X81665924Y-54398849D01*
X81759157Y-54186300D01*
X81765818Y-54159998D01*
X88694532Y-54159998D01*
X88694532Y-54160001D01*
X88714364Y-54386686D01*
X88714366Y-54386697D01*
X88773258Y-54606488D01*
X88773261Y-54606497D01*
X88869431Y-54812732D01*
X88869432Y-54812734D01*
X88999954Y-54999141D01*
X89160858Y-55160045D01*
X89160861Y-55160047D01*
X89347266Y-55290568D01*
X89553504Y-55386739D01*
X89773308Y-55445635D01*
X89935230Y-55459801D01*
X89999998Y-55465468D01*
X90000000Y-55465468D01*
X90000002Y-55465468D01*
X90056673Y-55460509D01*
X90226692Y-55445635D01*
X90446496Y-55386739D01*
X90652734Y-55290568D01*
X90839139Y-55160047D01*
X91000047Y-54999139D01*
X91000048Y-54999138D01*
X91003526Y-54994994D01*
X91005493Y-54996644D01*
X91051680Y-54959742D01*
X91098655Y-54950500D01*
X94299184Y-54950500D01*
X94366223Y-54970185D01*
X94396129Y-54997185D01*
X94465608Y-55084309D01*
X94513198Y-55143985D01*
X94694753Y-55312441D01*
X94705521Y-55322433D01*
X94922296Y-55470228D01*
X94922301Y-55470230D01*
X94922302Y-55470231D01*
X94922303Y-55470232D01*
X95016813Y-55515745D01*
X95158673Y-55584061D01*
X95158674Y-55584061D01*
X95158677Y-55584063D01*
X95409385Y-55661396D01*
X95668818Y-55700500D01*
X95931182Y-55700500D01*
X96190615Y-55661396D01*
X96441323Y-55584063D01*
X96677704Y-55470228D01*
X96894479Y-55322433D01*
X97086805Y-55143981D01*
X97250386Y-54938857D01*
X97381568Y-54711643D01*
X97477420Y-54467416D01*
X97535802Y-54211630D01*
X97551661Y-54000000D01*
X97551661Y-53999998D01*
X105994390Y-53999998D01*
X105994390Y-54000001D01*
X106014804Y-54285433D01*
X106075628Y-54565037D01*
X106075630Y-54565043D01*
X106075631Y-54565046D01*
X106168014Y-54812734D01*
X106175635Y-54833166D01*
X106312770Y-55084309D01*
X106312775Y-55084317D01*
X106484254Y-55313387D01*
X106484270Y-55313405D01*
X106686594Y-55515729D01*
X106686612Y-55515745D01*
X106915682Y-55687224D01*
X106915690Y-55687229D01*
X107166833Y-55824364D01*
X107166832Y-55824364D01*
X107166836Y-55824365D01*
X107166839Y-55824367D01*
X107434954Y-55924369D01*
X107434960Y-55924370D01*
X107434962Y-55924371D01*
X107714566Y-55985195D01*
X107714568Y-55985195D01*
X107714572Y-55985196D01*
X107968220Y-56003337D01*
X107999999Y-56005610D01*
X108000000Y-56005610D01*
X108000001Y-56005610D01*
X108028595Y-56003564D01*
X108285428Y-55985196D01*
X108565046Y-55924369D01*
X108833161Y-55824367D01*
X109084315Y-55687226D01*
X109313395Y-55515739D01*
X109515739Y-55313395D01*
X109687226Y-55084315D01*
X109824367Y-54833161D01*
X109924369Y-54565046D01*
X109985196Y-54285428D01*
X110005610Y-54000000D01*
X109985196Y-53714572D01*
X109984963Y-53713502D01*
X109924371Y-53434962D01*
X109924370Y-53434960D01*
X109924369Y-53434954D01*
X109824367Y-53166839D01*
X109820607Y-53159954D01*
X109687229Y-52915690D01*
X109687224Y-52915682D01*
X109515745Y-52686612D01*
X109515729Y-52686594D01*
X109313405Y-52484270D01*
X109313387Y-52484254D01*
X109084317Y-52312775D01*
X109084309Y-52312770D01*
X108833166Y-52175635D01*
X108833167Y-52175635D01*
X108725915Y-52135632D01*
X108565046Y-52075631D01*
X108565043Y-52075630D01*
X108565037Y-52075628D01*
X108285433Y-52014804D01*
X108000001Y-51994390D01*
X107999999Y-51994390D01*
X107714566Y-52014804D01*
X107434962Y-52075628D01*
X107166833Y-52175635D01*
X106915690Y-52312770D01*
X106915682Y-52312775D01*
X106686612Y-52484254D01*
X106686594Y-52484270D01*
X106484270Y-52686594D01*
X106484254Y-52686612D01*
X106312775Y-52915682D01*
X106312770Y-52915690D01*
X106175635Y-53166833D01*
X106075628Y-53434962D01*
X106014804Y-53714566D01*
X105994390Y-53999998D01*
X97551661Y-53999998D01*
X97555408Y-53950004D01*
X97555408Y-53949995D01*
X97535803Y-53688379D01*
X97535802Y-53688374D01*
X97535802Y-53688370D01*
X97477420Y-53432584D01*
X97381568Y-53188357D01*
X97250386Y-52961143D01*
X97086805Y-52756019D01*
X97086804Y-52756018D01*
X97086801Y-52756014D01*
X96894479Y-52577567D01*
X96853038Y-52549313D01*
X96677704Y-52429772D01*
X96677700Y-52429770D01*
X96677697Y-52429768D01*
X96677696Y-52429767D01*
X96441325Y-52315938D01*
X96441327Y-52315938D01*
X96190623Y-52238606D01*
X96190619Y-52238605D01*
X96190615Y-52238604D01*
X96065823Y-52219794D01*
X95931187Y-52199500D01*
X95931182Y-52199500D01*
X95668818Y-52199500D01*
X95668812Y-52199500D01*
X95507247Y-52223853D01*
X95409385Y-52238604D01*
X95409382Y-52238605D01*
X95409376Y-52238606D01*
X95158673Y-52315938D01*
X94922303Y-52429767D01*
X94922302Y-52429768D01*
X94705520Y-52577567D01*
X94513198Y-52756014D01*
X94396131Y-52902813D01*
X94338943Y-52942953D01*
X94299184Y-52949500D01*
X90508811Y-52949500D01*
X90456406Y-52937882D01*
X90453321Y-52936443D01*
X90446493Y-52933259D01*
X90226697Y-52874366D01*
X90226693Y-52874365D01*
X90226692Y-52874365D01*
X90226691Y-52874364D01*
X90226686Y-52874364D01*
X90000002Y-52854532D01*
X89999998Y-52854532D01*
X89773313Y-52874364D01*
X89773302Y-52874366D01*
X89553511Y-52933258D01*
X89553502Y-52933261D01*
X89347267Y-53029431D01*
X89347265Y-53029432D01*
X89160858Y-53159954D01*
X88999954Y-53320858D01*
X88869432Y-53507265D01*
X88869431Y-53507267D01*
X88773261Y-53713502D01*
X88773258Y-53713511D01*
X88714366Y-53933302D01*
X88714364Y-53933313D01*
X88694532Y-54159998D01*
X81765818Y-54159998D01*
X81816134Y-53961305D01*
X81816135Y-53961297D01*
X81835300Y-53730006D01*
X81835300Y-53729993D01*
X81816135Y-53498702D01*
X81816133Y-53498691D01*
X81759157Y-53273699D01*
X81665924Y-53061151D01*
X81538983Y-52866852D01*
X81538980Y-52866849D01*
X81538979Y-52866847D01*
X81381784Y-52696087D01*
X81204180Y-52557853D01*
X81163368Y-52501143D01*
X81159693Y-52431370D01*
X81194324Y-52370687D01*
X81204181Y-52362146D01*
X81381784Y-52223913D01*
X81538979Y-52053153D01*
X81665924Y-51858849D01*
X81759157Y-51646300D01*
X81816134Y-51421305D01*
X81835300Y-51190000D01*
X81835300Y-51189993D01*
X81816135Y-50958702D01*
X81816133Y-50958691D01*
X81759157Y-50733699D01*
X81665924Y-50521151D01*
X81538983Y-50326852D01*
X81538980Y-50326849D01*
X81538979Y-50326847D01*
X81381784Y-50156087D01*
X81204180Y-50017853D01*
X81163368Y-49961143D01*
X81159693Y-49891370D01*
X81194324Y-49830687D01*
X81204181Y-49822146D01*
X81204586Y-49821831D01*
X81381784Y-49683913D01*
X81538979Y-49513153D01*
X81665924Y-49318849D01*
X81759157Y-49106300D01*
X81816134Y-48881305D01*
X81816135Y-48881297D01*
X81835300Y-48650006D01*
X81835300Y-48649993D01*
X81816135Y-48418702D01*
X81816133Y-48418691D01*
X81759157Y-48193699D01*
X81665924Y-47981151D01*
X81645571Y-47949998D01*
X91794390Y-47949998D01*
X91794390Y-47950001D01*
X91814804Y-48235433D01*
X91875628Y-48515037D01*
X91875630Y-48515043D01*
X91875631Y-48515046D01*
X91975633Y-48783161D01*
X91975635Y-48783166D01*
X92112770Y-49034309D01*
X92112775Y-49034317D01*
X92284254Y-49263387D01*
X92284270Y-49263405D01*
X92486594Y-49465729D01*
X92486612Y-49465745D01*
X92715682Y-49637224D01*
X92715690Y-49637229D01*
X92966833Y-49774364D01*
X92966832Y-49774364D01*
X92966836Y-49774365D01*
X92966839Y-49774367D01*
X93234954Y-49874369D01*
X93234960Y-49874370D01*
X93234962Y-49874371D01*
X93514566Y-49935195D01*
X93514568Y-49935195D01*
X93514572Y-49935196D01*
X93768220Y-49953337D01*
X93799999Y-49955610D01*
X93800000Y-49955610D01*
X93800001Y-49955610D01*
X93828595Y-49953564D01*
X94085428Y-49935196D01*
X94286894Y-49891370D01*
X94365037Y-49874371D01*
X94365037Y-49874370D01*
X94365046Y-49874369D01*
X94633161Y-49774367D01*
X94884315Y-49637226D01*
X95113395Y-49465739D01*
X95315739Y-49263395D01*
X95487226Y-49034315D01*
X95624367Y-48783161D01*
X95724369Y-48515046D01*
X95745330Y-48418691D01*
X95785195Y-48235433D01*
X95785195Y-48235432D01*
X95785196Y-48235428D01*
X95805610Y-47950000D01*
X95785196Y-47664572D01*
X95774647Y-47616081D01*
X95724371Y-47384962D01*
X95724370Y-47384960D01*
X95724369Y-47384954D01*
X95624367Y-47116839D01*
X95487226Y-46865685D01*
X95487224Y-46865682D01*
X95315745Y-46636612D01*
X95315729Y-46636594D01*
X95113405Y-46434270D01*
X95113387Y-46434254D01*
X94884317Y-46262775D01*
X94884309Y-46262770D01*
X94633166Y-46125635D01*
X94633167Y-46125635D01*
X94525915Y-46085632D01*
X94365046Y-46025631D01*
X94365043Y-46025630D01*
X94365037Y-46025628D01*
X94085433Y-45964804D01*
X93800001Y-45944390D01*
X93799999Y-45944390D01*
X93514566Y-45964804D01*
X93234962Y-46025628D01*
X92966833Y-46125635D01*
X92715690Y-46262770D01*
X92715682Y-46262775D01*
X92486612Y-46434254D01*
X92486594Y-46434270D01*
X92284270Y-46636594D01*
X92284254Y-46636612D01*
X92112775Y-46865682D01*
X92112770Y-46865690D01*
X91975635Y-47116833D01*
X91875628Y-47384962D01*
X91814804Y-47664566D01*
X91794390Y-47949998D01*
X81645571Y-47949998D01*
X81538983Y-47786852D01*
X81538980Y-47786849D01*
X81538979Y-47786847D01*
X81381784Y-47616087D01*
X81204180Y-47477853D01*
X81163368Y-47421143D01*
X81159693Y-47351370D01*
X81194324Y-47290687D01*
X81204181Y-47282146D01*
X81381784Y-47143913D01*
X81538979Y-46973153D01*
X81665924Y-46778849D01*
X81759157Y-46566300D01*
X81816134Y-46341305D01*
X81822641Y-46262774D01*
X81835300Y-46110006D01*
X81835300Y-46109993D01*
X81816135Y-45878702D01*
X81816133Y-45878691D01*
X81759157Y-45653699D01*
X81665924Y-45441151D01*
X81538983Y-45246852D01*
X81538980Y-45246849D01*
X81538979Y-45246847D01*
X81381784Y-45076087D01*
X81381779Y-45076083D01*
X81381777Y-45076081D01*
X81198634Y-44933535D01*
X81198628Y-44933531D01*
X80994504Y-44823064D01*
X80994495Y-44823061D01*
X80774984Y-44747702D01*
X80603282Y-44719050D01*
X80546049Y-44709500D01*
X80313951Y-44709500D01*
X80268164Y-44717140D01*
X80085015Y-44747702D01*
X79865504Y-44823061D01*
X79865495Y-44823064D01*
X79661371Y-44933531D01*
X79661365Y-44933535D01*
X79478222Y-45076081D01*
X79478219Y-45076084D01*
X79321016Y-45246852D01*
X79194075Y-45441151D01*
X79100842Y-45653699D01*
X79043866Y-45878691D01*
X79043864Y-45878702D01*
X79024700Y-46109993D01*
X58975300Y-46109993D01*
X58956135Y-45878702D01*
X58956133Y-45878691D01*
X58899157Y-45653699D01*
X58805924Y-45441151D01*
X58678983Y-45246852D01*
X58678980Y-45246849D01*
X58678979Y-45246847D01*
X58521784Y-45076087D01*
X58521779Y-45076083D01*
X58521777Y-45076081D01*
X58338634Y-44933535D01*
X58338628Y-44933531D01*
X58134504Y-44823064D01*
X58134495Y-44823061D01*
X57914984Y-44747702D01*
X57743282Y-44719050D01*
X57686049Y-44709500D01*
X57453951Y-44709500D01*
X57408164Y-44717140D01*
X57225015Y-44747702D01*
X57005504Y-44823061D01*
X57005495Y-44823064D01*
X56801371Y-44933531D01*
X56801365Y-44933535D01*
X56618222Y-45076081D01*
X56618219Y-45076084D01*
X56461016Y-45246852D01*
X56334075Y-45441151D01*
X56240842Y-45653699D01*
X56183866Y-45878691D01*
X56183864Y-45878702D01*
X56164700Y-46109993D01*
X25000000Y-46109993D01*
X25000000Y-43152135D01*
X88699500Y-43152135D01*
X88699500Y-44847870D01*
X88699501Y-44847876D01*
X88705908Y-44907483D01*
X88756202Y-45042328D01*
X88756206Y-45042335D01*
X88842452Y-45157544D01*
X88842455Y-45157547D01*
X88957664Y-45243793D01*
X88957671Y-45243797D01*
X89092517Y-45294091D01*
X89092516Y-45294091D01*
X89099444Y-45294835D01*
X89152127Y-45300500D01*
X90847872Y-45300499D01*
X90907483Y-45294091D01*
X91042331Y-45243796D01*
X91157546Y-45157546D01*
X91237914Y-45050188D01*
X91293847Y-45008318D01*
X91337180Y-45000500D01*
X93848542Y-45000500D01*
X93867870Y-44996655D01*
X93945188Y-44981275D01*
X94041836Y-44962051D01*
X94110691Y-44933530D01*
X94223914Y-44886632D01*
X94387782Y-44777139D01*
X94527139Y-44637782D01*
X94527140Y-44637779D01*
X94534206Y-44630714D01*
X94534209Y-44630710D01*
X95446930Y-43717988D01*
X95508251Y-43684505D01*
X95553090Y-43683056D01*
X95668818Y-43700500D01*
X95668824Y-43700500D01*
X95931182Y-43700500D01*
X96190615Y-43661396D01*
X96441323Y-43584063D01*
X96677704Y-43470228D01*
X96894479Y-43322433D01*
X97086805Y-43143981D01*
X97250386Y-42938857D01*
X97381568Y-42711643D01*
X97477420Y-42467416D01*
X97535802Y-42211630D01*
X97555408Y-41950000D01*
X97555408Y-41949998D01*
X105994390Y-41949998D01*
X105994390Y-41950001D01*
X106014804Y-42235433D01*
X106075628Y-42515037D01*
X106075630Y-42515043D01*
X106075631Y-42515046D01*
X106148958Y-42711643D01*
X106175635Y-42783166D01*
X106312770Y-43034309D01*
X106312775Y-43034317D01*
X106484254Y-43263387D01*
X106484270Y-43263405D01*
X106686594Y-43465729D01*
X106686612Y-43465745D01*
X106915682Y-43637224D01*
X106915690Y-43637229D01*
X107166833Y-43774364D01*
X107166832Y-43774364D01*
X107166836Y-43774365D01*
X107166839Y-43774367D01*
X107434954Y-43874369D01*
X107434960Y-43874370D01*
X107434962Y-43874371D01*
X107714566Y-43935195D01*
X107714568Y-43935195D01*
X107714572Y-43935196D01*
X107968220Y-43953337D01*
X107999999Y-43955610D01*
X108000000Y-43955610D01*
X108000001Y-43955610D01*
X108028595Y-43953564D01*
X108285428Y-43935196D01*
X108565046Y-43874369D01*
X108833161Y-43774367D01*
X109084315Y-43637226D01*
X109313395Y-43465739D01*
X109515739Y-43263395D01*
X109687226Y-43034315D01*
X109824367Y-42783161D01*
X109924369Y-42515046D01*
X109985196Y-42235428D01*
X110005610Y-41950000D01*
X109985196Y-41664572D01*
X109934730Y-41432584D01*
X109924371Y-41384962D01*
X109924370Y-41384960D01*
X109924369Y-41384954D01*
X109824367Y-41116839D01*
X109687226Y-40865685D01*
X109687224Y-40865682D01*
X109515745Y-40636612D01*
X109515729Y-40636594D01*
X109313405Y-40434270D01*
X109313387Y-40434254D01*
X109084317Y-40262775D01*
X109084309Y-40262770D01*
X108833166Y-40125635D01*
X108833167Y-40125635D01*
X108725915Y-40085632D01*
X108565046Y-40025631D01*
X108565043Y-40025630D01*
X108565037Y-40025628D01*
X108285433Y-39964804D01*
X108000001Y-39944390D01*
X107999999Y-39944390D01*
X107714566Y-39964804D01*
X107434962Y-40025628D01*
X107166833Y-40125635D01*
X106915690Y-40262770D01*
X106915682Y-40262775D01*
X106686612Y-40434254D01*
X106686594Y-40434270D01*
X106484270Y-40636594D01*
X106484254Y-40636612D01*
X106312775Y-40865682D01*
X106312770Y-40865690D01*
X106175635Y-41116833D01*
X106075628Y-41384962D01*
X106014804Y-41664566D01*
X105994390Y-41949998D01*
X97555408Y-41949998D01*
X97535802Y-41688370D01*
X97477420Y-41432584D01*
X97381568Y-41188357D01*
X97250386Y-40961143D01*
X97086805Y-40756019D01*
X97086804Y-40756018D01*
X97086801Y-40756014D01*
X96894479Y-40577567D01*
X96677704Y-40429772D01*
X96677700Y-40429770D01*
X96677697Y-40429768D01*
X96677696Y-40429767D01*
X96441325Y-40315938D01*
X96441327Y-40315938D01*
X96190623Y-40238606D01*
X96190619Y-40238605D01*
X96190615Y-40238604D01*
X96065823Y-40219794D01*
X95931187Y-40199500D01*
X95931182Y-40199500D01*
X95668818Y-40199500D01*
X95668812Y-40199500D01*
X95507247Y-40223853D01*
X95409385Y-40238604D01*
X95409382Y-40238605D01*
X95409376Y-40238606D01*
X95158673Y-40315938D01*
X94922303Y-40429767D01*
X94922302Y-40429768D01*
X94705520Y-40577567D01*
X94513198Y-40756014D01*
X94349614Y-40961143D01*
X94218432Y-41188356D01*
X94122582Y-41432578D01*
X94122576Y-41432597D01*
X94064197Y-41688374D01*
X94064196Y-41688379D01*
X94044592Y-41949995D01*
X94044592Y-41950004D01*
X94064077Y-42210026D01*
X94049457Y-42278349D01*
X94028105Y-42306973D01*
X93371899Y-42963181D01*
X93310576Y-42996666D01*
X93284218Y-42999500D01*
X91337180Y-42999500D01*
X91270141Y-42979815D01*
X91237913Y-42949811D01*
X91229713Y-42938857D01*
X91157546Y-42842454D01*
X91078348Y-42783166D01*
X91042335Y-42756206D01*
X91042328Y-42756202D01*
X90907482Y-42705908D01*
X90907483Y-42705908D01*
X90847883Y-42699501D01*
X90847881Y-42699500D01*
X90847873Y-42699500D01*
X90847864Y-42699500D01*
X89152129Y-42699500D01*
X89152123Y-42699501D01*
X89092516Y-42705908D01*
X88957671Y-42756202D01*
X88957664Y-42756206D01*
X88842455Y-42842452D01*
X88842452Y-42842455D01*
X88756206Y-42957664D01*
X88756202Y-42957671D01*
X88705908Y-43092517D01*
X88699501Y-43152116D01*
X88699500Y-43152135D01*
X25000000Y-43152135D01*
X25000000Y-35129999D01*
X29029364Y-35129999D01*
X29029364Y-35130000D01*
X29926988Y-35130000D01*
X29894075Y-35187007D01*
X29860000Y-35314174D01*
X29860000Y-35445826D01*
X29894075Y-35572993D01*
X29926988Y-35630000D01*
X29029364Y-35630000D01*
X29086567Y-35843486D01*
X29086570Y-35843492D01*
X29186399Y-36057578D01*
X29321894Y-36251082D01*
X29488917Y-36418105D01*
X29682421Y-36553600D01*
X29896507Y-36653429D01*
X29896516Y-36653433D01*
X30110000Y-36710634D01*
X30110000Y-35813012D01*
X30167007Y-35845925D01*
X30294174Y-35880000D01*
X30425826Y-35880000D01*
X30552993Y-35845925D01*
X30610000Y-35813012D01*
X30610000Y-36710633D01*
X30823483Y-36653433D01*
X30823492Y-36653429D01*
X31037578Y-36553600D01*
X31231082Y-36418105D01*
X31398105Y-36251082D01*
X31533600Y-36057578D01*
X31633429Y-35843492D01*
X31633432Y-35843486D01*
X31690636Y-35630000D01*
X30793012Y-35630000D01*
X30825925Y-35572993D01*
X30860000Y-35445826D01*
X30860000Y-35379999D01*
X46784341Y-35379999D01*
X46784341Y-35380000D01*
X46804936Y-35615403D01*
X46804938Y-35615413D01*
X46866094Y-35843655D01*
X46866096Y-35843659D01*
X46866097Y-35843663D01*
X46950271Y-36024175D01*
X46965965Y-36057830D01*
X46965967Y-36057834D01*
X47051453Y-36179920D01*
X47101505Y-36251401D01*
X47268599Y-36418495D01*
X47365384Y-36486265D01*
X47462165Y-36554032D01*
X47462167Y-36554033D01*
X47462170Y-36554035D01*
X47676337Y-36653903D01*
X47904592Y-36715063D01*
X48092918Y-36731539D01*
X48139999Y-36735659D01*
X48140000Y-36735659D01*
X48140001Y-36735659D01*
X48179234Y-36732226D01*
X48375408Y-36715063D01*
X48603663Y-36653903D01*
X48817830Y-36554035D01*
X49011401Y-36418495D01*
X49178495Y-36251401D01*
X49179477Y-36249999D01*
X83481127Y-36249999D01*
X83481128Y-36250000D01*
X84444314Y-36250000D01*
X84439920Y-36254394D01*
X84387259Y-36345606D01*
X84360000Y-36447339D01*
X84360000Y-36552661D01*
X84387259Y-36654394D01*
X84439920Y-36745606D01*
X84444314Y-36750000D01*
X83481128Y-36750000D01*
X83533730Y-36946317D01*
X83533734Y-36946326D01*
X83629865Y-37152482D01*
X83760342Y-37338820D01*
X83921179Y-37499657D01*
X84107517Y-37630134D01*
X84313673Y-37726265D01*
X84313682Y-37726269D01*
X84509999Y-37778872D01*
X84510000Y-37778871D01*
X84510000Y-36815686D01*
X84514394Y-36820080D01*
X84605606Y-36872741D01*
X84707339Y-36900000D01*
X84812661Y-36900000D01*
X84914394Y-36872741D01*
X85005606Y-36820080D01*
X85010000Y-36815686D01*
X85010000Y-37778872D01*
X85206317Y-37726269D01*
X85206326Y-37726265D01*
X85412482Y-37630134D01*
X85598820Y-37499657D01*
X85759657Y-37338820D01*
X85890134Y-37152482D01*
X85986265Y-36946326D01*
X85986269Y-36946317D01*
X86038872Y-36750000D01*
X85075686Y-36750000D01*
X85080080Y-36745606D01*
X85132741Y-36654394D01*
X85160000Y-36552661D01*
X85160000Y-36499998D01*
X98694532Y-36499998D01*
X98694532Y-36500001D01*
X98714364Y-36726686D01*
X98714366Y-36726697D01*
X98773258Y-36946488D01*
X98773261Y-36946497D01*
X98869431Y-37152732D01*
X98869432Y-37152734D01*
X98999954Y-37339141D01*
X99160858Y-37500045D01*
X99160861Y-37500047D01*
X99347266Y-37630568D01*
X99553504Y-37726739D01*
X99553509Y-37726740D01*
X99553511Y-37726741D01*
X99588839Y-37736207D01*
X99773308Y-37785635D01*
X99935230Y-37799801D01*
X99999998Y-37805468D01*
X100000000Y-37805468D01*
X100000002Y-37805468D01*
X100056673Y-37800509D01*
X100226692Y-37785635D01*
X100446496Y-37726739D01*
X100652734Y-37630568D01*
X100839139Y-37500047D01*
X101000047Y-37339139D01*
X101130568Y-37152734D01*
X101226739Y-36946496D01*
X101285635Y-36726692D01*
X101305468Y-36500000D01*
X101285635Y-36273308D01*
X101226739Y-36053504D01*
X101130568Y-35847266D01*
X101028947Y-35702135D01*
X102169500Y-35702135D01*
X102169500Y-37297870D01*
X102169501Y-37297876D01*
X102175908Y-37357483D01*
X102226202Y-37492328D01*
X102226206Y-37492335D01*
X102312452Y-37607544D01*
X102312455Y-37607547D01*
X102427664Y-37693793D01*
X102427671Y-37693797D01*
X102562517Y-37744091D01*
X102562516Y-37744091D01*
X102569444Y-37744835D01*
X102622127Y-37750500D01*
X104217872Y-37750499D01*
X104277483Y-37744091D01*
X104412331Y-37693796D01*
X104527546Y-37607546D01*
X104613796Y-37492331D01*
X104664091Y-37357483D01*
X104670500Y-37297873D01*
X104670499Y-37231860D01*
X104690183Y-37164824D01*
X104742986Y-37119068D01*
X104812144Y-37109124D01*
X104875700Y-37138148D01*
X104896073Y-37160738D01*
X104945877Y-37231864D01*
X104998402Y-37306877D01*
X105153123Y-37461598D01*
X105332361Y-37587102D01*
X105530670Y-37679575D01*
X105742023Y-37736207D01*
X105924926Y-37752208D01*
X105959998Y-37755277D01*
X105960000Y-37755277D01*
X105960002Y-37755277D01*
X105988254Y-37752805D01*
X106177977Y-37736207D01*
X106389330Y-37679575D01*
X106587639Y-37587102D01*
X106766877Y-37461598D01*
X106921598Y-37306877D01*
X107047102Y-37127639D01*
X107117895Y-36975822D01*
X107164066Y-36923385D01*
X107231260Y-36904233D01*
X107298141Y-36924449D01*
X107342658Y-36975824D01*
X107413333Y-37127387D01*
X107456874Y-37189571D01*
X108100000Y-36546445D01*
X108100000Y-36552661D01*
X108127259Y-36654394D01*
X108179920Y-36745606D01*
X108254394Y-36820080D01*
X108345606Y-36872741D01*
X108447339Y-36900000D01*
X108453553Y-36900000D01*
X107810427Y-37543124D01*
X107872612Y-37586666D01*
X108070840Y-37679101D01*
X108070849Y-37679105D01*
X108282105Y-37735710D01*
X108282115Y-37735712D01*
X108499999Y-37754775D01*
X108500001Y-37754775D01*
X108717884Y-37735712D01*
X108717894Y-37735710D01*
X108929150Y-37679105D01*
X108929164Y-37679100D01*
X109127383Y-37586669D01*
X109127385Y-37586668D01*
X109189571Y-37543124D01*
X108546448Y-36900000D01*
X108552661Y-36900000D01*
X108654394Y-36872741D01*
X108745606Y-36820080D01*
X108820080Y-36745606D01*
X108872741Y-36654394D01*
X108900000Y-36552661D01*
X108900000Y-36546446D01*
X109543124Y-37189570D01*
X109586668Y-37127385D01*
X109586669Y-37127383D01*
X109679100Y-36929164D01*
X109679105Y-36929150D01*
X109735710Y-36717894D01*
X109735712Y-36717884D01*
X109754775Y-36500000D01*
X109754775Y-36499999D01*
X109735712Y-36282115D01*
X109735710Y-36282105D01*
X109679105Y-36070849D01*
X109679101Y-36070840D01*
X109586667Y-35872614D01*
X109586666Y-35872612D01*
X109543124Y-35810428D01*
X109543124Y-35810427D01*
X108900000Y-36453551D01*
X108900000Y-36447339D01*
X108872741Y-36345606D01*
X108820080Y-36254394D01*
X108745606Y-36179920D01*
X108654394Y-36127259D01*
X108552661Y-36100000D01*
X108546447Y-36100000D01*
X109189571Y-35456874D01*
X109127387Y-35413333D01*
X108929159Y-35320898D01*
X108929150Y-35320894D01*
X108717894Y-35264289D01*
X108717884Y-35264287D01*
X108500001Y-35245225D01*
X108499999Y-35245225D01*
X108282115Y-35264287D01*
X108282105Y-35264289D01*
X108070849Y-35320894D01*
X108070840Y-35320898D01*
X107872613Y-35413333D01*
X107810428Y-35456874D01*
X108453554Y-36100000D01*
X108447339Y-36100000D01*
X108345606Y-36127259D01*
X108254394Y-36179920D01*
X108179920Y-36254394D01*
X108127259Y-36345606D01*
X108100000Y-36447339D01*
X108100000Y-36453554D01*
X107456874Y-35810428D01*
X107413333Y-35872613D01*
X107342658Y-36024175D01*
X107296485Y-36076614D01*
X107229292Y-36095766D01*
X107162411Y-36075550D01*
X107117894Y-36024175D01*
X107108402Y-36003820D01*
X107047102Y-35872362D01*
X107047100Y-35872359D01*
X107047099Y-35872357D01*
X106921599Y-35693124D01*
X106858475Y-35630000D01*
X106766877Y-35538402D01*
X106628978Y-35441844D01*
X106587638Y-35412897D01*
X106488484Y-35366661D01*
X106389330Y-35320425D01*
X106389326Y-35320424D01*
X106389322Y-35320422D01*
X106177977Y-35263793D01*
X105960002Y-35244723D01*
X105959998Y-35244723D01*
X105832151Y-35255908D01*
X105742023Y-35263793D01*
X105742020Y-35263793D01*
X105530677Y-35320422D01*
X105530668Y-35320426D01*
X105332361Y-35412898D01*
X105332357Y-35412900D01*
X105153121Y-35538402D01*
X104998402Y-35693121D01*
X104896074Y-35839262D01*
X104841497Y-35882887D01*
X104771999Y-35890081D01*
X104709644Y-35858558D01*
X104674230Y-35798328D01*
X104670499Y-35768139D01*
X104670499Y-35702129D01*
X104670498Y-35702123D01*
X104670497Y-35702116D01*
X104664091Y-35642517D01*
X104659422Y-35630000D01*
X104613797Y-35507671D01*
X104613793Y-35507664D01*
X104527547Y-35392455D01*
X104527544Y-35392452D01*
X104412335Y-35306206D01*
X104412328Y-35306202D01*
X104277482Y-35255908D01*
X104277483Y-35255908D01*
X104217883Y-35249501D01*
X104217881Y-35249500D01*
X104217873Y-35249500D01*
X104217864Y-35249500D01*
X102622129Y-35249500D01*
X102622123Y-35249501D01*
X102562516Y-35255908D01*
X102427671Y-35306202D01*
X102427664Y-35306206D01*
X102312455Y-35392452D01*
X102312452Y-35392455D01*
X102226206Y-35507664D01*
X102226202Y-35507671D01*
X102175908Y-35642517D01*
X102170468Y-35693121D01*
X102169501Y-35702123D01*
X102169500Y-35702135D01*
X101028947Y-35702135D01*
X101022637Y-35693123D01*
X101000045Y-35660858D01*
X100839141Y-35499954D01*
X100652734Y-35369432D01*
X100652732Y-35369431D01*
X100446497Y-35273261D01*
X100446488Y-35273258D01*
X100226697Y-35214366D01*
X100226693Y-35214365D01*
X100226692Y-35214365D01*
X100226691Y-35214364D01*
X100226686Y-35214364D01*
X100000002Y-35194532D01*
X99999998Y-35194532D01*
X99773313Y-35214364D01*
X99773302Y-35214366D01*
X99553511Y-35273258D01*
X99553502Y-35273261D01*
X99347267Y-35369431D01*
X99347265Y-35369432D01*
X99160858Y-35499954D01*
X98999954Y-35660858D01*
X98869432Y-35847265D01*
X98869431Y-35847267D01*
X98773261Y-36053502D01*
X98773258Y-36053511D01*
X98714366Y-36273302D01*
X98714364Y-36273313D01*
X98694532Y-36499998D01*
X85160000Y-36499998D01*
X85160000Y-36447339D01*
X85132741Y-36345606D01*
X85080080Y-36254394D01*
X85075686Y-36250000D01*
X86038872Y-36250000D01*
X86038872Y-36249999D01*
X85986269Y-36053682D01*
X85986265Y-36053673D01*
X85890134Y-35847517D01*
X85759657Y-35661179D01*
X85598820Y-35500342D01*
X85412482Y-35369865D01*
X85206328Y-35273734D01*
X85010000Y-35221127D01*
X85010000Y-36184314D01*
X85005606Y-36179920D01*
X84914394Y-36127259D01*
X84812661Y-36100000D01*
X84707339Y-36100000D01*
X84605606Y-36127259D01*
X84514394Y-36179920D01*
X84510000Y-36184314D01*
X84510000Y-35221127D01*
X84313671Y-35273734D01*
X84107517Y-35369865D01*
X83921179Y-35500342D01*
X83760342Y-35661179D01*
X83629865Y-35847517D01*
X83533734Y-36053673D01*
X83533730Y-36053682D01*
X83481127Y-36249999D01*
X49179477Y-36249999D01*
X49314035Y-36057830D01*
X49413903Y-35843663D01*
X49475063Y-35615408D01*
X49495659Y-35380000D01*
X49475063Y-35144592D01*
X49413903Y-34916337D01*
X49314035Y-34702171D01*
X49178495Y-34508599D01*
X49178494Y-34508597D01*
X49011402Y-34341506D01*
X49011395Y-34341501D01*
X49009965Y-34340500D01*
X48951512Y-34299570D01*
X48817834Y-34205967D01*
X48817830Y-34205965D01*
X48817828Y-34205964D01*
X48603663Y-34106097D01*
X48603659Y-34106096D01*
X48603655Y-34106094D01*
X48375413Y-34044938D01*
X48375403Y-34044936D01*
X48140001Y-34024341D01*
X48139999Y-34024341D01*
X47904596Y-34044936D01*
X47904586Y-34044938D01*
X47676344Y-34106094D01*
X47676335Y-34106098D01*
X47462171Y-34205964D01*
X47462169Y-34205965D01*
X47268597Y-34341505D01*
X47101505Y-34508597D01*
X46965965Y-34702169D01*
X46965964Y-34702171D01*
X46866098Y-34916335D01*
X46866094Y-34916344D01*
X46804938Y-35144586D01*
X46804936Y-35144596D01*
X46784341Y-35379999D01*
X30860000Y-35379999D01*
X30860000Y-35314174D01*
X30825925Y-35187007D01*
X30793012Y-35130000D01*
X31690636Y-35130000D01*
X31690635Y-35129999D01*
X31633432Y-34916513D01*
X31633429Y-34916507D01*
X31533600Y-34702422D01*
X31533599Y-34702420D01*
X31398113Y-34508926D01*
X31398108Y-34508920D01*
X31231082Y-34341894D01*
X31037578Y-34206399D01*
X30823492Y-34106570D01*
X30823486Y-34106567D01*
X30610000Y-34049364D01*
X30610000Y-34946988D01*
X30552993Y-34914075D01*
X30425826Y-34880000D01*
X30294174Y-34880000D01*
X30167007Y-34914075D01*
X30110000Y-34946988D01*
X30110000Y-34049364D01*
X30109999Y-34049364D01*
X29896513Y-34106567D01*
X29896507Y-34106570D01*
X29682422Y-34206399D01*
X29682420Y-34206400D01*
X29488926Y-34341886D01*
X29488920Y-34341891D01*
X29321891Y-34508920D01*
X29321886Y-34508926D01*
X29186400Y-34702420D01*
X29186399Y-34702422D01*
X29086570Y-34916507D01*
X29086567Y-34916513D01*
X29029364Y-35129999D01*
X25000000Y-35129999D01*
X25000000Y-32839994D01*
X62494357Y-32839994D01*
X62494357Y-32840005D01*
X62514890Y-33087812D01*
X62514892Y-33087824D01*
X62575936Y-33328881D01*
X62675826Y-33556606D01*
X62811833Y-33764782D01*
X62811836Y-33764785D01*
X62980256Y-33947738D01*
X63176491Y-34100474D01*
X63395190Y-34218828D01*
X63630386Y-34299571D01*
X63875665Y-34340500D01*
X64124335Y-34340500D01*
X64369614Y-34299571D01*
X64604810Y-34218828D01*
X64823509Y-34100474D01*
X65019744Y-33947738D01*
X65188164Y-33764785D01*
X65324173Y-33556607D01*
X65424063Y-33328881D01*
X65485108Y-33087821D01*
X65505643Y-32840000D01*
X65485108Y-32592179D01*
X65471259Y-32537489D01*
X65473883Y-32467669D01*
X65513839Y-32410351D01*
X65578440Y-32383734D01*
X65623555Y-32387272D01*
X65764592Y-32425063D01*
X65952918Y-32441539D01*
X65999999Y-32445659D01*
X66000000Y-32445659D01*
X66000001Y-32445659D01*
X66039234Y-32442226D01*
X66235408Y-32425063D01*
X66463663Y-32363903D01*
X66677830Y-32264035D01*
X66871401Y-32128495D01*
X67038495Y-31961401D01*
X67174035Y-31767830D01*
X67273903Y-31553663D01*
X67335063Y-31325408D01*
X67355659Y-31090000D01*
X67355659Y-31089999D01*
X68644341Y-31089999D01*
X68644341Y-31090000D01*
X68664936Y-31325403D01*
X68664938Y-31325413D01*
X68726094Y-31553655D01*
X68726096Y-31553659D01*
X68726097Y-31553663D01*
X68809379Y-31732261D01*
X68825965Y-31767830D01*
X68825967Y-31767834D01*
X68929165Y-31915215D01*
X68961505Y-31961401D01*
X69128599Y-32128495D01*
X69225384Y-32196265D01*
X69322165Y-32264032D01*
X69322167Y-32264033D01*
X69322170Y-32264035D01*
X69536337Y-32363903D01*
X69764592Y-32425063D01*
X69952918Y-32441539D01*
X69999999Y-32445659D01*
X70000000Y-32445659D01*
X70000001Y-32445659D01*
X70039234Y-32442226D01*
X70235408Y-32425063D01*
X70463663Y-32363903D01*
X70677830Y-32264035D01*
X70871401Y-32128495D01*
X71038495Y-31961401D01*
X71174035Y-31767830D01*
X71273903Y-31553663D01*
X71335063Y-31325408D01*
X71355659Y-31090000D01*
X71355659Y-31089999D01*
X72644341Y-31089999D01*
X72644341Y-31090000D01*
X72664936Y-31325403D01*
X72664938Y-31325413D01*
X72726094Y-31553655D01*
X72726096Y-31553659D01*
X72726097Y-31553663D01*
X72809379Y-31732261D01*
X72825965Y-31767830D01*
X72825967Y-31767834D01*
X72929165Y-31915215D01*
X72961505Y-31961401D01*
X73128599Y-32128495D01*
X73225384Y-32196265D01*
X73322165Y-32264032D01*
X73322167Y-32264033D01*
X73322170Y-32264035D01*
X73536337Y-32363903D01*
X73764592Y-32425063D01*
X73952918Y-32441539D01*
X73999999Y-32445659D01*
X74000000Y-32445659D01*
X74000001Y-32445659D01*
X74039234Y-32442226D01*
X74235408Y-32425063D01*
X74376443Y-32387273D01*
X74446291Y-32388936D01*
X74504154Y-32428098D01*
X74531658Y-32492327D01*
X74528741Y-32537487D01*
X74514893Y-32592171D01*
X74514890Y-32592187D01*
X74494357Y-32839994D01*
X74494357Y-32840005D01*
X74514890Y-33087812D01*
X74514892Y-33087824D01*
X74575936Y-33328881D01*
X74675826Y-33556606D01*
X74811833Y-33764782D01*
X74811836Y-33764785D01*
X74980256Y-33947738D01*
X75176491Y-34100474D01*
X75395190Y-34218828D01*
X75630386Y-34299571D01*
X75875665Y-34340500D01*
X76124335Y-34340500D01*
X76369614Y-34299571D01*
X76604810Y-34218828D01*
X76823509Y-34100474D01*
X77019744Y-33947738D01*
X77188164Y-33764785D01*
X77324173Y-33556607D01*
X77424063Y-33328881D01*
X77485108Y-33087821D01*
X77505643Y-32840000D01*
X77485108Y-32592179D01*
X77433640Y-32388936D01*
X77424063Y-32351118D01*
X77324173Y-32123393D01*
X77188166Y-31915217D01*
X77166557Y-31891744D01*
X77019744Y-31732262D01*
X76823509Y-31579526D01*
X76823507Y-31579525D01*
X76823506Y-31579524D01*
X76604811Y-31461172D01*
X76604802Y-31461169D01*
X76369616Y-31380429D01*
X76124335Y-31339500D01*
X75875665Y-31339500D01*
X75630383Y-31380429D01*
X75501371Y-31424719D01*
X75431572Y-31427869D01*
X75371151Y-31392783D01*
X75339290Y-31330600D01*
X75337580Y-31296635D01*
X75355659Y-31090000D01*
X75335063Y-30854592D01*
X75273903Y-30626337D01*
X75174035Y-30412171D01*
X75038495Y-30218599D01*
X75038494Y-30218597D01*
X74871402Y-30051506D01*
X74871395Y-30051501D01*
X74677834Y-29915967D01*
X74677830Y-29915965D01*
X74677828Y-29915964D01*
X74463663Y-29816097D01*
X74463659Y-29816096D01*
X74463655Y-29816094D01*
X74235413Y-29754938D01*
X74235403Y-29754936D01*
X74000001Y-29734341D01*
X73999999Y-29734341D01*
X73764596Y-29754936D01*
X73764586Y-29754938D01*
X73536344Y-29816094D01*
X73536335Y-29816098D01*
X73322171Y-29915964D01*
X73322169Y-29915965D01*
X73128597Y-30051505D01*
X72961505Y-30218597D01*
X72825965Y-30412169D01*
X72825964Y-30412171D01*
X72726098Y-30626335D01*
X72726094Y-30626344D01*
X72664938Y-30854586D01*
X72664936Y-30854596D01*
X72644341Y-31089999D01*
X71355659Y-31089999D01*
X71335063Y-30854592D01*
X71273903Y-30626337D01*
X71174035Y-30412171D01*
X71038495Y-30218599D01*
X71038494Y-30218597D01*
X70871402Y-30051506D01*
X70871395Y-30051501D01*
X70677834Y-29915967D01*
X70677830Y-29915965D01*
X70677828Y-29915964D01*
X70463663Y-29816097D01*
X70463659Y-29816096D01*
X70463655Y-29816094D01*
X70235413Y-29754938D01*
X70235403Y-29754936D01*
X70000001Y-29734341D01*
X69999999Y-29734341D01*
X69764596Y-29754936D01*
X69764586Y-29754938D01*
X69536344Y-29816094D01*
X69536335Y-29816098D01*
X69322171Y-29915964D01*
X69322169Y-29915965D01*
X69128597Y-30051505D01*
X68961505Y-30218597D01*
X68825965Y-30412169D01*
X68825964Y-30412171D01*
X68726098Y-30626335D01*
X68726094Y-30626344D01*
X68664938Y-30854586D01*
X68664936Y-30854596D01*
X68644341Y-31089999D01*
X67355659Y-31089999D01*
X67335063Y-30854592D01*
X67273903Y-30626337D01*
X67174035Y-30412171D01*
X67038495Y-30218599D01*
X67038494Y-30218597D01*
X66871402Y-30051506D01*
X66871395Y-30051501D01*
X66677834Y-29915967D01*
X66677830Y-29915965D01*
X66677828Y-29915964D01*
X66463663Y-29816097D01*
X66463659Y-29816096D01*
X66463655Y-29816094D01*
X66235413Y-29754938D01*
X66235403Y-29754936D01*
X66000001Y-29734341D01*
X65999999Y-29734341D01*
X65764596Y-29754936D01*
X65764586Y-29754938D01*
X65536344Y-29816094D01*
X65536335Y-29816098D01*
X65322171Y-29915964D01*
X65322169Y-29915965D01*
X65128597Y-30051505D01*
X64961505Y-30218597D01*
X64825965Y-30412169D01*
X64825964Y-30412171D01*
X64726098Y-30626335D01*
X64726094Y-30626344D01*
X64664938Y-30854586D01*
X64664936Y-30854596D01*
X64644341Y-31089999D01*
X64644341Y-31090001D01*
X64662419Y-31296631D01*
X64648652Y-31365131D01*
X64600037Y-31415314D01*
X64532009Y-31431247D01*
X64498628Y-31424719D01*
X64369616Y-31380429D01*
X64124335Y-31339500D01*
X63875665Y-31339500D01*
X63630383Y-31380429D01*
X63395197Y-31461169D01*
X63395188Y-31461172D01*
X63176493Y-31579524D01*
X62980257Y-31732261D01*
X62811833Y-31915217D01*
X62675826Y-32123393D01*
X62575936Y-32351118D01*
X62514892Y-32592175D01*
X62514890Y-32592187D01*
X62494357Y-32839994D01*
X25000000Y-32839994D01*
X25000000Y-28000882D01*
X25000012Y-27999144D01*
X25002274Y-27837729D01*
X25003041Y-27825610D01*
X25039277Y-27504005D01*
X25041606Y-27490299D01*
X25113426Y-27175633D01*
X25117272Y-27162279D01*
X25223883Y-26857601D01*
X25229196Y-26844777D01*
X25231499Y-26839994D01*
X62494357Y-26839994D01*
X62494357Y-26840005D01*
X62514890Y-27087812D01*
X62514892Y-27087824D01*
X62575936Y-27328881D01*
X62675826Y-27556606D01*
X62811833Y-27764782D01*
X62811836Y-27764785D01*
X62980256Y-27947738D01*
X63176491Y-28100474D01*
X63395190Y-28218828D01*
X63630386Y-28299571D01*
X63875665Y-28340500D01*
X64124335Y-28340500D01*
X64369614Y-28299571D01*
X64604810Y-28218828D01*
X64823509Y-28100474D01*
X65019744Y-27947738D01*
X65188164Y-27764785D01*
X65324173Y-27556607D01*
X65424063Y-27328881D01*
X65485108Y-27087821D01*
X65504185Y-26857601D01*
X65505643Y-26840005D01*
X65505643Y-26839994D01*
X74494357Y-26839994D01*
X74494357Y-26840005D01*
X74514890Y-27087812D01*
X74514892Y-27087824D01*
X74575936Y-27328881D01*
X74675826Y-27556606D01*
X74811833Y-27764782D01*
X74811836Y-27764785D01*
X74980256Y-27947738D01*
X75176491Y-28100474D01*
X75395190Y-28218828D01*
X75630386Y-28299571D01*
X75875665Y-28340500D01*
X76124335Y-28340500D01*
X76369614Y-28299571D01*
X76604810Y-28218828D01*
X76823509Y-28100474D01*
X77019744Y-27947738D01*
X77188164Y-27764785D01*
X77324173Y-27556607D01*
X77424063Y-27328881D01*
X77485108Y-27087821D01*
X77504185Y-26857601D01*
X77505643Y-26840005D01*
X77505643Y-26839994D01*
X77485109Y-26592187D01*
X77485107Y-26592175D01*
X77424063Y-26351118D01*
X77324173Y-26123393D01*
X77188166Y-25915217D01*
X77166557Y-25891744D01*
X77019744Y-25732262D01*
X76823509Y-25579526D01*
X76823507Y-25579525D01*
X76823506Y-25579524D01*
X76604811Y-25461172D01*
X76604802Y-25461169D01*
X76369616Y-25380429D01*
X76124335Y-25339500D01*
X75875665Y-25339500D01*
X75630383Y-25380429D01*
X75395197Y-25461169D01*
X75395188Y-25461172D01*
X75176493Y-25579524D01*
X74980257Y-25732261D01*
X74811833Y-25915217D01*
X74675826Y-26123393D01*
X74575936Y-26351118D01*
X74514892Y-26592175D01*
X74514890Y-26592187D01*
X74494357Y-26839994D01*
X65505643Y-26839994D01*
X65485109Y-26592187D01*
X65485107Y-26592175D01*
X65424063Y-26351118D01*
X65324173Y-26123393D01*
X65188166Y-25915217D01*
X65166557Y-25891744D01*
X65019744Y-25732262D01*
X64823509Y-25579526D01*
X64823507Y-25579525D01*
X64823506Y-25579524D01*
X64604811Y-25461172D01*
X64604802Y-25461169D01*
X64369616Y-25380429D01*
X64124335Y-25339500D01*
X63875665Y-25339500D01*
X63630383Y-25380429D01*
X63395197Y-25461169D01*
X63395188Y-25461172D01*
X63176493Y-25579524D01*
X62980257Y-25732261D01*
X62811833Y-25915217D01*
X62675826Y-26123393D01*
X62575936Y-26351118D01*
X62514892Y-26592175D01*
X62514890Y-26592187D01*
X62494357Y-26839994D01*
X25231499Y-26839994D01*
X25369243Y-26553965D01*
X25375959Y-26541813D01*
X25547693Y-26268501D01*
X25555723Y-26257183D01*
X25756979Y-26004816D01*
X25766228Y-25994467D01*
X25994467Y-25766228D01*
X26004816Y-25756979D01*
X26257183Y-25555723D01*
X26268501Y-25547693D01*
X26541813Y-25375959D01*
X26553965Y-25369243D01*
X26844777Y-25229196D01*
X26857601Y-25223883D01*
X27162279Y-25117272D01*
X27175627Y-25113427D01*
X27393293Y-25063746D01*
X27490299Y-25041606D01*
X27504005Y-25039277D01*
X27825610Y-25003041D01*
X27837729Y-25002274D01*
X27999144Y-25000011D01*
X28000882Y-25000000D01*
X111999118Y-25000000D01*
X112000855Y-25000011D01*
G37*
%TD.AperFunction*%
%TD*%
M02*
