%TF.GenerationSoftware,KiCad,Pcbnew,7.0.11-7.0.11~ubuntu22.04.1*%
%TF.CreationDate,2024-05-31T21:02:23-04:00*%
%TF.ProjectId,GarageDoor,47617261-6765-4446-9f6f-722e6b696361,rev?*%
%TF.SameCoordinates,Original*%
%TF.FileFunction,Drillmap*%
%TF.FilePolarity,Positive*%
%FSLAX45Y45*%
G04 Gerber Fmt 4.5, Leading zero omitted, Abs format (unit mm)*
G04 Created by KiCad (PCBNEW 7.0.11-7.0.11~ubuntu22.04.1) date 2024-05-31 21:02:23*
%MOMM*%
%LPD*%
G01*
G04 APERTURE LIST*
%ADD10C,0.050000*%
%ADD11C,0.200000*%
%ADD12C,0.100000*%
%ADD13C,0.101600*%
%ADD14C,0.120000*%
%ADD15C,0.130000*%
%ADD16C,0.152000*%
G04 APERTURE END LIST*
D10*
X11500000Y-2800000D02*
X11500000Y-9200000D01*
X2800000Y-2500000D02*
G75*
G03*
X2500000Y-2800000I0J-300000D01*
G01*
X2500000Y-9200000D02*
X2500000Y-2800000D01*
X11200000Y-9500000D02*
G75*
G03*
X11500000Y-9200000I0J300000D01*
G01*
X2500000Y-9200000D02*
G75*
G03*
X2800000Y-9500000I300000J0D01*
G01*
X11500000Y-2800000D02*
G75*
G03*
X11200000Y-2500000I-300000J0D01*
G01*
X2800000Y-2500000D02*
X11200000Y-2500000D01*
X11200000Y-9500000D02*
X2800000Y-9500000D01*
D11*
D12*
X5020000Y-8370000D02*
X5080000Y-8430000D01*
X5080000Y-8370000D02*
X5020000Y-8430000D01*
X5770000Y-7170000D02*
X5830000Y-7230000D01*
X5830000Y-7170000D02*
X5770000Y-7230000D01*
X6270000Y-6570000D02*
X6330000Y-6630000D01*
X6330000Y-6570000D02*
X6270000Y-6630000D01*
X6570000Y-6270000D02*
X6630000Y-6330000D01*
X6630000Y-6270000D02*
X6570000Y-6330000D01*
X6870000Y-8070000D02*
X6930000Y-8130000D01*
X6930000Y-8070000D02*
X6870000Y-8130000D01*
X7570000Y-6470000D02*
X7630000Y-6530000D01*
X7630000Y-6470000D02*
X7570000Y-6530000D01*
X7570000Y-6970000D02*
X7630000Y-7030000D01*
X7630000Y-6970000D02*
X7570000Y-7030000D01*
X7700000Y-6470000D02*
X7760000Y-6530000D01*
X7760000Y-6470000D02*
X7700000Y-6530000D01*
X8070000Y-6870000D02*
X8130000Y-6930000D01*
X8130000Y-6870000D02*
X8070000Y-6930000D01*
X8270000Y-6170000D02*
X8330000Y-6230000D01*
X8330000Y-6170000D02*
X8270000Y-6230000D01*
X8270000Y-7970000D02*
X8330000Y-8030000D01*
X8330000Y-7970000D02*
X8270000Y-8030000D01*
X9070000Y-5670000D02*
X9130000Y-5730000D01*
X9130000Y-5670000D02*
X9070000Y-5730000D01*
X9470000Y-5870000D02*
X9530000Y-5930000D01*
X9530000Y-5870000D02*
X9470000Y-5930000D01*
X6116000Y-7400000D02*
G75*
G03*
X6036000Y-7400000I-40000J0D01*
G01*
X6036000Y-7400000D02*
G75*
G03*
X6116000Y-7400000I40000J0D01*
G01*
X6116000Y-7800000D02*
G75*
G03*
X6036000Y-7800000I-40000J0D01*
G01*
X6036000Y-7800000D02*
G75*
G03*
X6116000Y-7800000I40000J0D01*
G01*
X7640000Y-7400000D02*
G75*
G03*
X7560000Y-7400000I-40000J0D01*
G01*
X7560000Y-7400000D02*
G75*
G03*
X7640000Y-7400000I40000J0D01*
G01*
X7640000Y-7800000D02*
G75*
G03*
X7560000Y-7800000I-40000J0D01*
G01*
X7560000Y-7800000D02*
G75*
G03*
X7640000Y-7800000I40000J0D01*
G01*
X8516000Y-3650000D02*
G75*
G03*
X8436000Y-3650000I-40000J0D01*
G01*
X8436000Y-3650000D02*
G75*
G03*
X8516000Y-3650000I40000J0D01*
G01*
X8516000Y-6000000D02*
G75*
G03*
X8436000Y-6000000I-40000J0D01*
G01*
X8436000Y-6000000D02*
G75*
G03*
X8516000Y-6000000I40000J0D01*
G01*
X9040000Y-4400000D02*
G75*
G03*
X8960000Y-4400000I-40000J0D01*
G01*
X8960000Y-4400000D02*
G75*
G03*
X9040000Y-4400000I40000J0D01*
G01*
X9040000Y-5416000D02*
G75*
G03*
X8960000Y-5416000I-40000J0D01*
G01*
X8960000Y-5416000D02*
G75*
G03*
X9040000Y-5416000I40000J0D01*
G01*
X9040000Y-6584000D02*
G75*
G03*
X8960000Y-6584000I-40000J0D01*
G01*
X8960000Y-6584000D02*
G75*
G03*
X9040000Y-6584000I40000J0D01*
G01*
X9040000Y-7600000D02*
G75*
G03*
X8960000Y-7600000I-40000J0D01*
G01*
X8960000Y-7600000D02*
G75*
G03*
X9040000Y-7600000I40000J0D01*
G01*
X10040000Y-3650000D02*
G75*
G03*
X9960000Y-3650000I-40000J0D01*
G01*
X9960000Y-3650000D02*
G75*
G03*
X10040000Y-3650000I40000J0D01*
G01*
X10040000Y-6000000D02*
G75*
G03*
X9960000Y-6000000I-40000J0D01*
G01*
X9960000Y-6000000D02*
G75*
G03*
X10040000Y-6000000I40000J0D01*
G01*
X10382000Y-3650000D02*
G75*
G03*
X10302000Y-3650000I-40000J0D01*
G01*
X10302000Y-3650000D02*
G75*
G03*
X10382000Y-3650000I40000J0D01*
G01*
X10432000Y-6000000D02*
G75*
G03*
X10352000Y-6000000I-40000J0D01*
G01*
X10352000Y-6000000D02*
G75*
G03*
X10432000Y-6000000I40000J0D01*
G01*
X10636000Y-3650000D02*
G75*
G03*
X10556000Y-3650000I-40000J0D01*
G01*
X10556000Y-3650000D02*
G75*
G03*
X10636000Y-3650000I40000J0D01*
G01*
X10686000Y-6000000D02*
G75*
G03*
X10606000Y-6000000I-40000J0D01*
G01*
X10606000Y-6000000D02*
G75*
G03*
X10686000Y-6000000I40000J0D01*
G01*
X10890000Y-3650000D02*
G75*
G03*
X10810000Y-3650000I-40000J0D01*
G01*
X10810000Y-3650000D02*
G75*
G03*
X10890000Y-3650000I40000J0D01*
G01*
X10940000Y-6000000D02*
G75*
G03*
X10860000Y-6000000I-40000J0D01*
G01*
X10860000Y-6000000D02*
G75*
G03*
X10940000Y-6000000I40000J0D01*
G01*
X6600000Y-3064000D02*
X6600000Y-3154000D01*
X6555000Y-3109000D02*
X6645000Y-3109000D01*
X7000000Y-3064000D02*
X7000000Y-3154000D01*
X6955000Y-3109000D02*
X7045000Y-3109000D01*
X7400000Y-3064000D02*
X7400000Y-3154000D01*
X7355000Y-3109000D02*
X7445000Y-3109000D01*
X3071356Y-3573356D02*
X3071356Y-3502644D01*
X3000644Y-3502644D01*
X3000644Y-3573356D01*
X3071356Y-3573356D01*
X3071356Y-7637356D02*
X3071356Y-7566644D01*
X3000644Y-7566644D01*
X3000644Y-7637356D01*
X3071356Y-7637356D01*
X4849356Y-3573356D02*
X4849356Y-3502644D01*
X4778644Y-3502644D01*
X4778644Y-3573356D01*
X4849356Y-3573356D01*
X4849356Y-7637356D02*
X4849356Y-7566644D01*
X4778644Y-7566644D01*
X4778644Y-7637356D01*
X4849356Y-7637356D01*
X5435356Y-7581356D02*
X5435356Y-7510644D01*
X5364644Y-7510644D01*
X5364644Y-7581356D01*
X5435356Y-7581356D01*
X5435356Y-7835356D02*
X5435356Y-7764644D01*
X5364644Y-7764644D01*
X5364644Y-7835356D01*
X5435356Y-7835356D01*
X9615356Y-4230356D02*
X9615356Y-4159644D01*
X9544644Y-4159644D01*
X9544644Y-4230356D01*
X9615356Y-4230356D01*
X9615356Y-5430356D02*
X9615356Y-5359644D01*
X9544644Y-5359644D01*
X9544644Y-5430356D01*
X9615356Y-5430356D01*
X9615356Y-6535356D02*
X9615356Y-6464644D01*
X9544644Y-6464644D01*
X9544644Y-6535356D01*
X9615356Y-6535356D01*
X9615356Y-7735356D02*
X9615356Y-7664644D01*
X9544644Y-7664644D01*
X9544644Y-7735356D01*
X9615356Y-7735356D01*
D13*
X5757000Y-4661800D02*
X5807800Y-4611000D01*
X5757000Y-4560200D01*
X5706200Y-4611000D01*
X5757000Y-4661800D01*
X5757000Y-4915800D02*
X5807800Y-4865000D01*
X5757000Y-4814200D01*
X5706200Y-4865000D01*
X5757000Y-4915800D01*
X5757000Y-5169800D02*
X5807800Y-5119000D01*
X5757000Y-5068200D01*
X5706200Y-5119000D01*
X5757000Y-5169800D01*
X5757000Y-5423800D02*
X5807800Y-5373000D01*
X5757000Y-5322200D01*
X5706200Y-5373000D01*
X5757000Y-5423800D01*
X5757000Y-5677800D02*
X5807800Y-5627000D01*
X5757000Y-5576200D01*
X5706200Y-5627000D01*
X5757000Y-5677800D01*
X5757000Y-5931800D02*
X5807800Y-5881000D01*
X5757000Y-5830200D01*
X5706200Y-5881000D01*
X5757000Y-5931800D01*
X5757000Y-6185800D02*
X5807800Y-6135000D01*
X5757000Y-6084200D01*
X5706200Y-6135000D01*
X5757000Y-6185800D01*
X5757000Y-6439800D02*
X5807800Y-6389000D01*
X5757000Y-6338200D01*
X5706200Y-6389000D01*
X5757000Y-6439800D01*
X8043000Y-4661800D02*
X8093800Y-4611000D01*
X8043000Y-4560200D01*
X7992200Y-4611000D01*
X8043000Y-4661800D01*
X8043000Y-4915800D02*
X8093800Y-4865000D01*
X8043000Y-4814200D01*
X7992200Y-4865000D01*
X8043000Y-4915800D01*
X8043000Y-5169800D02*
X8093800Y-5119000D01*
X8043000Y-5068200D01*
X7992200Y-5119000D01*
X8043000Y-5169800D01*
X8043000Y-5423800D02*
X8093800Y-5373000D01*
X8043000Y-5322200D01*
X7992200Y-5373000D01*
X8043000Y-5423800D01*
X8043000Y-5677800D02*
X8093800Y-5627000D01*
X8043000Y-5576200D01*
X7992200Y-5627000D01*
X8043000Y-5677800D01*
X8043000Y-5931800D02*
X8093800Y-5881000D01*
X8043000Y-5830200D01*
X7992200Y-5881000D01*
X8043000Y-5931800D01*
X8043000Y-6185800D02*
X8093800Y-6135000D01*
X8043000Y-6084200D01*
X7992200Y-6135000D01*
X8043000Y-6185800D01*
X8043000Y-6439800D02*
X8093800Y-6389000D01*
X8043000Y-6338200D01*
X7992200Y-6389000D01*
X8043000Y-6439800D01*
D14*
X6340000Y-2624000D02*
X6460000Y-2744000D01*
X6460000Y-2624000D02*
X6340000Y-2744000D01*
X6460000Y-2684000D02*
G75*
G03*
X6340000Y-2684000I-60000J0D01*
G01*
X6340000Y-2684000D02*
G75*
G03*
X6460000Y-2684000I60000J0D01*
G01*
X6340000Y-3224000D02*
X6460000Y-3344000D01*
X6460000Y-3224000D02*
X6340000Y-3344000D01*
X6460000Y-3284000D02*
G75*
G03*
X6340000Y-3284000I-60000J0D01*
G01*
X6340000Y-3284000D02*
G75*
G03*
X6460000Y-3284000I60000J0D01*
G01*
X7540000Y-2624000D02*
X7660000Y-2744000D01*
X7660000Y-2624000D02*
X7540000Y-2744000D01*
X7660000Y-2684000D02*
G75*
G03*
X7540000Y-2684000I-60000J0D01*
G01*
X7540000Y-2684000D02*
G75*
G03*
X7660000Y-2684000I60000J0D01*
G01*
X7540000Y-3224000D02*
X7660000Y-3344000D01*
X7660000Y-3224000D02*
X7540000Y-3344000D01*
X7660000Y-3284000D02*
G75*
G03*
X7540000Y-3284000I-60000J0D01*
G01*
X7540000Y-3284000D02*
G75*
G03*
X7660000Y-3284000I60000J0D01*
G01*
D15*
X9315000Y-4730000D02*
X9445000Y-4860000D01*
X9445000Y-4730000D02*
X9315000Y-4860000D01*
X9380000Y-4730000D02*
X9380000Y-4860000D01*
X9315000Y-4795000D02*
X9445000Y-4795000D01*
X9315000Y-7035000D02*
X9445000Y-7165000D01*
X9445000Y-7035000D02*
X9315000Y-7165000D01*
X9380000Y-7035000D02*
X9380000Y-7165000D01*
X9315000Y-7100000D02*
X9445000Y-7100000D01*
X10735000Y-4130000D02*
X10865000Y-4260000D01*
X10865000Y-4130000D02*
X10735000Y-4260000D01*
X10800000Y-4130000D02*
X10800000Y-4260000D01*
X10735000Y-4195000D02*
X10865000Y-4195000D01*
X10735000Y-5335000D02*
X10865000Y-5465000D01*
X10865000Y-5335000D02*
X10735000Y-5465000D01*
X10800000Y-5335000D02*
X10800000Y-5465000D01*
X10735000Y-5400000D02*
X10865000Y-5400000D01*
X10735000Y-6435000D02*
X10865000Y-6565000D01*
X10865000Y-6435000D02*
X10735000Y-6565000D01*
X10800000Y-6435000D02*
X10800000Y-6565000D01*
X10735000Y-6500000D02*
X10865000Y-6500000D01*
X10735000Y-7640000D02*
X10865000Y-7770000D01*
X10865000Y-7640000D02*
X10735000Y-7770000D01*
X10800000Y-7640000D02*
X10800000Y-7770000D01*
X10735000Y-7705000D02*
X10865000Y-7705000D01*
D16*
X4133000Y-9024000D02*
X4285000Y-9176000D01*
X4285000Y-9024000D02*
X4133000Y-9176000D01*
X4262741Y-9153741D02*
X4262741Y-9046259D01*
X4155259Y-9046259D01*
X4155259Y-9153741D01*
X4262741Y-9153741D01*
X4641000Y-9024000D02*
X4793000Y-9176000D01*
X4793000Y-9024000D02*
X4641000Y-9176000D01*
X4770741Y-9153741D02*
X4770741Y-9046259D01*
X4663259Y-9046259D01*
X4663259Y-9153741D01*
X4770741Y-9153741D01*
X5646000Y-9024000D02*
X5798000Y-9176000D01*
X5798000Y-9024000D02*
X5646000Y-9176000D01*
X5775741Y-9153741D02*
X5775741Y-9046259D01*
X5668259Y-9046259D01*
X5668259Y-9153741D01*
X5775741Y-9153741D01*
X6154000Y-9024000D02*
X6306000Y-9176000D01*
X6306000Y-9024000D02*
X6154000Y-9176000D01*
X6283741Y-9153741D02*
X6283741Y-9046259D01*
X6176259Y-9046259D01*
X6176259Y-9153741D01*
X6283741Y-9153741D01*
X6662000Y-9024000D02*
X6814000Y-9176000D01*
X6814000Y-9024000D02*
X6662000Y-9176000D01*
X6791741Y-9153741D02*
X6791741Y-9046259D01*
X6684259Y-9046259D01*
X6684259Y-9153741D01*
X6791741Y-9153741D01*
X7170000Y-9024000D02*
X7322000Y-9176000D01*
X7322000Y-9024000D02*
X7170000Y-9176000D01*
X7299741Y-9153741D02*
X7299741Y-9046259D01*
X7192259Y-9046259D01*
X7192259Y-9153741D01*
X7299741Y-9153741D01*
X8174000Y-9024000D02*
X8326000Y-9176000D01*
X8326000Y-9024000D02*
X8174000Y-9176000D01*
X8303741Y-9153741D02*
X8303741Y-9046259D01*
X8196259Y-9046259D01*
X8196259Y-9153741D01*
X8303741Y-9153741D01*
X8682000Y-9024000D02*
X8834000Y-9176000D01*
X8834000Y-9024000D02*
X8682000Y-9176000D01*
X8811741Y-9153741D02*
X8811741Y-9046259D01*
X8704259Y-9046259D01*
X8704259Y-9153741D01*
X8811741Y-9153741D01*
X9190000Y-9024000D02*
X9342000Y-9176000D01*
X9342000Y-9024000D02*
X9190000Y-9176000D01*
X9319741Y-9153741D02*
X9319741Y-9046259D01*
X9212259Y-9046259D01*
X9212259Y-9153741D01*
X9319741Y-9153741D01*
X9698000Y-9024000D02*
X9850000Y-9176000D01*
X9850000Y-9024000D02*
X9698000Y-9176000D01*
X9827741Y-9153741D02*
X9827741Y-9046259D01*
X9720259Y-9046259D01*
X9720259Y-9153741D01*
X9827741Y-9153741D01*
D11*
X2758277Y-12424984D02*
X2758277Y-12224984D01*
X2758277Y-12224984D02*
X2805896Y-12224984D01*
X2805896Y-12224984D02*
X2834467Y-12234508D01*
X2834467Y-12234508D02*
X2853515Y-12253555D01*
X2853515Y-12253555D02*
X2863039Y-12272603D01*
X2863039Y-12272603D02*
X2872562Y-12310698D01*
X2872562Y-12310698D02*
X2872562Y-12339269D01*
X2872562Y-12339269D02*
X2863039Y-12377365D01*
X2863039Y-12377365D02*
X2853515Y-12396412D01*
X2853515Y-12396412D02*
X2834467Y-12415460D01*
X2834467Y-12415460D02*
X2805896Y-12424984D01*
X2805896Y-12424984D02*
X2758277Y-12424984D01*
X2958277Y-12424984D02*
X2958277Y-12291650D01*
X2958277Y-12329746D02*
X2967801Y-12310698D01*
X2967801Y-12310698D02*
X2977324Y-12301174D01*
X2977324Y-12301174D02*
X2996372Y-12291650D01*
X2996372Y-12291650D02*
X3015420Y-12291650D01*
X3082086Y-12424984D02*
X3082086Y-12291650D01*
X3082086Y-12224984D02*
X3072562Y-12234508D01*
X3072562Y-12234508D02*
X3082086Y-12244031D01*
X3082086Y-12244031D02*
X3091610Y-12234508D01*
X3091610Y-12234508D02*
X3082086Y-12224984D01*
X3082086Y-12224984D02*
X3082086Y-12244031D01*
X3205896Y-12424984D02*
X3186848Y-12415460D01*
X3186848Y-12415460D02*
X3177324Y-12396412D01*
X3177324Y-12396412D02*
X3177324Y-12224984D01*
X3310658Y-12424984D02*
X3291610Y-12415460D01*
X3291610Y-12415460D02*
X3282086Y-12396412D01*
X3282086Y-12396412D02*
X3282086Y-12224984D01*
X3539229Y-12424984D02*
X3539229Y-12224984D01*
X3539229Y-12224984D02*
X3605896Y-12367841D01*
X3605896Y-12367841D02*
X3672562Y-12224984D01*
X3672562Y-12224984D02*
X3672562Y-12424984D01*
X3853515Y-12424984D02*
X3853515Y-12320222D01*
X3853515Y-12320222D02*
X3843991Y-12301174D01*
X3843991Y-12301174D02*
X3824943Y-12291650D01*
X3824943Y-12291650D02*
X3786848Y-12291650D01*
X3786848Y-12291650D02*
X3767801Y-12301174D01*
X3853515Y-12415460D02*
X3834467Y-12424984D01*
X3834467Y-12424984D02*
X3786848Y-12424984D01*
X3786848Y-12424984D02*
X3767801Y-12415460D01*
X3767801Y-12415460D02*
X3758277Y-12396412D01*
X3758277Y-12396412D02*
X3758277Y-12377365D01*
X3758277Y-12377365D02*
X3767801Y-12358317D01*
X3767801Y-12358317D02*
X3786848Y-12348793D01*
X3786848Y-12348793D02*
X3834467Y-12348793D01*
X3834467Y-12348793D02*
X3853515Y-12339269D01*
X3948753Y-12291650D02*
X3948753Y-12491650D01*
X3948753Y-12301174D02*
X3967801Y-12291650D01*
X3967801Y-12291650D02*
X4005896Y-12291650D01*
X4005896Y-12291650D02*
X4024943Y-12301174D01*
X4024943Y-12301174D02*
X4034467Y-12310698D01*
X4034467Y-12310698D02*
X4043991Y-12329746D01*
X4043991Y-12329746D02*
X4043991Y-12386888D01*
X4043991Y-12386888D02*
X4034467Y-12405936D01*
X4034467Y-12405936D02*
X4024943Y-12415460D01*
X4024943Y-12415460D02*
X4005896Y-12424984D01*
X4005896Y-12424984D02*
X3967801Y-12424984D01*
X3967801Y-12424984D02*
X3948753Y-12415460D01*
X4129705Y-12405936D02*
X4139229Y-12415460D01*
X4139229Y-12415460D02*
X4129705Y-12424984D01*
X4129705Y-12424984D02*
X4120182Y-12415460D01*
X4120182Y-12415460D02*
X4129705Y-12405936D01*
X4129705Y-12405936D02*
X4129705Y-12424984D01*
X4129705Y-12301174D02*
X4139229Y-12310698D01*
X4139229Y-12310698D02*
X4129705Y-12320222D01*
X4129705Y-12320222D02*
X4120182Y-12310698D01*
X4120182Y-12310698D02*
X4129705Y-12301174D01*
X4129705Y-12301174D02*
X4129705Y-12320222D01*
D12*
X2437500Y-12723500D02*
X2497500Y-12783500D01*
X2497500Y-12723500D02*
X2437500Y-12783500D01*
D11*
X2796372Y-12644984D02*
X2815420Y-12644984D01*
X2815420Y-12644984D02*
X2834467Y-12654508D01*
X2834467Y-12654508D02*
X2843991Y-12664031D01*
X2843991Y-12664031D02*
X2853515Y-12683079D01*
X2853515Y-12683079D02*
X2863039Y-12721174D01*
X2863039Y-12721174D02*
X2863039Y-12768793D01*
X2863039Y-12768793D02*
X2853515Y-12806888D01*
X2853515Y-12806888D02*
X2843991Y-12825936D01*
X2843991Y-12825936D02*
X2834467Y-12835460D01*
X2834467Y-12835460D02*
X2815420Y-12844984D01*
X2815420Y-12844984D02*
X2796372Y-12844984D01*
X2796372Y-12844984D02*
X2777324Y-12835460D01*
X2777324Y-12835460D02*
X2767801Y-12825936D01*
X2767801Y-12825936D02*
X2758277Y-12806888D01*
X2758277Y-12806888D02*
X2748753Y-12768793D01*
X2748753Y-12768793D02*
X2748753Y-12721174D01*
X2748753Y-12721174D02*
X2758277Y-12683079D01*
X2758277Y-12683079D02*
X2767801Y-12664031D01*
X2767801Y-12664031D02*
X2777324Y-12654508D01*
X2777324Y-12654508D02*
X2796372Y-12644984D01*
X2948753Y-12825936D02*
X2958277Y-12835460D01*
X2958277Y-12835460D02*
X2948753Y-12844984D01*
X2948753Y-12844984D02*
X2939229Y-12835460D01*
X2939229Y-12835460D02*
X2948753Y-12825936D01*
X2948753Y-12825936D02*
X2948753Y-12844984D01*
X3129705Y-12644984D02*
X3091610Y-12644984D01*
X3091610Y-12644984D02*
X3072562Y-12654508D01*
X3072562Y-12654508D02*
X3063039Y-12664031D01*
X3063039Y-12664031D02*
X3043991Y-12692603D01*
X3043991Y-12692603D02*
X3034467Y-12730698D01*
X3034467Y-12730698D02*
X3034467Y-12806888D01*
X3034467Y-12806888D02*
X3043991Y-12825936D01*
X3043991Y-12825936D02*
X3053515Y-12835460D01*
X3053515Y-12835460D02*
X3072562Y-12844984D01*
X3072562Y-12844984D02*
X3110658Y-12844984D01*
X3110658Y-12844984D02*
X3129705Y-12835460D01*
X3129705Y-12835460D02*
X3139229Y-12825936D01*
X3139229Y-12825936D02*
X3148753Y-12806888D01*
X3148753Y-12806888D02*
X3148753Y-12759269D01*
X3148753Y-12759269D02*
X3139229Y-12740222D01*
X3139229Y-12740222D02*
X3129705Y-12730698D01*
X3129705Y-12730698D02*
X3110658Y-12721174D01*
X3110658Y-12721174D02*
X3072562Y-12721174D01*
X3072562Y-12721174D02*
X3053515Y-12730698D01*
X3053515Y-12730698D02*
X3043991Y-12740222D01*
X3043991Y-12740222D02*
X3034467Y-12759269D01*
X3272562Y-12644984D02*
X3291610Y-12644984D01*
X3291610Y-12644984D02*
X3310658Y-12654508D01*
X3310658Y-12654508D02*
X3320182Y-12664031D01*
X3320182Y-12664031D02*
X3329705Y-12683079D01*
X3329705Y-12683079D02*
X3339229Y-12721174D01*
X3339229Y-12721174D02*
X3339229Y-12768793D01*
X3339229Y-12768793D02*
X3329705Y-12806888D01*
X3329705Y-12806888D02*
X3320182Y-12825936D01*
X3320182Y-12825936D02*
X3310658Y-12835460D01*
X3310658Y-12835460D02*
X3291610Y-12844984D01*
X3291610Y-12844984D02*
X3272562Y-12844984D01*
X3272562Y-12844984D02*
X3253515Y-12835460D01*
X3253515Y-12835460D02*
X3243991Y-12825936D01*
X3243991Y-12825936D02*
X3234467Y-12806888D01*
X3234467Y-12806888D02*
X3224943Y-12768793D01*
X3224943Y-12768793D02*
X3224943Y-12721174D01*
X3224943Y-12721174D02*
X3234467Y-12683079D01*
X3234467Y-12683079D02*
X3243991Y-12664031D01*
X3243991Y-12664031D02*
X3253515Y-12654508D01*
X3253515Y-12654508D02*
X3272562Y-12644984D01*
X3463039Y-12644984D02*
X3482086Y-12644984D01*
X3482086Y-12644984D02*
X3501134Y-12654508D01*
X3501134Y-12654508D02*
X3510658Y-12664031D01*
X3510658Y-12664031D02*
X3520182Y-12683079D01*
X3520182Y-12683079D02*
X3529705Y-12721174D01*
X3529705Y-12721174D02*
X3529705Y-12768793D01*
X3529705Y-12768793D02*
X3520182Y-12806888D01*
X3520182Y-12806888D02*
X3510658Y-12825936D01*
X3510658Y-12825936D02*
X3501134Y-12835460D01*
X3501134Y-12835460D02*
X3482086Y-12844984D01*
X3482086Y-12844984D02*
X3463039Y-12844984D01*
X3463039Y-12844984D02*
X3443991Y-12835460D01*
X3443991Y-12835460D02*
X3434467Y-12825936D01*
X3434467Y-12825936D02*
X3424943Y-12806888D01*
X3424943Y-12806888D02*
X3415420Y-12768793D01*
X3415420Y-12768793D02*
X3415420Y-12721174D01*
X3415420Y-12721174D02*
X3424943Y-12683079D01*
X3424943Y-12683079D02*
X3434467Y-12664031D01*
X3434467Y-12664031D02*
X3443991Y-12654508D01*
X3443991Y-12654508D02*
X3463039Y-12644984D01*
X3615420Y-12844984D02*
X3615420Y-12711650D01*
X3615420Y-12730698D02*
X3624943Y-12721174D01*
X3624943Y-12721174D02*
X3643991Y-12711650D01*
X3643991Y-12711650D02*
X3672563Y-12711650D01*
X3672563Y-12711650D02*
X3691610Y-12721174D01*
X3691610Y-12721174D02*
X3701134Y-12740222D01*
X3701134Y-12740222D02*
X3701134Y-12844984D01*
X3701134Y-12740222D02*
X3710658Y-12721174D01*
X3710658Y-12721174D02*
X3729705Y-12711650D01*
X3729705Y-12711650D02*
X3758277Y-12711650D01*
X3758277Y-12711650D02*
X3777324Y-12721174D01*
X3777324Y-12721174D02*
X3786848Y-12740222D01*
X3786848Y-12740222D02*
X3786848Y-12844984D01*
X3882086Y-12844984D02*
X3882086Y-12711650D01*
X3882086Y-12730698D02*
X3891610Y-12721174D01*
X3891610Y-12721174D02*
X3910658Y-12711650D01*
X3910658Y-12711650D02*
X3939229Y-12711650D01*
X3939229Y-12711650D02*
X3958277Y-12721174D01*
X3958277Y-12721174D02*
X3967801Y-12740222D01*
X3967801Y-12740222D02*
X3967801Y-12844984D01*
X3967801Y-12740222D02*
X3977324Y-12721174D01*
X3977324Y-12721174D02*
X3996372Y-12711650D01*
X3996372Y-12711650D02*
X4024943Y-12711650D01*
X4024943Y-12711650D02*
X4043991Y-12721174D01*
X4043991Y-12721174D02*
X4053515Y-12740222D01*
X4053515Y-12740222D02*
X4053515Y-12844984D01*
X4443991Y-12635460D02*
X4272563Y-12892603D01*
X4701134Y-12644984D02*
X4720182Y-12644984D01*
X4720182Y-12644984D02*
X4739229Y-12654508D01*
X4739229Y-12654508D02*
X4748753Y-12664031D01*
X4748753Y-12664031D02*
X4758277Y-12683079D01*
X4758277Y-12683079D02*
X4767801Y-12721174D01*
X4767801Y-12721174D02*
X4767801Y-12768793D01*
X4767801Y-12768793D02*
X4758277Y-12806888D01*
X4758277Y-12806888D02*
X4748753Y-12825936D01*
X4748753Y-12825936D02*
X4739229Y-12835460D01*
X4739229Y-12835460D02*
X4720182Y-12844984D01*
X4720182Y-12844984D02*
X4701134Y-12844984D01*
X4701134Y-12844984D02*
X4682087Y-12835460D01*
X4682087Y-12835460D02*
X4672563Y-12825936D01*
X4672563Y-12825936D02*
X4663039Y-12806888D01*
X4663039Y-12806888D02*
X4653515Y-12768793D01*
X4653515Y-12768793D02*
X4653515Y-12721174D01*
X4653515Y-12721174D02*
X4663039Y-12683079D01*
X4663039Y-12683079D02*
X4672563Y-12664031D01*
X4672563Y-12664031D02*
X4682087Y-12654508D01*
X4682087Y-12654508D02*
X4701134Y-12644984D01*
X4853515Y-12825936D02*
X4863039Y-12835460D01*
X4863039Y-12835460D02*
X4853515Y-12844984D01*
X4853515Y-12844984D02*
X4843991Y-12835460D01*
X4843991Y-12835460D02*
X4853515Y-12825936D01*
X4853515Y-12825936D02*
X4853515Y-12844984D01*
X4986848Y-12644984D02*
X5005896Y-12644984D01*
X5005896Y-12644984D02*
X5024944Y-12654508D01*
X5024944Y-12654508D02*
X5034468Y-12664031D01*
X5034468Y-12664031D02*
X5043991Y-12683079D01*
X5043991Y-12683079D02*
X5053515Y-12721174D01*
X5053515Y-12721174D02*
X5053515Y-12768793D01*
X5053515Y-12768793D02*
X5043991Y-12806888D01*
X5043991Y-12806888D02*
X5034468Y-12825936D01*
X5034468Y-12825936D02*
X5024944Y-12835460D01*
X5024944Y-12835460D02*
X5005896Y-12844984D01*
X5005896Y-12844984D02*
X4986848Y-12844984D01*
X4986848Y-12844984D02*
X4967801Y-12835460D01*
X4967801Y-12835460D02*
X4958277Y-12825936D01*
X4958277Y-12825936D02*
X4948753Y-12806888D01*
X4948753Y-12806888D02*
X4939229Y-12768793D01*
X4939229Y-12768793D02*
X4939229Y-12721174D01*
X4939229Y-12721174D02*
X4948753Y-12683079D01*
X4948753Y-12683079D02*
X4958277Y-12664031D01*
X4958277Y-12664031D02*
X4967801Y-12654508D01*
X4967801Y-12654508D02*
X4986848Y-12644984D01*
X5129706Y-12664031D02*
X5139229Y-12654508D01*
X5139229Y-12654508D02*
X5158277Y-12644984D01*
X5158277Y-12644984D02*
X5205896Y-12644984D01*
X5205896Y-12644984D02*
X5224944Y-12654508D01*
X5224944Y-12654508D02*
X5234468Y-12664031D01*
X5234468Y-12664031D02*
X5243991Y-12683079D01*
X5243991Y-12683079D02*
X5243991Y-12702127D01*
X5243991Y-12702127D02*
X5234468Y-12730698D01*
X5234468Y-12730698D02*
X5120182Y-12844984D01*
X5120182Y-12844984D02*
X5243991Y-12844984D01*
X5310658Y-12644984D02*
X5434468Y-12644984D01*
X5434468Y-12644984D02*
X5367801Y-12721174D01*
X5367801Y-12721174D02*
X5396372Y-12721174D01*
X5396372Y-12721174D02*
X5415420Y-12730698D01*
X5415420Y-12730698D02*
X5424944Y-12740222D01*
X5424944Y-12740222D02*
X5434468Y-12759269D01*
X5434468Y-12759269D02*
X5434468Y-12806888D01*
X5434468Y-12806888D02*
X5424944Y-12825936D01*
X5424944Y-12825936D02*
X5415420Y-12835460D01*
X5415420Y-12835460D02*
X5396372Y-12844984D01*
X5396372Y-12844984D02*
X5339229Y-12844984D01*
X5339229Y-12844984D02*
X5320182Y-12835460D01*
X5320182Y-12835460D02*
X5310658Y-12825936D01*
X5605896Y-12644984D02*
X5567801Y-12644984D01*
X5567801Y-12644984D02*
X5548753Y-12654508D01*
X5548753Y-12654508D02*
X5539229Y-12664031D01*
X5539229Y-12664031D02*
X5520182Y-12692603D01*
X5520182Y-12692603D02*
X5510658Y-12730698D01*
X5510658Y-12730698D02*
X5510658Y-12806888D01*
X5510658Y-12806888D02*
X5520182Y-12825936D01*
X5520182Y-12825936D02*
X5529706Y-12835460D01*
X5529706Y-12835460D02*
X5548753Y-12844984D01*
X5548753Y-12844984D02*
X5586849Y-12844984D01*
X5586849Y-12844984D02*
X5605896Y-12835460D01*
X5605896Y-12835460D02*
X5615420Y-12825936D01*
X5615420Y-12825936D02*
X5624944Y-12806888D01*
X5624944Y-12806888D02*
X5624944Y-12759269D01*
X5624944Y-12759269D02*
X5615420Y-12740222D01*
X5615420Y-12740222D02*
X5605896Y-12730698D01*
X5605896Y-12730698D02*
X5586849Y-12721174D01*
X5586849Y-12721174D02*
X5548753Y-12721174D01*
X5548753Y-12721174D02*
X5529706Y-12730698D01*
X5529706Y-12730698D02*
X5520182Y-12740222D01*
X5520182Y-12740222D02*
X5510658Y-12759269D01*
X5701134Y-12644984D02*
X5701134Y-12683079D01*
X5777325Y-12644984D02*
X5777325Y-12683079D01*
X6072563Y-12921174D02*
X6063039Y-12911650D01*
X6063039Y-12911650D02*
X6043991Y-12883079D01*
X6043991Y-12883079D02*
X6034468Y-12864031D01*
X6034468Y-12864031D02*
X6024944Y-12835460D01*
X6024944Y-12835460D02*
X6015420Y-12787841D01*
X6015420Y-12787841D02*
X6015420Y-12749746D01*
X6015420Y-12749746D02*
X6024944Y-12702127D01*
X6024944Y-12702127D02*
X6034468Y-12673555D01*
X6034468Y-12673555D02*
X6043991Y-12654508D01*
X6043991Y-12654508D02*
X6063039Y-12625936D01*
X6063039Y-12625936D02*
X6072563Y-12616412D01*
X6253515Y-12844984D02*
X6139229Y-12844984D01*
X6196372Y-12844984D02*
X6196372Y-12644984D01*
X6196372Y-12644984D02*
X6177325Y-12673555D01*
X6177325Y-12673555D02*
X6158277Y-12692603D01*
X6158277Y-12692603D02*
X6139229Y-12702127D01*
X6320182Y-12644984D02*
X6443991Y-12644984D01*
X6443991Y-12644984D02*
X6377325Y-12721174D01*
X6377325Y-12721174D02*
X6405896Y-12721174D01*
X6405896Y-12721174D02*
X6424944Y-12730698D01*
X6424944Y-12730698D02*
X6434468Y-12740222D01*
X6434468Y-12740222D02*
X6443991Y-12759269D01*
X6443991Y-12759269D02*
X6443991Y-12806888D01*
X6443991Y-12806888D02*
X6434468Y-12825936D01*
X6434468Y-12825936D02*
X6424944Y-12835460D01*
X6424944Y-12835460D02*
X6405896Y-12844984D01*
X6405896Y-12844984D02*
X6348753Y-12844984D01*
X6348753Y-12844984D02*
X6329706Y-12835460D01*
X6329706Y-12835460D02*
X6320182Y-12825936D01*
X6682087Y-12844984D02*
X6682087Y-12644984D01*
X6767801Y-12844984D02*
X6767801Y-12740222D01*
X6767801Y-12740222D02*
X6758277Y-12721174D01*
X6758277Y-12721174D02*
X6739230Y-12711650D01*
X6739230Y-12711650D02*
X6710658Y-12711650D01*
X6710658Y-12711650D02*
X6691610Y-12721174D01*
X6691610Y-12721174D02*
X6682087Y-12730698D01*
X6891610Y-12844984D02*
X6872563Y-12835460D01*
X6872563Y-12835460D02*
X6863039Y-12825936D01*
X6863039Y-12825936D02*
X6853515Y-12806888D01*
X6853515Y-12806888D02*
X6853515Y-12749746D01*
X6853515Y-12749746D02*
X6863039Y-12730698D01*
X6863039Y-12730698D02*
X6872563Y-12721174D01*
X6872563Y-12721174D02*
X6891610Y-12711650D01*
X6891610Y-12711650D02*
X6920182Y-12711650D01*
X6920182Y-12711650D02*
X6939230Y-12721174D01*
X6939230Y-12721174D02*
X6948753Y-12730698D01*
X6948753Y-12730698D02*
X6958277Y-12749746D01*
X6958277Y-12749746D02*
X6958277Y-12806888D01*
X6958277Y-12806888D02*
X6948753Y-12825936D01*
X6948753Y-12825936D02*
X6939230Y-12835460D01*
X6939230Y-12835460D02*
X6920182Y-12844984D01*
X6920182Y-12844984D02*
X6891610Y-12844984D01*
X7072563Y-12844984D02*
X7053515Y-12835460D01*
X7053515Y-12835460D02*
X7043991Y-12816412D01*
X7043991Y-12816412D02*
X7043991Y-12644984D01*
X7224944Y-12835460D02*
X7205896Y-12844984D01*
X7205896Y-12844984D02*
X7167801Y-12844984D01*
X7167801Y-12844984D02*
X7148753Y-12835460D01*
X7148753Y-12835460D02*
X7139230Y-12816412D01*
X7139230Y-12816412D02*
X7139230Y-12740222D01*
X7139230Y-12740222D02*
X7148753Y-12721174D01*
X7148753Y-12721174D02*
X7167801Y-12711650D01*
X7167801Y-12711650D02*
X7205896Y-12711650D01*
X7205896Y-12711650D02*
X7224944Y-12721174D01*
X7224944Y-12721174D02*
X7234468Y-12740222D01*
X7234468Y-12740222D02*
X7234468Y-12759269D01*
X7234468Y-12759269D02*
X7139230Y-12778317D01*
X7310658Y-12835460D02*
X7329706Y-12844984D01*
X7329706Y-12844984D02*
X7367801Y-12844984D01*
X7367801Y-12844984D02*
X7386849Y-12835460D01*
X7386849Y-12835460D02*
X7396372Y-12816412D01*
X7396372Y-12816412D02*
X7396372Y-12806888D01*
X7396372Y-12806888D02*
X7386849Y-12787841D01*
X7386849Y-12787841D02*
X7367801Y-12778317D01*
X7367801Y-12778317D02*
X7339230Y-12778317D01*
X7339230Y-12778317D02*
X7320182Y-12768793D01*
X7320182Y-12768793D02*
X7310658Y-12749746D01*
X7310658Y-12749746D02*
X7310658Y-12740222D01*
X7310658Y-12740222D02*
X7320182Y-12721174D01*
X7320182Y-12721174D02*
X7339230Y-12711650D01*
X7339230Y-12711650D02*
X7367801Y-12711650D01*
X7367801Y-12711650D02*
X7386849Y-12721174D01*
X7463039Y-12921174D02*
X7472563Y-12911650D01*
X7472563Y-12911650D02*
X7491611Y-12883079D01*
X7491611Y-12883079D02*
X7501134Y-12864031D01*
X7501134Y-12864031D02*
X7510658Y-12835460D01*
X7510658Y-12835460D02*
X7520182Y-12787841D01*
X7520182Y-12787841D02*
X7520182Y-12749746D01*
X7520182Y-12749746D02*
X7510658Y-12702127D01*
X7510658Y-12702127D02*
X7501134Y-12673555D01*
X7501134Y-12673555D02*
X7491611Y-12654508D01*
X7491611Y-12654508D02*
X7472563Y-12625936D01*
X7472563Y-12625936D02*
X7463039Y-12616412D01*
D12*
X2497500Y-13017500D02*
G75*
G03*
X2417500Y-13017500I-40000J0D01*
G01*
X2417500Y-13017500D02*
G75*
G03*
X2497500Y-13017500I40000J0D01*
G01*
D11*
X2796372Y-12908984D02*
X2815420Y-12908984D01*
X2815420Y-12908984D02*
X2834467Y-12918508D01*
X2834467Y-12918508D02*
X2843991Y-12928031D01*
X2843991Y-12928031D02*
X2853515Y-12947079D01*
X2853515Y-12947079D02*
X2863039Y-12985174D01*
X2863039Y-12985174D02*
X2863039Y-13032793D01*
X2863039Y-13032793D02*
X2853515Y-13070888D01*
X2853515Y-13070888D02*
X2843991Y-13089936D01*
X2843991Y-13089936D02*
X2834467Y-13099460D01*
X2834467Y-13099460D02*
X2815420Y-13108984D01*
X2815420Y-13108984D02*
X2796372Y-13108984D01*
X2796372Y-13108984D02*
X2777324Y-13099460D01*
X2777324Y-13099460D02*
X2767801Y-13089936D01*
X2767801Y-13089936D02*
X2758277Y-13070888D01*
X2758277Y-13070888D02*
X2748753Y-13032793D01*
X2748753Y-13032793D02*
X2748753Y-12985174D01*
X2748753Y-12985174D02*
X2758277Y-12947079D01*
X2758277Y-12947079D02*
X2767801Y-12928031D01*
X2767801Y-12928031D02*
X2777324Y-12918508D01*
X2777324Y-12918508D02*
X2796372Y-12908984D01*
X2948753Y-13089936D02*
X2958277Y-13099460D01*
X2958277Y-13099460D02*
X2948753Y-13108984D01*
X2948753Y-13108984D02*
X2939229Y-13099460D01*
X2939229Y-13099460D02*
X2948753Y-13089936D01*
X2948753Y-13089936D02*
X2948753Y-13108984D01*
X3072562Y-12994698D02*
X3053515Y-12985174D01*
X3053515Y-12985174D02*
X3043991Y-12975650D01*
X3043991Y-12975650D02*
X3034467Y-12956603D01*
X3034467Y-12956603D02*
X3034467Y-12947079D01*
X3034467Y-12947079D02*
X3043991Y-12928031D01*
X3043991Y-12928031D02*
X3053515Y-12918508D01*
X3053515Y-12918508D02*
X3072562Y-12908984D01*
X3072562Y-12908984D02*
X3110658Y-12908984D01*
X3110658Y-12908984D02*
X3129705Y-12918508D01*
X3129705Y-12918508D02*
X3139229Y-12928031D01*
X3139229Y-12928031D02*
X3148753Y-12947079D01*
X3148753Y-12947079D02*
X3148753Y-12956603D01*
X3148753Y-12956603D02*
X3139229Y-12975650D01*
X3139229Y-12975650D02*
X3129705Y-12985174D01*
X3129705Y-12985174D02*
X3110658Y-12994698D01*
X3110658Y-12994698D02*
X3072562Y-12994698D01*
X3072562Y-12994698D02*
X3053515Y-13004222D01*
X3053515Y-13004222D02*
X3043991Y-13013746D01*
X3043991Y-13013746D02*
X3034467Y-13032793D01*
X3034467Y-13032793D02*
X3034467Y-13070888D01*
X3034467Y-13070888D02*
X3043991Y-13089936D01*
X3043991Y-13089936D02*
X3053515Y-13099460D01*
X3053515Y-13099460D02*
X3072562Y-13108984D01*
X3072562Y-13108984D02*
X3110658Y-13108984D01*
X3110658Y-13108984D02*
X3129705Y-13099460D01*
X3129705Y-13099460D02*
X3139229Y-13089936D01*
X3139229Y-13089936D02*
X3148753Y-13070888D01*
X3148753Y-13070888D02*
X3148753Y-13032793D01*
X3148753Y-13032793D02*
X3139229Y-13013746D01*
X3139229Y-13013746D02*
X3129705Y-13004222D01*
X3129705Y-13004222D02*
X3110658Y-12994698D01*
X3272562Y-12908984D02*
X3291610Y-12908984D01*
X3291610Y-12908984D02*
X3310658Y-12918508D01*
X3310658Y-12918508D02*
X3320182Y-12928031D01*
X3320182Y-12928031D02*
X3329705Y-12947079D01*
X3329705Y-12947079D02*
X3339229Y-12985174D01*
X3339229Y-12985174D02*
X3339229Y-13032793D01*
X3339229Y-13032793D02*
X3329705Y-13070888D01*
X3329705Y-13070888D02*
X3320182Y-13089936D01*
X3320182Y-13089936D02*
X3310658Y-13099460D01*
X3310658Y-13099460D02*
X3291610Y-13108984D01*
X3291610Y-13108984D02*
X3272562Y-13108984D01*
X3272562Y-13108984D02*
X3253515Y-13099460D01*
X3253515Y-13099460D02*
X3243991Y-13089936D01*
X3243991Y-13089936D02*
X3234467Y-13070888D01*
X3234467Y-13070888D02*
X3224943Y-13032793D01*
X3224943Y-13032793D02*
X3224943Y-12985174D01*
X3224943Y-12985174D02*
X3234467Y-12947079D01*
X3234467Y-12947079D02*
X3243991Y-12928031D01*
X3243991Y-12928031D02*
X3253515Y-12918508D01*
X3253515Y-12918508D02*
X3272562Y-12908984D01*
X3463039Y-12908984D02*
X3482086Y-12908984D01*
X3482086Y-12908984D02*
X3501134Y-12918508D01*
X3501134Y-12918508D02*
X3510658Y-12928031D01*
X3510658Y-12928031D02*
X3520182Y-12947079D01*
X3520182Y-12947079D02*
X3529705Y-12985174D01*
X3529705Y-12985174D02*
X3529705Y-13032793D01*
X3529705Y-13032793D02*
X3520182Y-13070888D01*
X3520182Y-13070888D02*
X3510658Y-13089936D01*
X3510658Y-13089936D02*
X3501134Y-13099460D01*
X3501134Y-13099460D02*
X3482086Y-13108984D01*
X3482086Y-13108984D02*
X3463039Y-13108984D01*
X3463039Y-13108984D02*
X3443991Y-13099460D01*
X3443991Y-13099460D02*
X3434467Y-13089936D01*
X3434467Y-13089936D02*
X3424943Y-13070888D01*
X3424943Y-13070888D02*
X3415420Y-13032793D01*
X3415420Y-13032793D02*
X3415420Y-12985174D01*
X3415420Y-12985174D02*
X3424943Y-12947079D01*
X3424943Y-12947079D02*
X3434467Y-12928031D01*
X3434467Y-12928031D02*
X3443991Y-12918508D01*
X3443991Y-12918508D02*
X3463039Y-12908984D01*
X3615420Y-13108984D02*
X3615420Y-12975650D01*
X3615420Y-12994698D02*
X3624943Y-12985174D01*
X3624943Y-12985174D02*
X3643991Y-12975650D01*
X3643991Y-12975650D02*
X3672563Y-12975650D01*
X3672563Y-12975650D02*
X3691610Y-12985174D01*
X3691610Y-12985174D02*
X3701134Y-13004222D01*
X3701134Y-13004222D02*
X3701134Y-13108984D01*
X3701134Y-13004222D02*
X3710658Y-12985174D01*
X3710658Y-12985174D02*
X3729705Y-12975650D01*
X3729705Y-12975650D02*
X3758277Y-12975650D01*
X3758277Y-12975650D02*
X3777324Y-12985174D01*
X3777324Y-12985174D02*
X3786848Y-13004222D01*
X3786848Y-13004222D02*
X3786848Y-13108984D01*
X3882086Y-13108984D02*
X3882086Y-12975650D01*
X3882086Y-12994698D02*
X3891610Y-12985174D01*
X3891610Y-12985174D02*
X3910658Y-12975650D01*
X3910658Y-12975650D02*
X3939229Y-12975650D01*
X3939229Y-12975650D02*
X3958277Y-12985174D01*
X3958277Y-12985174D02*
X3967801Y-13004222D01*
X3967801Y-13004222D02*
X3967801Y-13108984D01*
X3967801Y-13004222D02*
X3977324Y-12985174D01*
X3977324Y-12985174D02*
X3996372Y-12975650D01*
X3996372Y-12975650D02*
X4024943Y-12975650D01*
X4024943Y-12975650D02*
X4043991Y-12985174D01*
X4043991Y-12985174D02*
X4053515Y-13004222D01*
X4053515Y-13004222D02*
X4053515Y-13108984D01*
X4443991Y-12899460D02*
X4272563Y-13156603D01*
X4701134Y-12908984D02*
X4720182Y-12908984D01*
X4720182Y-12908984D02*
X4739229Y-12918508D01*
X4739229Y-12918508D02*
X4748753Y-12928031D01*
X4748753Y-12928031D02*
X4758277Y-12947079D01*
X4758277Y-12947079D02*
X4767801Y-12985174D01*
X4767801Y-12985174D02*
X4767801Y-13032793D01*
X4767801Y-13032793D02*
X4758277Y-13070888D01*
X4758277Y-13070888D02*
X4748753Y-13089936D01*
X4748753Y-13089936D02*
X4739229Y-13099460D01*
X4739229Y-13099460D02*
X4720182Y-13108984D01*
X4720182Y-13108984D02*
X4701134Y-13108984D01*
X4701134Y-13108984D02*
X4682087Y-13099460D01*
X4682087Y-13099460D02*
X4672563Y-13089936D01*
X4672563Y-13089936D02*
X4663039Y-13070888D01*
X4663039Y-13070888D02*
X4653515Y-13032793D01*
X4653515Y-13032793D02*
X4653515Y-12985174D01*
X4653515Y-12985174D02*
X4663039Y-12947079D01*
X4663039Y-12947079D02*
X4672563Y-12928031D01*
X4672563Y-12928031D02*
X4682087Y-12918508D01*
X4682087Y-12918508D02*
X4701134Y-12908984D01*
X4853515Y-13089936D02*
X4863039Y-13099460D01*
X4863039Y-13099460D02*
X4853515Y-13108984D01*
X4853515Y-13108984D02*
X4843991Y-13099460D01*
X4843991Y-13099460D02*
X4853515Y-13089936D01*
X4853515Y-13089936D02*
X4853515Y-13108984D01*
X4986848Y-12908984D02*
X5005896Y-12908984D01*
X5005896Y-12908984D02*
X5024944Y-12918508D01*
X5024944Y-12918508D02*
X5034468Y-12928031D01*
X5034468Y-12928031D02*
X5043991Y-12947079D01*
X5043991Y-12947079D02*
X5053515Y-12985174D01*
X5053515Y-12985174D02*
X5053515Y-13032793D01*
X5053515Y-13032793D02*
X5043991Y-13070888D01*
X5043991Y-13070888D02*
X5034468Y-13089936D01*
X5034468Y-13089936D02*
X5024944Y-13099460D01*
X5024944Y-13099460D02*
X5005896Y-13108984D01*
X5005896Y-13108984D02*
X4986848Y-13108984D01*
X4986848Y-13108984D02*
X4967801Y-13099460D01*
X4967801Y-13099460D02*
X4958277Y-13089936D01*
X4958277Y-13089936D02*
X4948753Y-13070888D01*
X4948753Y-13070888D02*
X4939229Y-13032793D01*
X4939229Y-13032793D02*
X4939229Y-12985174D01*
X4939229Y-12985174D02*
X4948753Y-12947079D01*
X4948753Y-12947079D02*
X4958277Y-12928031D01*
X4958277Y-12928031D02*
X4967801Y-12918508D01*
X4967801Y-12918508D02*
X4986848Y-12908984D01*
X5120182Y-12908984D02*
X5243991Y-12908984D01*
X5243991Y-12908984D02*
X5177325Y-12985174D01*
X5177325Y-12985174D02*
X5205896Y-12985174D01*
X5205896Y-12985174D02*
X5224944Y-12994698D01*
X5224944Y-12994698D02*
X5234468Y-13004222D01*
X5234468Y-13004222D02*
X5243991Y-13023269D01*
X5243991Y-13023269D02*
X5243991Y-13070888D01*
X5243991Y-13070888D02*
X5234468Y-13089936D01*
X5234468Y-13089936D02*
X5224944Y-13099460D01*
X5224944Y-13099460D02*
X5205896Y-13108984D01*
X5205896Y-13108984D02*
X5148753Y-13108984D01*
X5148753Y-13108984D02*
X5129706Y-13099460D01*
X5129706Y-13099460D02*
X5120182Y-13089936D01*
X5434468Y-13108984D02*
X5320182Y-13108984D01*
X5377325Y-13108984D02*
X5377325Y-12908984D01*
X5377325Y-12908984D02*
X5358277Y-12937555D01*
X5358277Y-12937555D02*
X5339229Y-12956603D01*
X5339229Y-12956603D02*
X5320182Y-12966127D01*
X5615420Y-12908984D02*
X5520182Y-12908984D01*
X5520182Y-12908984D02*
X5510658Y-13004222D01*
X5510658Y-13004222D02*
X5520182Y-12994698D01*
X5520182Y-12994698D02*
X5539229Y-12985174D01*
X5539229Y-12985174D02*
X5586849Y-12985174D01*
X5586849Y-12985174D02*
X5605896Y-12994698D01*
X5605896Y-12994698D02*
X5615420Y-13004222D01*
X5615420Y-13004222D02*
X5624944Y-13023269D01*
X5624944Y-13023269D02*
X5624944Y-13070888D01*
X5624944Y-13070888D02*
X5615420Y-13089936D01*
X5615420Y-13089936D02*
X5605896Y-13099460D01*
X5605896Y-13099460D02*
X5586849Y-13108984D01*
X5586849Y-13108984D02*
X5539229Y-13108984D01*
X5539229Y-13108984D02*
X5520182Y-13099460D01*
X5520182Y-13099460D02*
X5510658Y-13089936D01*
X5701134Y-12908984D02*
X5701134Y-12947079D01*
X5777325Y-12908984D02*
X5777325Y-12947079D01*
X6072563Y-13185174D02*
X6063039Y-13175650D01*
X6063039Y-13175650D02*
X6043991Y-13147079D01*
X6043991Y-13147079D02*
X6034468Y-13128031D01*
X6034468Y-13128031D02*
X6024944Y-13099460D01*
X6024944Y-13099460D02*
X6015420Y-13051841D01*
X6015420Y-13051841D02*
X6015420Y-13013746D01*
X6015420Y-13013746D02*
X6024944Y-12966127D01*
X6024944Y-12966127D02*
X6034468Y-12937555D01*
X6034468Y-12937555D02*
X6043991Y-12918508D01*
X6043991Y-12918508D02*
X6063039Y-12889936D01*
X6063039Y-12889936D02*
X6072563Y-12880412D01*
X6253515Y-13108984D02*
X6139229Y-13108984D01*
X6196372Y-13108984D02*
X6196372Y-12908984D01*
X6196372Y-12908984D02*
X6177325Y-12937555D01*
X6177325Y-12937555D02*
X6158277Y-12956603D01*
X6158277Y-12956603D02*
X6139229Y-12966127D01*
X6367801Y-12994698D02*
X6348753Y-12985174D01*
X6348753Y-12985174D02*
X6339229Y-12975650D01*
X6339229Y-12975650D02*
X6329706Y-12956603D01*
X6329706Y-12956603D02*
X6329706Y-12947079D01*
X6329706Y-12947079D02*
X6339229Y-12928031D01*
X6339229Y-12928031D02*
X6348753Y-12918508D01*
X6348753Y-12918508D02*
X6367801Y-12908984D01*
X6367801Y-12908984D02*
X6405896Y-12908984D01*
X6405896Y-12908984D02*
X6424944Y-12918508D01*
X6424944Y-12918508D02*
X6434468Y-12928031D01*
X6434468Y-12928031D02*
X6443991Y-12947079D01*
X6443991Y-12947079D02*
X6443991Y-12956603D01*
X6443991Y-12956603D02*
X6434468Y-12975650D01*
X6434468Y-12975650D02*
X6424944Y-12985174D01*
X6424944Y-12985174D02*
X6405896Y-12994698D01*
X6405896Y-12994698D02*
X6367801Y-12994698D01*
X6367801Y-12994698D02*
X6348753Y-13004222D01*
X6348753Y-13004222D02*
X6339229Y-13013746D01*
X6339229Y-13013746D02*
X6329706Y-13032793D01*
X6329706Y-13032793D02*
X6329706Y-13070888D01*
X6329706Y-13070888D02*
X6339229Y-13089936D01*
X6339229Y-13089936D02*
X6348753Y-13099460D01*
X6348753Y-13099460D02*
X6367801Y-13108984D01*
X6367801Y-13108984D02*
X6405896Y-13108984D01*
X6405896Y-13108984D02*
X6424944Y-13099460D01*
X6424944Y-13099460D02*
X6434468Y-13089936D01*
X6434468Y-13089936D02*
X6443991Y-13070888D01*
X6443991Y-13070888D02*
X6443991Y-13032793D01*
X6443991Y-13032793D02*
X6434468Y-13013746D01*
X6434468Y-13013746D02*
X6424944Y-13004222D01*
X6424944Y-13004222D02*
X6405896Y-12994698D01*
X6682087Y-13108984D02*
X6682087Y-12908984D01*
X6767801Y-13108984D02*
X6767801Y-13004222D01*
X6767801Y-13004222D02*
X6758277Y-12985174D01*
X6758277Y-12985174D02*
X6739230Y-12975650D01*
X6739230Y-12975650D02*
X6710658Y-12975650D01*
X6710658Y-12975650D02*
X6691610Y-12985174D01*
X6691610Y-12985174D02*
X6682087Y-12994698D01*
X6891610Y-13108984D02*
X6872563Y-13099460D01*
X6872563Y-13099460D02*
X6863039Y-13089936D01*
X6863039Y-13089936D02*
X6853515Y-13070888D01*
X6853515Y-13070888D02*
X6853515Y-13013746D01*
X6853515Y-13013746D02*
X6863039Y-12994698D01*
X6863039Y-12994698D02*
X6872563Y-12985174D01*
X6872563Y-12985174D02*
X6891610Y-12975650D01*
X6891610Y-12975650D02*
X6920182Y-12975650D01*
X6920182Y-12975650D02*
X6939230Y-12985174D01*
X6939230Y-12985174D02*
X6948753Y-12994698D01*
X6948753Y-12994698D02*
X6958277Y-13013746D01*
X6958277Y-13013746D02*
X6958277Y-13070888D01*
X6958277Y-13070888D02*
X6948753Y-13089936D01*
X6948753Y-13089936D02*
X6939230Y-13099460D01*
X6939230Y-13099460D02*
X6920182Y-13108984D01*
X6920182Y-13108984D02*
X6891610Y-13108984D01*
X7072563Y-13108984D02*
X7053515Y-13099460D01*
X7053515Y-13099460D02*
X7043991Y-13080412D01*
X7043991Y-13080412D02*
X7043991Y-12908984D01*
X7224944Y-13099460D02*
X7205896Y-13108984D01*
X7205896Y-13108984D02*
X7167801Y-13108984D01*
X7167801Y-13108984D02*
X7148753Y-13099460D01*
X7148753Y-13099460D02*
X7139230Y-13080412D01*
X7139230Y-13080412D02*
X7139230Y-13004222D01*
X7139230Y-13004222D02*
X7148753Y-12985174D01*
X7148753Y-12985174D02*
X7167801Y-12975650D01*
X7167801Y-12975650D02*
X7205896Y-12975650D01*
X7205896Y-12975650D02*
X7224944Y-12985174D01*
X7224944Y-12985174D02*
X7234468Y-13004222D01*
X7234468Y-13004222D02*
X7234468Y-13023269D01*
X7234468Y-13023269D02*
X7139230Y-13042317D01*
X7310658Y-13099460D02*
X7329706Y-13108984D01*
X7329706Y-13108984D02*
X7367801Y-13108984D01*
X7367801Y-13108984D02*
X7386849Y-13099460D01*
X7386849Y-13099460D02*
X7396372Y-13080412D01*
X7396372Y-13080412D02*
X7396372Y-13070888D01*
X7396372Y-13070888D02*
X7386849Y-13051841D01*
X7386849Y-13051841D02*
X7367801Y-13042317D01*
X7367801Y-13042317D02*
X7339230Y-13042317D01*
X7339230Y-13042317D02*
X7320182Y-13032793D01*
X7320182Y-13032793D02*
X7310658Y-13013746D01*
X7310658Y-13013746D02*
X7310658Y-13004222D01*
X7310658Y-13004222D02*
X7320182Y-12985174D01*
X7320182Y-12985174D02*
X7339230Y-12975650D01*
X7339230Y-12975650D02*
X7367801Y-12975650D01*
X7367801Y-12975650D02*
X7386849Y-12985174D01*
X7463039Y-13185174D02*
X7472563Y-13175650D01*
X7472563Y-13175650D02*
X7491611Y-13147079D01*
X7491611Y-13147079D02*
X7501134Y-13128031D01*
X7501134Y-13128031D02*
X7510658Y-13099460D01*
X7510658Y-13099460D02*
X7520182Y-13051841D01*
X7520182Y-13051841D02*
X7520182Y-13013746D01*
X7520182Y-13013746D02*
X7510658Y-12966127D01*
X7510658Y-12966127D02*
X7501134Y-12937555D01*
X7501134Y-12937555D02*
X7491611Y-12918508D01*
X7491611Y-12918508D02*
X7472563Y-12889936D01*
X7472563Y-12889936D02*
X7463039Y-12880412D01*
D12*
X2452500Y-13236500D02*
X2452500Y-13326500D01*
X2407500Y-13281500D02*
X2497500Y-13281500D01*
D11*
X2796372Y-13172984D02*
X2815420Y-13172984D01*
X2815420Y-13172984D02*
X2834467Y-13182508D01*
X2834467Y-13182508D02*
X2843991Y-13192031D01*
X2843991Y-13192031D02*
X2853515Y-13211079D01*
X2853515Y-13211079D02*
X2863039Y-13249174D01*
X2863039Y-13249174D02*
X2863039Y-13296793D01*
X2863039Y-13296793D02*
X2853515Y-13334888D01*
X2853515Y-13334888D02*
X2843991Y-13353936D01*
X2843991Y-13353936D02*
X2834467Y-13363460D01*
X2834467Y-13363460D02*
X2815420Y-13372984D01*
X2815420Y-13372984D02*
X2796372Y-13372984D01*
X2796372Y-13372984D02*
X2777324Y-13363460D01*
X2777324Y-13363460D02*
X2767801Y-13353936D01*
X2767801Y-13353936D02*
X2758277Y-13334888D01*
X2758277Y-13334888D02*
X2748753Y-13296793D01*
X2748753Y-13296793D02*
X2748753Y-13249174D01*
X2748753Y-13249174D02*
X2758277Y-13211079D01*
X2758277Y-13211079D02*
X2767801Y-13192031D01*
X2767801Y-13192031D02*
X2777324Y-13182508D01*
X2777324Y-13182508D02*
X2796372Y-13172984D01*
X2948753Y-13353936D02*
X2958277Y-13363460D01*
X2958277Y-13363460D02*
X2948753Y-13372984D01*
X2948753Y-13372984D02*
X2939229Y-13363460D01*
X2939229Y-13363460D02*
X2948753Y-13353936D01*
X2948753Y-13353936D02*
X2948753Y-13372984D01*
X3053515Y-13372984D02*
X3091610Y-13372984D01*
X3091610Y-13372984D02*
X3110658Y-13363460D01*
X3110658Y-13363460D02*
X3120182Y-13353936D01*
X3120182Y-13353936D02*
X3139229Y-13325365D01*
X3139229Y-13325365D02*
X3148753Y-13287269D01*
X3148753Y-13287269D02*
X3148753Y-13211079D01*
X3148753Y-13211079D02*
X3139229Y-13192031D01*
X3139229Y-13192031D02*
X3129705Y-13182508D01*
X3129705Y-13182508D02*
X3110658Y-13172984D01*
X3110658Y-13172984D02*
X3072562Y-13172984D01*
X3072562Y-13172984D02*
X3053515Y-13182508D01*
X3053515Y-13182508D02*
X3043991Y-13192031D01*
X3043991Y-13192031D02*
X3034467Y-13211079D01*
X3034467Y-13211079D02*
X3034467Y-13258698D01*
X3034467Y-13258698D02*
X3043991Y-13277746D01*
X3043991Y-13277746D02*
X3053515Y-13287269D01*
X3053515Y-13287269D02*
X3072562Y-13296793D01*
X3072562Y-13296793D02*
X3110658Y-13296793D01*
X3110658Y-13296793D02*
X3129705Y-13287269D01*
X3129705Y-13287269D02*
X3139229Y-13277746D01*
X3139229Y-13277746D02*
X3148753Y-13258698D01*
X3272562Y-13172984D02*
X3291610Y-13172984D01*
X3291610Y-13172984D02*
X3310658Y-13182508D01*
X3310658Y-13182508D02*
X3320182Y-13192031D01*
X3320182Y-13192031D02*
X3329705Y-13211079D01*
X3329705Y-13211079D02*
X3339229Y-13249174D01*
X3339229Y-13249174D02*
X3339229Y-13296793D01*
X3339229Y-13296793D02*
X3329705Y-13334888D01*
X3329705Y-13334888D02*
X3320182Y-13353936D01*
X3320182Y-13353936D02*
X3310658Y-13363460D01*
X3310658Y-13363460D02*
X3291610Y-13372984D01*
X3291610Y-13372984D02*
X3272562Y-13372984D01*
X3272562Y-13372984D02*
X3253515Y-13363460D01*
X3253515Y-13363460D02*
X3243991Y-13353936D01*
X3243991Y-13353936D02*
X3234467Y-13334888D01*
X3234467Y-13334888D02*
X3224943Y-13296793D01*
X3224943Y-13296793D02*
X3224943Y-13249174D01*
X3224943Y-13249174D02*
X3234467Y-13211079D01*
X3234467Y-13211079D02*
X3243991Y-13192031D01*
X3243991Y-13192031D02*
X3253515Y-13182508D01*
X3253515Y-13182508D02*
X3272562Y-13172984D01*
X3463039Y-13172984D02*
X3482086Y-13172984D01*
X3482086Y-13172984D02*
X3501134Y-13182508D01*
X3501134Y-13182508D02*
X3510658Y-13192031D01*
X3510658Y-13192031D02*
X3520182Y-13211079D01*
X3520182Y-13211079D02*
X3529705Y-13249174D01*
X3529705Y-13249174D02*
X3529705Y-13296793D01*
X3529705Y-13296793D02*
X3520182Y-13334888D01*
X3520182Y-13334888D02*
X3510658Y-13353936D01*
X3510658Y-13353936D02*
X3501134Y-13363460D01*
X3501134Y-13363460D02*
X3482086Y-13372984D01*
X3482086Y-13372984D02*
X3463039Y-13372984D01*
X3463039Y-13372984D02*
X3443991Y-13363460D01*
X3443991Y-13363460D02*
X3434467Y-13353936D01*
X3434467Y-13353936D02*
X3424943Y-13334888D01*
X3424943Y-13334888D02*
X3415420Y-13296793D01*
X3415420Y-13296793D02*
X3415420Y-13249174D01*
X3415420Y-13249174D02*
X3424943Y-13211079D01*
X3424943Y-13211079D02*
X3434467Y-13192031D01*
X3434467Y-13192031D02*
X3443991Y-13182508D01*
X3443991Y-13182508D02*
X3463039Y-13172984D01*
X3615420Y-13372984D02*
X3615420Y-13239650D01*
X3615420Y-13258698D02*
X3624943Y-13249174D01*
X3624943Y-13249174D02*
X3643991Y-13239650D01*
X3643991Y-13239650D02*
X3672563Y-13239650D01*
X3672563Y-13239650D02*
X3691610Y-13249174D01*
X3691610Y-13249174D02*
X3701134Y-13268222D01*
X3701134Y-13268222D02*
X3701134Y-13372984D01*
X3701134Y-13268222D02*
X3710658Y-13249174D01*
X3710658Y-13249174D02*
X3729705Y-13239650D01*
X3729705Y-13239650D02*
X3758277Y-13239650D01*
X3758277Y-13239650D02*
X3777324Y-13249174D01*
X3777324Y-13249174D02*
X3786848Y-13268222D01*
X3786848Y-13268222D02*
X3786848Y-13372984D01*
X3882086Y-13372984D02*
X3882086Y-13239650D01*
X3882086Y-13258698D02*
X3891610Y-13249174D01*
X3891610Y-13249174D02*
X3910658Y-13239650D01*
X3910658Y-13239650D02*
X3939229Y-13239650D01*
X3939229Y-13239650D02*
X3958277Y-13249174D01*
X3958277Y-13249174D02*
X3967801Y-13268222D01*
X3967801Y-13268222D02*
X3967801Y-13372984D01*
X3967801Y-13268222D02*
X3977324Y-13249174D01*
X3977324Y-13249174D02*
X3996372Y-13239650D01*
X3996372Y-13239650D02*
X4024943Y-13239650D01*
X4024943Y-13239650D02*
X4043991Y-13249174D01*
X4043991Y-13249174D02*
X4053515Y-13268222D01*
X4053515Y-13268222D02*
X4053515Y-13372984D01*
X4443991Y-13163460D02*
X4272563Y-13420603D01*
X4701134Y-13172984D02*
X4720182Y-13172984D01*
X4720182Y-13172984D02*
X4739229Y-13182508D01*
X4739229Y-13182508D02*
X4748753Y-13192031D01*
X4748753Y-13192031D02*
X4758277Y-13211079D01*
X4758277Y-13211079D02*
X4767801Y-13249174D01*
X4767801Y-13249174D02*
X4767801Y-13296793D01*
X4767801Y-13296793D02*
X4758277Y-13334888D01*
X4758277Y-13334888D02*
X4748753Y-13353936D01*
X4748753Y-13353936D02*
X4739229Y-13363460D01*
X4739229Y-13363460D02*
X4720182Y-13372984D01*
X4720182Y-13372984D02*
X4701134Y-13372984D01*
X4701134Y-13372984D02*
X4682087Y-13363460D01*
X4682087Y-13363460D02*
X4672563Y-13353936D01*
X4672563Y-13353936D02*
X4663039Y-13334888D01*
X4663039Y-13334888D02*
X4653515Y-13296793D01*
X4653515Y-13296793D02*
X4653515Y-13249174D01*
X4653515Y-13249174D02*
X4663039Y-13211079D01*
X4663039Y-13211079D02*
X4672563Y-13192031D01*
X4672563Y-13192031D02*
X4682087Y-13182508D01*
X4682087Y-13182508D02*
X4701134Y-13172984D01*
X4853515Y-13353936D02*
X4863039Y-13363460D01*
X4863039Y-13363460D02*
X4853515Y-13372984D01*
X4853515Y-13372984D02*
X4843991Y-13363460D01*
X4843991Y-13363460D02*
X4853515Y-13353936D01*
X4853515Y-13353936D02*
X4853515Y-13372984D01*
X4986848Y-13172984D02*
X5005896Y-13172984D01*
X5005896Y-13172984D02*
X5024944Y-13182508D01*
X5024944Y-13182508D02*
X5034468Y-13192031D01*
X5034468Y-13192031D02*
X5043991Y-13211079D01*
X5043991Y-13211079D02*
X5053515Y-13249174D01*
X5053515Y-13249174D02*
X5053515Y-13296793D01*
X5053515Y-13296793D02*
X5043991Y-13334888D01*
X5043991Y-13334888D02*
X5034468Y-13353936D01*
X5034468Y-13353936D02*
X5024944Y-13363460D01*
X5024944Y-13363460D02*
X5005896Y-13372984D01*
X5005896Y-13372984D02*
X4986848Y-13372984D01*
X4986848Y-13372984D02*
X4967801Y-13363460D01*
X4967801Y-13363460D02*
X4958277Y-13353936D01*
X4958277Y-13353936D02*
X4948753Y-13334888D01*
X4948753Y-13334888D02*
X4939229Y-13296793D01*
X4939229Y-13296793D02*
X4939229Y-13249174D01*
X4939229Y-13249174D02*
X4948753Y-13211079D01*
X4948753Y-13211079D02*
X4958277Y-13192031D01*
X4958277Y-13192031D02*
X4967801Y-13182508D01*
X4967801Y-13182508D02*
X4986848Y-13172984D01*
X5120182Y-13172984D02*
X5243991Y-13172984D01*
X5243991Y-13172984D02*
X5177325Y-13249174D01*
X5177325Y-13249174D02*
X5205896Y-13249174D01*
X5205896Y-13249174D02*
X5224944Y-13258698D01*
X5224944Y-13258698D02*
X5234468Y-13268222D01*
X5234468Y-13268222D02*
X5243991Y-13287269D01*
X5243991Y-13287269D02*
X5243991Y-13334888D01*
X5243991Y-13334888D02*
X5234468Y-13353936D01*
X5234468Y-13353936D02*
X5224944Y-13363460D01*
X5224944Y-13363460D02*
X5205896Y-13372984D01*
X5205896Y-13372984D02*
X5148753Y-13372984D01*
X5148753Y-13372984D02*
X5129706Y-13363460D01*
X5129706Y-13363460D02*
X5120182Y-13353936D01*
X5424944Y-13172984D02*
X5329706Y-13172984D01*
X5329706Y-13172984D02*
X5320182Y-13268222D01*
X5320182Y-13268222D02*
X5329706Y-13258698D01*
X5329706Y-13258698D02*
X5348753Y-13249174D01*
X5348753Y-13249174D02*
X5396372Y-13249174D01*
X5396372Y-13249174D02*
X5415420Y-13258698D01*
X5415420Y-13258698D02*
X5424944Y-13268222D01*
X5424944Y-13268222D02*
X5434468Y-13287269D01*
X5434468Y-13287269D02*
X5434468Y-13334888D01*
X5434468Y-13334888D02*
X5424944Y-13353936D01*
X5424944Y-13353936D02*
X5415420Y-13363460D01*
X5415420Y-13363460D02*
X5396372Y-13372984D01*
X5396372Y-13372984D02*
X5348753Y-13372984D01*
X5348753Y-13372984D02*
X5329706Y-13363460D01*
X5329706Y-13363460D02*
X5320182Y-13353936D01*
X5605896Y-13239650D02*
X5605896Y-13372984D01*
X5558277Y-13163460D02*
X5510658Y-13306317D01*
X5510658Y-13306317D02*
X5634467Y-13306317D01*
X5701134Y-13172984D02*
X5701134Y-13211079D01*
X5777325Y-13172984D02*
X5777325Y-13211079D01*
X6072563Y-13449174D02*
X6063039Y-13439650D01*
X6063039Y-13439650D02*
X6043991Y-13411079D01*
X6043991Y-13411079D02*
X6034468Y-13392031D01*
X6034468Y-13392031D02*
X6024944Y-13363460D01*
X6024944Y-13363460D02*
X6015420Y-13315841D01*
X6015420Y-13315841D02*
X6015420Y-13277746D01*
X6015420Y-13277746D02*
X6024944Y-13230127D01*
X6024944Y-13230127D02*
X6034468Y-13201555D01*
X6034468Y-13201555D02*
X6043991Y-13182508D01*
X6043991Y-13182508D02*
X6063039Y-13153936D01*
X6063039Y-13153936D02*
X6072563Y-13144412D01*
X6129706Y-13172984D02*
X6253515Y-13172984D01*
X6253515Y-13172984D02*
X6186848Y-13249174D01*
X6186848Y-13249174D02*
X6215420Y-13249174D01*
X6215420Y-13249174D02*
X6234468Y-13258698D01*
X6234468Y-13258698D02*
X6243991Y-13268222D01*
X6243991Y-13268222D02*
X6253515Y-13287269D01*
X6253515Y-13287269D02*
X6253515Y-13334888D01*
X6253515Y-13334888D02*
X6243991Y-13353936D01*
X6243991Y-13353936D02*
X6234468Y-13363460D01*
X6234468Y-13363460D02*
X6215420Y-13372984D01*
X6215420Y-13372984D02*
X6158277Y-13372984D01*
X6158277Y-13372984D02*
X6139229Y-13363460D01*
X6139229Y-13363460D02*
X6129706Y-13353936D01*
X6491610Y-13372984D02*
X6491610Y-13172984D01*
X6577325Y-13372984D02*
X6577325Y-13268222D01*
X6577325Y-13268222D02*
X6567801Y-13249174D01*
X6567801Y-13249174D02*
X6548753Y-13239650D01*
X6548753Y-13239650D02*
X6520182Y-13239650D01*
X6520182Y-13239650D02*
X6501134Y-13249174D01*
X6501134Y-13249174D02*
X6491610Y-13258698D01*
X6701134Y-13372984D02*
X6682087Y-13363460D01*
X6682087Y-13363460D02*
X6672563Y-13353936D01*
X6672563Y-13353936D02*
X6663039Y-13334888D01*
X6663039Y-13334888D02*
X6663039Y-13277746D01*
X6663039Y-13277746D02*
X6672563Y-13258698D01*
X6672563Y-13258698D02*
X6682087Y-13249174D01*
X6682087Y-13249174D02*
X6701134Y-13239650D01*
X6701134Y-13239650D02*
X6729706Y-13239650D01*
X6729706Y-13239650D02*
X6748753Y-13249174D01*
X6748753Y-13249174D02*
X6758277Y-13258698D01*
X6758277Y-13258698D02*
X6767801Y-13277746D01*
X6767801Y-13277746D02*
X6767801Y-13334888D01*
X6767801Y-13334888D02*
X6758277Y-13353936D01*
X6758277Y-13353936D02*
X6748753Y-13363460D01*
X6748753Y-13363460D02*
X6729706Y-13372984D01*
X6729706Y-13372984D02*
X6701134Y-13372984D01*
X6882087Y-13372984D02*
X6863039Y-13363460D01*
X6863039Y-13363460D02*
X6853515Y-13344412D01*
X6853515Y-13344412D02*
X6853515Y-13172984D01*
X7034468Y-13363460D02*
X7015420Y-13372984D01*
X7015420Y-13372984D02*
X6977325Y-13372984D01*
X6977325Y-13372984D02*
X6958277Y-13363460D01*
X6958277Y-13363460D02*
X6948753Y-13344412D01*
X6948753Y-13344412D02*
X6948753Y-13268222D01*
X6948753Y-13268222D02*
X6958277Y-13249174D01*
X6958277Y-13249174D02*
X6977325Y-13239650D01*
X6977325Y-13239650D02*
X7015420Y-13239650D01*
X7015420Y-13239650D02*
X7034468Y-13249174D01*
X7034468Y-13249174D02*
X7043991Y-13268222D01*
X7043991Y-13268222D02*
X7043991Y-13287269D01*
X7043991Y-13287269D02*
X6948753Y-13306317D01*
X7120182Y-13363460D02*
X7139230Y-13372984D01*
X7139230Y-13372984D02*
X7177325Y-13372984D01*
X7177325Y-13372984D02*
X7196372Y-13363460D01*
X7196372Y-13363460D02*
X7205896Y-13344412D01*
X7205896Y-13344412D02*
X7205896Y-13334888D01*
X7205896Y-13334888D02*
X7196372Y-13315841D01*
X7196372Y-13315841D02*
X7177325Y-13306317D01*
X7177325Y-13306317D02*
X7148753Y-13306317D01*
X7148753Y-13306317D02*
X7129706Y-13296793D01*
X7129706Y-13296793D02*
X7120182Y-13277746D01*
X7120182Y-13277746D02*
X7120182Y-13268222D01*
X7120182Y-13268222D02*
X7129706Y-13249174D01*
X7129706Y-13249174D02*
X7148753Y-13239650D01*
X7148753Y-13239650D02*
X7177325Y-13239650D01*
X7177325Y-13239650D02*
X7196372Y-13249174D01*
X7272563Y-13449174D02*
X7282087Y-13439650D01*
X7282087Y-13439650D02*
X7301134Y-13411079D01*
X7301134Y-13411079D02*
X7310658Y-13392031D01*
X7310658Y-13392031D02*
X7320182Y-13363460D01*
X7320182Y-13363460D02*
X7329706Y-13315841D01*
X7329706Y-13315841D02*
X7329706Y-13277746D01*
X7329706Y-13277746D02*
X7320182Y-13230127D01*
X7320182Y-13230127D02*
X7310658Y-13201555D01*
X7310658Y-13201555D02*
X7301134Y-13182508D01*
X7301134Y-13182508D02*
X7282087Y-13153936D01*
X7282087Y-13153936D02*
X7272563Y-13144412D01*
D12*
X2482856Y-13580856D02*
X2482856Y-13510144D01*
X2412144Y-13510144D01*
X2412144Y-13580856D01*
X2482856Y-13580856D01*
D11*
X2863039Y-13636984D02*
X2748753Y-13636984D01*
X2805896Y-13636984D02*
X2805896Y-13436984D01*
X2805896Y-13436984D02*
X2786848Y-13465555D01*
X2786848Y-13465555D02*
X2767801Y-13484603D01*
X2767801Y-13484603D02*
X2748753Y-13494127D01*
X2948753Y-13617936D02*
X2958277Y-13627460D01*
X2958277Y-13627460D02*
X2948753Y-13636984D01*
X2948753Y-13636984D02*
X2939229Y-13627460D01*
X2939229Y-13627460D02*
X2948753Y-13617936D01*
X2948753Y-13617936D02*
X2948753Y-13636984D01*
X3082086Y-13436984D02*
X3101134Y-13436984D01*
X3101134Y-13436984D02*
X3120182Y-13446508D01*
X3120182Y-13446508D02*
X3129705Y-13456031D01*
X3129705Y-13456031D02*
X3139229Y-13475079D01*
X3139229Y-13475079D02*
X3148753Y-13513174D01*
X3148753Y-13513174D02*
X3148753Y-13560793D01*
X3148753Y-13560793D02*
X3139229Y-13598888D01*
X3139229Y-13598888D02*
X3129705Y-13617936D01*
X3129705Y-13617936D02*
X3120182Y-13627460D01*
X3120182Y-13627460D02*
X3101134Y-13636984D01*
X3101134Y-13636984D02*
X3082086Y-13636984D01*
X3082086Y-13636984D02*
X3063039Y-13627460D01*
X3063039Y-13627460D02*
X3053515Y-13617936D01*
X3053515Y-13617936D02*
X3043991Y-13598888D01*
X3043991Y-13598888D02*
X3034467Y-13560793D01*
X3034467Y-13560793D02*
X3034467Y-13513174D01*
X3034467Y-13513174D02*
X3043991Y-13475079D01*
X3043991Y-13475079D02*
X3053515Y-13456031D01*
X3053515Y-13456031D02*
X3063039Y-13446508D01*
X3063039Y-13446508D02*
X3082086Y-13436984D01*
X3272562Y-13436984D02*
X3291610Y-13436984D01*
X3291610Y-13436984D02*
X3310658Y-13446508D01*
X3310658Y-13446508D02*
X3320182Y-13456031D01*
X3320182Y-13456031D02*
X3329705Y-13475079D01*
X3329705Y-13475079D02*
X3339229Y-13513174D01*
X3339229Y-13513174D02*
X3339229Y-13560793D01*
X3339229Y-13560793D02*
X3329705Y-13598888D01*
X3329705Y-13598888D02*
X3320182Y-13617936D01*
X3320182Y-13617936D02*
X3310658Y-13627460D01*
X3310658Y-13627460D02*
X3291610Y-13636984D01*
X3291610Y-13636984D02*
X3272562Y-13636984D01*
X3272562Y-13636984D02*
X3253515Y-13627460D01*
X3253515Y-13627460D02*
X3243991Y-13617936D01*
X3243991Y-13617936D02*
X3234467Y-13598888D01*
X3234467Y-13598888D02*
X3224943Y-13560793D01*
X3224943Y-13560793D02*
X3224943Y-13513174D01*
X3224943Y-13513174D02*
X3234467Y-13475079D01*
X3234467Y-13475079D02*
X3243991Y-13456031D01*
X3243991Y-13456031D02*
X3253515Y-13446508D01*
X3253515Y-13446508D02*
X3272562Y-13436984D01*
X3463039Y-13436984D02*
X3482086Y-13436984D01*
X3482086Y-13436984D02*
X3501134Y-13446508D01*
X3501134Y-13446508D02*
X3510658Y-13456031D01*
X3510658Y-13456031D02*
X3520182Y-13475079D01*
X3520182Y-13475079D02*
X3529705Y-13513174D01*
X3529705Y-13513174D02*
X3529705Y-13560793D01*
X3529705Y-13560793D02*
X3520182Y-13598888D01*
X3520182Y-13598888D02*
X3510658Y-13617936D01*
X3510658Y-13617936D02*
X3501134Y-13627460D01*
X3501134Y-13627460D02*
X3482086Y-13636984D01*
X3482086Y-13636984D02*
X3463039Y-13636984D01*
X3463039Y-13636984D02*
X3443991Y-13627460D01*
X3443991Y-13627460D02*
X3434467Y-13617936D01*
X3434467Y-13617936D02*
X3424943Y-13598888D01*
X3424943Y-13598888D02*
X3415420Y-13560793D01*
X3415420Y-13560793D02*
X3415420Y-13513174D01*
X3415420Y-13513174D02*
X3424943Y-13475079D01*
X3424943Y-13475079D02*
X3434467Y-13456031D01*
X3434467Y-13456031D02*
X3443991Y-13446508D01*
X3443991Y-13446508D02*
X3463039Y-13436984D01*
X3615420Y-13636984D02*
X3615420Y-13503650D01*
X3615420Y-13522698D02*
X3624943Y-13513174D01*
X3624943Y-13513174D02*
X3643991Y-13503650D01*
X3643991Y-13503650D02*
X3672563Y-13503650D01*
X3672563Y-13503650D02*
X3691610Y-13513174D01*
X3691610Y-13513174D02*
X3701134Y-13532222D01*
X3701134Y-13532222D02*
X3701134Y-13636984D01*
X3701134Y-13532222D02*
X3710658Y-13513174D01*
X3710658Y-13513174D02*
X3729705Y-13503650D01*
X3729705Y-13503650D02*
X3758277Y-13503650D01*
X3758277Y-13503650D02*
X3777324Y-13513174D01*
X3777324Y-13513174D02*
X3786848Y-13532222D01*
X3786848Y-13532222D02*
X3786848Y-13636984D01*
X3882086Y-13636984D02*
X3882086Y-13503650D01*
X3882086Y-13522698D02*
X3891610Y-13513174D01*
X3891610Y-13513174D02*
X3910658Y-13503650D01*
X3910658Y-13503650D02*
X3939229Y-13503650D01*
X3939229Y-13503650D02*
X3958277Y-13513174D01*
X3958277Y-13513174D02*
X3967801Y-13532222D01*
X3967801Y-13532222D02*
X3967801Y-13636984D01*
X3967801Y-13532222D02*
X3977324Y-13513174D01*
X3977324Y-13513174D02*
X3996372Y-13503650D01*
X3996372Y-13503650D02*
X4024943Y-13503650D01*
X4024943Y-13503650D02*
X4043991Y-13513174D01*
X4043991Y-13513174D02*
X4053515Y-13532222D01*
X4053515Y-13532222D02*
X4053515Y-13636984D01*
X4443991Y-13427460D02*
X4272563Y-13684603D01*
X4701134Y-13436984D02*
X4720182Y-13436984D01*
X4720182Y-13436984D02*
X4739229Y-13446508D01*
X4739229Y-13446508D02*
X4748753Y-13456031D01*
X4748753Y-13456031D02*
X4758277Y-13475079D01*
X4758277Y-13475079D02*
X4767801Y-13513174D01*
X4767801Y-13513174D02*
X4767801Y-13560793D01*
X4767801Y-13560793D02*
X4758277Y-13598888D01*
X4758277Y-13598888D02*
X4748753Y-13617936D01*
X4748753Y-13617936D02*
X4739229Y-13627460D01*
X4739229Y-13627460D02*
X4720182Y-13636984D01*
X4720182Y-13636984D02*
X4701134Y-13636984D01*
X4701134Y-13636984D02*
X4682087Y-13627460D01*
X4682087Y-13627460D02*
X4672563Y-13617936D01*
X4672563Y-13617936D02*
X4663039Y-13598888D01*
X4663039Y-13598888D02*
X4653515Y-13560793D01*
X4653515Y-13560793D02*
X4653515Y-13513174D01*
X4653515Y-13513174D02*
X4663039Y-13475079D01*
X4663039Y-13475079D02*
X4672563Y-13456031D01*
X4672563Y-13456031D02*
X4682087Y-13446508D01*
X4682087Y-13446508D02*
X4701134Y-13436984D01*
X4853515Y-13617936D02*
X4863039Y-13627460D01*
X4863039Y-13627460D02*
X4853515Y-13636984D01*
X4853515Y-13636984D02*
X4843991Y-13627460D01*
X4843991Y-13627460D02*
X4853515Y-13617936D01*
X4853515Y-13617936D02*
X4853515Y-13636984D01*
X4986848Y-13436984D02*
X5005896Y-13436984D01*
X5005896Y-13436984D02*
X5024944Y-13446508D01*
X5024944Y-13446508D02*
X5034468Y-13456031D01*
X5034468Y-13456031D02*
X5043991Y-13475079D01*
X5043991Y-13475079D02*
X5053515Y-13513174D01*
X5053515Y-13513174D02*
X5053515Y-13560793D01*
X5053515Y-13560793D02*
X5043991Y-13598888D01*
X5043991Y-13598888D02*
X5034468Y-13617936D01*
X5034468Y-13617936D02*
X5024944Y-13627460D01*
X5024944Y-13627460D02*
X5005896Y-13636984D01*
X5005896Y-13636984D02*
X4986848Y-13636984D01*
X4986848Y-13636984D02*
X4967801Y-13627460D01*
X4967801Y-13627460D02*
X4958277Y-13617936D01*
X4958277Y-13617936D02*
X4948753Y-13598888D01*
X4948753Y-13598888D02*
X4939229Y-13560793D01*
X4939229Y-13560793D02*
X4939229Y-13513174D01*
X4939229Y-13513174D02*
X4948753Y-13475079D01*
X4948753Y-13475079D02*
X4958277Y-13456031D01*
X4958277Y-13456031D02*
X4967801Y-13446508D01*
X4967801Y-13446508D02*
X4986848Y-13436984D01*
X5120182Y-13436984D02*
X5243991Y-13436984D01*
X5243991Y-13436984D02*
X5177325Y-13513174D01*
X5177325Y-13513174D02*
X5205896Y-13513174D01*
X5205896Y-13513174D02*
X5224944Y-13522698D01*
X5224944Y-13522698D02*
X5234468Y-13532222D01*
X5234468Y-13532222D02*
X5243991Y-13551269D01*
X5243991Y-13551269D02*
X5243991Y-13598888D01*
X5243991Y-13598888D02*
X5234468Y-13617936D01*
X5234468Y-13617936D02*
X5224944Y-13627460D01*
X5224944Y-13627460D02*
X5205896Y-13636984D01*
X5205896Y-13636984D02*
X5148753Y-13636984D01*
X5148753Y-13636984D02*
X5129706Y-13627460D01*
X5129706Y-13627460D02*
X5120182Y-13617936D01*
X5339229Y-13636984D02*
X5377325Y-13636984D01*
X5377325Y-13636984D02*
X5396372Y-13627460D01*
X5396372Y-13627460D02*
X5405896Y-13617936D01*
X5405896Y-13617936D02*
X5424944Y-13589365D01*
X5424944Y-13589365D02*
X5434468Y-13551269D01*
X5434468Y-13551269D02*
X5434468Y-13475079D01*
X5434468Y-13475079D02*
X5424944Y-13456031D01*
X5424944Y-13456031D02*
X5415420Y-13446508D01*
X5415420Y-13446508D02*
X5396372Y-13436984D01*
X5396372Y-13436984D02*
X5358277Y-13436984D01*
X5358277Y-13436984D02*
X5339229Y-13446508D01*
X5339229Y-13446508D02*
X5329706Y-13456031D01*
X5329706Y-13456031D02*
X5320182Y-13475079D01*
X5320182Y-13475079D02*
X5320182Y-13522698D01*
X5320182Y-13522698D02*
X5329706Y-13541746D01*
X5329706Y-13541746D02*
X5339229Y-13551269D01*
X5339229Y-13551269D02*
X5358277Y-13560793D01*
X5358277Y-13560793D02*
X5396372Y-13560793D01*
X5396372Y-13560793D02*
X5415420Y-13551269D01*
X5415420Y-13551269D02*
X5424944Y-13541746D01*
X5424944Y-13541746D02*
X5434468Y-13522698D01*
X5605896Y-13503650D02*
X5605896Y-13636984D01*
X5558277Y-13427460D02*
X5510658Y-13570317D01*
X5510658Y-13570317D02*
X5634467Y-13570317D01*
X5701134Y-13436984D02*
X5701134Y-13475079D01*
X5777325Y-13436984D02*
X5777325Y-13475079D01*
X6072563Y-13713174D02*
X6063039Y-13703650D01*
X6063039Y-13703650D02*
X6043991Y-13675079D01*
X6043991Y-13675079D02*
X6034468Y-13656031D01*
X6034468Y-13656031D02*
X6024944Y-13627460D01*
X6024944Y-13627460D02*
X6015420Y-13579841D01*
X6015420Y-13579841D02*
X6015420Y-13541746D01*
X6015420Y-13541746D02*
X6024944Y-13494127D01*
X6024944Y-13494127D02*
X6034468Y-13465555D01*
X6034468Y-13465555D02*
X6043991Y-13446508D01*
X6043991Y-13446508D02*
X6063039Y-13417936D01*
X6063039Y-13417936D02*
X6072563Y-13408412D01*
X6253515Y-13636984D02*
X6139229Y-13636984D01*
X6196372Y-13636984D02*
X6196372Y-13436984D01*
X6196372Y-13436984D02*
X6177325Y-13465555D01*
X6177325Y-13465555D02*
X6158277Y-13484603D01*
X6158277Y-13484603D02*
X6139229Y-13494127D01*
X6377325Y-13436984D02*
X6396372Y-13436984D01*
X6396372Y-13436984D02*
X6415420Y-13446508D01*
X6415420Y-13446508D02*
X6424944Y-13456031D01*
X6424944Y-13456031D02*
X6434468Y-13475079D01*
X6434468Y-13475079D02*
X6443991Y-13513174D01*
X6443991Y-13513174D02*
X6443991Y-13560793D01*
X6443991Y-13560793D02*
X6434468Y-13598888D01*
X6434468Y-13598888D02*
X6424944Y-13617936D01*
X6424944Y-13617936D02*
X6415420Y-13627460D01*
X6415420Y-13627460D02*
X6396372Y-13636984D01*
X6396372Y-13636984D02*
X6377325Y-13636984D01*
X6377325Y-13636984D02*
X6358277Y-13627460D01*
X6358277Y-13627460D02*
X6348753Y-13617936D01*
X6348753Y-13617936D02*
X6339229Y-13598888D01*
X6339229Y-13598888D02*
X6329706Y-13560793D01*
X6329706Y-13560793D02*
X6329706Y-13513174D01*
X6329706Y-13513174D02*
X6339229Y-13475079D01*
X6339229Y-13475079D02*
X6348753Y-13456031D01*
X6348753Y-13456031D02*
X6358277Y-13446508D01*
X6358277Y-13446508D02*
X6377325Y-13436984D01*
X6682087Y-13636984D02*
X6682087Y-13436984D01*
X6767801Y-13636984D02*
X6767801Y-13532222D01*
X6767801Y-13532222D02*
X6758277Y-13513174D01*
X6758277Y-13513174D02*
X6739230Y-13503650D01*
X6739230Y-13503650D02*
X6710658Y-13503650D01*
X6710658Y-13503650D02*
X6691610Y-13513174D01*
X6691610Y-13513174D02*
X6682087Y-13522698D01*
X6891610Y-13636984D02*
X6872563Y-13627460D01*
X6872563Y-13627460D02*
X6863039Y-13617936D01*
X6863039Y-13617936D02*
X6853515Y-13598888D01*
X6853515Y-13598888D02*
X6853515Y-13541746D01*
X6853515Y-13541746D02*
X6863039Y-13522698D01*
X6863039Y-13522698D02*
X6872563Y-13513174D01*
X6872563Y-13513174D02*
X6891610Y-13503650D01*
X6891610Y-13503650D02*
X6920182Y-13503650D01*
X6920182Y-13503650D02*
X6939230Y-13513174D01*
X6939230Y-13513174D02*
X6948753Y-13522698D01*
X6948753Y-13522698D02*
X6958277Y-13541746D01*
X6958277Y-13541746D02*
X6958277Y-13598888D01*
X6958277Y-13598888D02*
X6948753Y-13617936D01*
X6948753Y-13617936D02*
X6939230Y-13627460D01*
X6939230Y-13627460D02*
X6920182Y-13636984D01*
X6920182Y-13636984D02*
X6891610Y-13636984D01*
X7072563Y-13636984D02*
X7053515Y-13627460D01*
X7053515Y-13627460D02*
X7043991Y-13608412D01*
X7043991Y-13608412D02*
X7043991Y-13436984D01*
X7224944Y-13627460D02*
X7205896Y-13636984D01*
X7205896Y-13636984D02*
X7167801Y-13636984D01*
X7167801Y-13636984D02*
X7148753Y-13627460D01*
X7148753Y-13627460D02*
X7139230Y-13608412D01*
X7139230Y-13608412D02*
X7139230Y-13532222D01*
X7139230Y-13532222D02*
X7148753Y-13513174D01*
X7148753Y-13513174D02*
X7167801Y-13503650D01*
X7167801Y-13503650D02*
X7205896Y-13503650D01*
X7205896Y-13503650D02*
X7224944Y-13513174D01*
X7224944Y-13513174D02*
X7234468Y-13532222D01*
X7234468Y-13532222D02*
X7234468Y-13551269D01*
X7234468Y-13551269D02*
X7139230Y-13570317D01*
X7310658Y-13627460D02*
X7329706Y-13636984D01*
X7329706Y-13636984D02*
X7367801Y-13636984D01*
X7367801Y-13636984D02*
X7386849Y-13627460D01*
X7386849Y-13627460D02*
X7396372Y-13608412D01*
X7396372Y-13608412D02*
X7396372Y-13598888D01*
X7396372Y-13598888D02*
X7386849Y-13579841D01*
X7386849Y-13579841D02*
X7367801Y-13570317D01*
X7367801Y-13570317D02*
X7339230Y-13570317D01*
X7339230Y-13570317D02*
X7320182Y-13560793D01*
X7320182Y-13560793D02*
X7310658Y-13541746D01*
X7310658Y-13541746D02*
X7310658Y-13532222D01*
X7310658Y-13532222D02*
X7320182Y-13513174D01*
X7320182Y-13513174D02*
X7339230Y-13503650D01*
X7339230Y-13503650D02*
X7367801Y-13503650D01*
X7367801Y-13503650D02*
X7386849Y-13513174D01*
X7463039Y-13713174D02*
X7472563Y-13703650D01*
X7472563Y-13703650D02*
X7491611Y-13675079D01*
X7491611Y-13675079D02*
X7501134Y-13656031D01*
X7501134Y-13656031D02*
X7510658Y-13627460D01*
X7510658Y-13627460D02*
X7520182Y-13579841D01*
X7520182Y-13579841D02*
X7520182Y-13541746D01*
X7520182Y-13541746D02*
X7510658Y-13494127D01*
X7510658Y-13494127D02*
X7501134Y-13465555D01*
X7501134Y-13465555D02*
X7491611Y-13446508D01*
X7491611Y-13446508D02*
X7472563Y-13417936D01*
X7472563Y-13417936D02*
X7463039Y-13408412D01*
D13*
X2446700Y-13860300D02*
X2497500Y-13809500D01*
X2446700Y-13758700D01*
X2395900Y-13809500D01*
X2446700Y-13860300D01*
D11*
X2863039Y-13900984D02*
X2748753Y-13900984D01*
X2805896Y-13900984D02*
X2805896Y-13700984D01*
X2805896Y-13700984D02*
X2786848Y-13729555D01*
X2786848Y-13729555D02*
X2767801Y-13748603D01*
X2767801Y-13748603D02*
X2748753Y-13758127D01*
X2948753Y-13881936D02*
X2958277Y-13891460D01*
X2958277Y-13891460D02*
X2948753Y-13900984D01*
X2948753Y-13900984D02*
X2939229Y-13891460D01*
X2939229Y-13891460D02*
X2948753Y-13881936D01*
X2948753Y-13881936D02*
X2948753Y-13900984D01*
X3082086Y-13700984D02*
X3101134Y-13700984D01*
X3101134Y-13700984D02*
X3120182Y-13710508D01*
X3120182Y-13710508D02*
X3129705Y-13720031D01*
X3129705Y-13720031D02*
X3139229Y-13739079D01*
X3139229Y-13739079D02*
X3148753Y-13777174D01*
X3148753Y-13777174D02*
X3148753Y-13824793D01*
X3148753Y-13824793D02*
X3139229Y-13862888D01*
X3139229Y-13862888D02*
X3129705Y-13881936D01*
X3129705Y-13881936D02*
X3120182Y-13891460D01*
X3120182Y-13891460D02*
X3101134Y-13900984D01*
X3101134Y-13900984D02*
X3082086Y-13900984D01*
X3082086Y-13900984D02*
X3063039Y-13891460D01*
X3063039Y-13891460D02*
X3053515Y-13881936D01*
X3053515Y-13881936D02*
X3043991Y-13862888D01*
X3043991Y-13862888D02*
X3034467Y-13824793D01*
X3034467Y-13824793D02*
X3034467Y-13777174D01*
X3034467Y-13777174D02*
X3043991Y-13739079D01*
X3043991Y-13739079D02*
X3053515Y-13720031D01*
X3053515Y-13720031D02*
X3063039Y-13710508D01*
X3063039Y-13710508D02*
X3082086Y-13700984D01*
X3339229Y-13900984D02*
X3224943Y-13900984D01*
X3282086Y-13900984D02*
X3282086Y-13700984D01*
X3282086Y-13700984D02*
X3263039Y-13729555D01*
X3263039Y-13729555D02*
X3243991Y-13748603D01*
X3243991Y-13748603D02*
X3224943Y-13758127D01*
X3510658Y-13700984D02*
X3472562Y-13700984D01*
X3472562Y-13700984D02*
X3453515Y-13710508D01*
X3453515Y-13710508D02*
X3443991Y-13720031D01*
X3443991Y-13720031D02*
X3424943Y-13748603D01*
X3424943Y-13748603D02*
X3415420Y-13786698D01*
X3415420Y-13786698D02*
X3415420Y-13862888D01*
X3415420Y-13862888D02*
X3424943Y-13881936D01*
X3424943Y-13881936D02*
X3434467Y-13891460D01*
X3434467Y-13891460D02*
X3453515Y-13900984D01*
X3453515Y-13900984D02*
X3491610Y-13900984D01*
X3491610Y-13900984D02*
X3510658Y-13891460D01*
X3510658Y-13891460D02*
X3520182Y-13881936D01*
X3520182Y-13881936D02*
X3529705Y-13862888D01*
X3529705Y-13862888D02*
X3529705Y-13815269D01*
X3529705Y-13815269D02*
X3520182Y-13796222D01*
X3520182Y-13796222D02*
X3510658Y-13786698D01*
X3510658Y-13786698D02*
X3491610Y-13777174D01*
X3491610Y-13777174D02*
X3453515Y-13777174D01*
X3453515Y-13777174D02*
X3434467Y-13786698D01*
X3434467Y-13786698D02*
X3424943Y-13796222D01*
X3424943Y-13796222D02*
X3415420Y-13815269D01*
X3615420Y-13900984D02*
X3615420Y-13767650D01*
X3615420Y-13786698D02*
X3624943Y-13777174D01*
X3624943Y-13777174D02*
X3643991Y-13767650D01*
X3643991Y-13767650D02*
X3672563Y-13767650D01*
X3672563Y-13767650D02*
X3691610Y-13777174D01*
X3691610Y-13777174D02*
X3701134Y-13796222D01*
X3701134Y-13796222D02*
X3701134Y-13900984D01*
X3701134Y-13796222D02*
X3710658Y-13777174D01*
X3710658Y-13777174D02*
X3729705Y-13767650D01*
X3729705Y-13767650D02*
X3758277Y-13767650D01*
X3758277Y-13767650D02*
X3777324Y-13777174D01*
X3777324Y-13777174D02*
X3786848Y-13796222D01*
X3786848Y-13796222D02*
X3786848Y-13900984D01*
X3882086Y-13900984D02*
X3882086Y-13767650D01*
X3882086Y-13786698D02*
X3891610Y-13777174D01*
X3891610Y-13777174D02*
X3910658Y-13767650D01*
X3910658Y-13767650D02*
X3939229Y-13767650D01*
X3939229Y-13767650D02*
X3958277Y-13777174D01*
X3958277Y-13777174D02*
X3967801Y-13796222D01*
X3967801Y-13796222D02*
X3967801Y-13900984D01*
X3967801Y-13796222D02*
X3977324Y-13777174D01*
X3977324Y-13777174D02*
X3996372Y-13767650D01*
X3996372Y-13767650D02*
X4024943Y-13767650D01*
X4024943Y-13767650D02*
X4043991Y-13777174D01*
X4043991Y-13777174D02*
X4053515Y-13796222D01*
X4053515Y-13796222D02*
X4053515Y-13900984D01*
X4443991Y-13691460D02*
X4272563Y-13948603D01*
X4701134Y-13700984D02*
X4720182Y-13700984D01*
X4720182Y-13700984D02*
X4739229Y-13710508D01*
X4739229Y-13710508D02*
X4748753Y-13720031D01*
X4748753Y-13720031D02*
X4758277Y-13739079D01*
X4758277Y-13739079D02*
X4767801Y-13777174D01*
X4767801Y-13777174D02*
X4767801Y-13824793D01*
X4767801Y-13824793D02*
X4758277Y-13862888D01*
X4758277Y-13862888D02*
X4748753Y-13881936D01*
X4748753Y-13881936D02*
X4739229Y-13891460D01*
X4739229Y-13891460D02*
X4720182Y-13900984D01*
X4720182Y-13900984D02*
X4701134Y-13900984D01*
X4701134Y-13900984D02*
X4682087Y-13891460D01*
X4682087Y-13891460D02*
X4672563Y-13881936D01*
X4672563Y-13881936D02*
X4663039Y-13862888D01*
X4663039Y-13862888D02*
X4653515Y-13824793D01*
X4653515Y-13824793D02*
X4653515Y-13777174D01*
X4653515Y-13777174D02*
X4663039Y-13739079D01*
X4663039Y-13739079D02*
X4672563Y-13720031D01*
X4672563Y-13720031D02*
X4682087Y-13710508D01*
X4682087Y-13710508D02*
X4701134Y-13700984D01*
X4853515Y-13881936D02*
X4863039Y-13891460D01*
X4863039Y-13891460D02*
X4853515Y-13900984D01*
X4853515Y-13900984D02*
X4843991Y-13891460D01*
X4843991Y-13891460D02*
X4853515Y-13881936D01*
X4853515Y-13881936D02*
X4853515Y-13900984D01*
X4986848Y-13700984D02*
X5005896Y-13700984D01*
X5005896Y-13700984D02*
X5024944Y-13710508D01*
X5024944Y-13710508D02*
X5034468Y-13720031D01*
X5034468Y-13720031D02*
X5043991Y-13739079D01*
X5043991Y-13739079D02*
X5053515Y-13777174D01*
X5053515Y-13777174D02*
X5053515Y-13824793D01*
X5053515Y-13824793D02*
X5043991Y-13862888D01*
X5043991Y-13862888D02*
X5034468Y-13881936D01*
X5034468Y-13881936D02*
X5024944Y-13891460D01*
X5024944Y-13891460D02*
X5005896Y-13900984D01*
X5005896Y-13900984D02*
X4986848Y-13900984D01*
X4986848Y-13900984D02*
X4967801Y-13891460D01*
X4967801Y-13891460D02*
X4958277Y-13881936D01*
X4958277Y-13881936D02*
X4948753Y-13862888D01*
X4948753Y-13862888D02*
X4939229Y-13824793D01*
X4939229Y-13824793D02*
X4939229Y-13777174D01*
X4939229Y-13777174D02*
X4948753Y-13739079D01*
X4948753Y-13739079D02*
X4958277Y-13720031D01*
X4958277Y-13720031D02*
X4967801Y-13710508D01*
X4967801Y-13710508D02*
X4986848Y-13700984D01*
X5224944Y-13767650D02*
X5224944Y-13900984D01*
X5177325Y-13691460D02*
X5129706Y-13834317D01*
X5129706Y-13834317D02*
X5253515Y-13834317D01*
X5367801Y-13700984D02*
X5386849Y-13700984D01*
X5386849Y-13700984D02*
X5405896Y-13710508D01*
X5405896Y-13710508D02*
X5415420Y-13720031D01*
X5415420Y-13720031D02*
X5424944Y-13739079D01*
X5424944Y-13739079D02*
X5434468Y-13777174D01*
X5434468Y-13777174D02*
X5434468Y-13824793D01*
X5434468Y-13824793D02*
X5424944Y-13862888D01*
X5424944Y-13862888D02*
X5415420Y-13881936D01*
X5415420Y-13881936D02*
X5405896Y-13891460D01*
X5405896Y-13891460D02*
X5386849Y-13900984D01*
X5386849Y-13900984D02*
X5367801Y-13900984D01*
X5367801Y-13900984D02*
X5348753Y-13891460D01*
X5348753Y-13891460D02*
X5339229Y-13881936D01*
X5339229Y-13881936D02*
X5329706Y-13862888D01*
X5329706Y-13862888D02*
X5320182Y-13824793D01*
X5320182Y-13824793D02*
X5320182Y-13777174D01*
X5320182Y-13777174D02*
X5329706Y-13739079D01*
X5329706Y-13739079D02*
X5339229Y-13720031D01*
X5339229Y-13720031D02*
X5348753Y-13710508D01*
X5348753Y-13710508D02*
X5367801Y-13700984D01*
X5558277Y-13700984D02*
X5577325Y-13700984D01*
X5577325Y-13700984D02*
X5596372Y-13710508D01*
X5596372Y-13710508D02*
X5605896Y-13720031D01*
X5605896Y-13720031D02*
X5615420Y-13739079D01*
X5615420Y-13739079D02*
X5624944Y-13777174D01*
X5624944Y-13777174D02*
X5624944Y-13824793D01*
X5624944Y-13824793D02*
X5615420Y-13862888D01*
X5615420Y-13862888D02*
X5605896Y-13881936D01*
X5605896Y-13881936D02*
X5596372Y-13891460D01*
X5596372Y-13891460D02*
X5577325Y-13900984D01*
X5577325Y-13900984D02*
X5558277Y-13900984D01*
X5558277Y-13900984D02*
X5539229Y-13891460D01*
X5539229Y-13891460D02*
X5529706Y-13881936D01*
X5529706Y-13881936D02*
X5520182Y-13862888D01*
X5520182Y-13862888D02*
X5510658Y-13824793D01*
X5510658Y-13824793D02*
X5510658Y-13777174D01*
X5510658Y-13777174D02*
X5520182Y-13739079D01*
X5520182Y-13739079D02*
X5529706Y-13720031D01*
X5529706Y-13720031D02*
X5539229Y-13710508D01*
X5539229Y-13710508D02*
X5558277Y-13700984D01*
X5701134Y-13700984D02*
X5701134Y-13739079D01*
X5777325Y-13700984D02*
X5777325Y-13739079D01*
X6072563Y-13977174D02*
X6063039Y-13967650D01*
X6063039Y-13967650D02*
X6043991Y-13939079D01*
X6043991Y-13939079D02*
X6034468Y-13920031D01*
X6034468Y-13920031D02*
X6024944Y-13891460D01*
X6024944Y-13891460D02*
X6015420Y-13843841D01*
X6015420Y-13843841D02*
X6015420Y-13805746D01*
X6015420Y-13805746D02*
X6024944Y-13758127D01*
X6024944Y-13758127D02*
X6034468Y-13729555D01*
X6034468Y-13729555D02*
X6043991Y-13710508D01*
X6043991Y-13710508D02*
X6063039Y-13681936D01*
X6063039Y-13681936D02*
X6072563Y-13672412D01*
X6253515Y-13900984D02*
X6139229Y-13900984D01*
X6196372Y-13900984D02*
X6196372Y-13700984D01*
X6196372Y-13700984D02*
X6177325Y-13729555D01*
X6177325Y-13729555D02*
X6158277Y-13748603D01*
X6158277Y-13748603D02*
X6139229Y-13758127D01*
X6424944Y-13700984D02*
X6386848Y-13700984D01*
X6386848Y-13700984D02*
X6367801Y-13710508D01*
X6367801Y-13710508D02*
X6358277Y-13720031D01*
X6358277Y-13720031D02*
X6339229Y-13748603D01*
X6339229Y-13748603D02*
X6329706Y-13786698D01*
X6329706Y-13786698D02*
X6329706Y-13862888D01*
X6329706Y-13862888D02*
X6339229Y-13881936D01*
X6339229Y-13881936D02*
X6348753Y-13891460D01*
X6348753Y-13891460D02*
X6367801Y-13900984D01*
X6367801Y-13900984D02*
X6405896Y-13900984D01*
X6405896Y-13900984D02*
X6424944Y-13891460D01*
X6424944Y-13891460D02*
X6434468Y-13881936D01*
X6434468Y-13881936D02*
X6443991Y-13862888D01*
X6443991Y-13862888D02*
X6443991Y-13815269D01*
X6443991Y-13815269D02*
X6434468Y-13796222D01*
X6434468Y-13796222D02*
X6424944Y-13786698D01*
X6424944Y-13786698D02*
X6405896Y-13777174D01*
X6405896Y-13777174D02*
X6367801Y-13777174D01*
X6367801Y-13777174D02*
X6348753Y-13786698D01*
X6348753Y-13786698D02*
X6339229Y-13796222D01*
X6339229Y-13796222D02*
X6329706Y-13815269D01*
X6682087Y-13900984D02*
X6682087Y-13700984D01*
X6767801Y-13900984D02*
X6767801Y-13796222D01*
X6767801Y-13796222D02*
X6758277Y-13777174D01*
X6758277Y-13777174D02*
X6739230Y-13767650D01*
X6739230Y-13767650D02*
X6710658Y-13767650D01*
X6710658Y-13767650D02*
X6691610Y-13777174D01*
X6691610Y-13777174D02*
X6682087Y-13786698D01*
X6891610Y-13900984D02*
X6872563Y-13891460D01*
X6872563Y-13891460D02*
X6863039Y-13881936D01*
X6863039Y-13881936D02*
X6853515Y-13862888D01*
X6853515Y-13862888D02*
X6853515Y-13805746D01*
X6853515Y-13805746D02*
X6863039Y-13786698D01*
X6863039Y-13786698D02*
X6872563Y-13777174D01*
X6872563Y-13777174D02*
X6891610Y-13767650D01*
X6891610Y-13767650D02*
X6920182Y-13767650D01*
X6920182Y-13767650D02*
X6939230Y-13777174D01*
X6939230Y-13777174D02*
X6948753Y-13786698D01*
X6948753Y-13786698D02*
X6958277Y-13805746D01*
X6958277Y-13805746D02*
X6958277Y-13862888D01*
X6958277Y-13862888D02*
X6948753Y-13881936D01*
X6948753Y-13881936D02*
X6939230Y-13891460D01*
X6939230Y-13891460D02*
X6920182Y-13900984D01*
X6920182Y-13900984D02*
X6891610Y-13900984D01*
X7072563Y-13900984D02*
X7053515Y-13891460D01*
X7053515Y-13891460D02*
X7043991Y-13872412D01*
X7043991Y-13872412D02*
X7043991Y-13700984D01*
X7224944Y-13891460D02*
X7205896Y-13900984D01*
X7205896Y-13900984D02*
X7167801Y-13900984D01*
X7167801Y-13900984D02*
X7148753Y-13891460D01*
X7148753Y-13891460D02*
X7139230Y-13872412D01*
X7139230Y-13872412D02*
X7139230Y-13796222D01*
X7139230Y-13796222D02*
X7148753Y-13777174D01*
X7148753Y-13777174D02*
X7167801Y-13767650D01*
X7167801Y-13767650D02*
X7205896Y-13767650D01*
X7205896Y-13767650D02*
X7224944Y-13777174D01*
X7224944Y-13777174D02*
X7234468Y-13796222D01*
X7234468Y-13796222D02*
X7234468Y-13815269D01*
X7234468Y-13815269D02*
X7139230Y-13834317D01*
X7310658Y-13891460D02*
X7329706Y-13900984D01*
X7329706Y-13900984D02*
X7367801Y-13900984D01*
X7367801Y-13900984D02*
X7386849Y-13891460D01*
X7386849Y-13891460D02*
X7396372Y-13872412D01*
X7396372Y-13872412D02*
X7396372Y-13862888D01*
X7396372Y-13862888D02*
X7386849Y-13843841D01*
X7386849Y-13843841D02*
X7367801Y-13834317D01*
X7367801Y-13834317D02*
X7339230Y-13834317D01*
X7339230Y-13834317D02*
X7320182Y-13824793D01*
X7320182Y-13824793D02*
X7310658Y-13805746D01*
X7310658Y-13805746D02*
X7310658Y-13796222D01*
X7310658Y-13796222D02*
X7320182Y-13777174D01*
X7320182Y-13777174D02*
X7339230Y-13767650D01*
X7339230Y-13767650D02*
X7367801Y-13767650D01*
X7367801Y-13767650D02*
X7386849Y-13777174D01*
X7463039Y-13977174D02*
X7472563Y-13967650D01*
X7472563Y-13967650D02*
X7491611Y-13939079D01*
X7491611Y-13939079D02*
X7501134Y-13920031D01*
X7501134Y-13920031D02*
X7510658Y-13891460D01*
X7510658Y-13891460D02*
X7520182Y-13843841D01*
X7520182Y-13843841D02*
X7520182Y-13805746D01*
X7520182Y-13805746D02*
X7510658Y-13758127D01*
X7510658Y-13758127D02*
X7501134Y-13729555D01*
X7501134Y-13729555D02*
X7491611Y-13710508D01*
X7491611Y-13710508D02*
X7472563Y-13681936D01*
X7472563Y-13681936D02*
X7463039Y-13672412D01*
D14*
X2377500Y-14013500D02*
X2497500Y-14133500D01*
X2497500Y-14013500D02*
X2377500Y-14133500D01*
X2497500Y-14073500D02*
G75*
G03*
X2377500Y-14073500I-60000J0D01*
G01*
X2377500Y-14073500D02*
G75*
G03*
X2497500Y-14073500I60000J0D01*
G01*
D11*
X2863039Y-14164984D02*
X2748753Y-14164984D01*
X2805896Y-14164984D02*
X2805896Y-13964984D01*
X2805896Y-13964984D02*
X2786848Y-13993555D01*
X2786848Y-13993555D02*
X2767801Y-14012603D01*
X2767801Y-14012603D02*
X2748753Y-14022127D01*
X2948753Y-14145936D02*
X2958277Y-14155460D01*
X2958277Y-14155460D02*
X2948753Y-14164984D01*
X2948753Y-14164984D02*
X2939229Y-14155460D01*
X2939229Y-14155460D02*
X2948753Y-14145936D01*
X2948753Y-14145936D02*
X2948753Y-14164984D01*
X3034467Y-13984031D02*
X3043991Y-13974508D01*
X3043991Y-13974508D02*
X3063039Y-13964984D01*
X3063039Y-13964984D02*
X3110658Y-13964984D01*
X3110658Y-13964984D02*
X3129705Y-13974508D01*
X3129705Y-13974508D02*
X3139229Y-13984031D01*
X3139229Y-13984031D02*
X3148753Y-14003079D01*
X3148753Y-14003079D02*
X3148753Y-14022127D01*
X3148753Y-14022127D02*
X3139229Y-14050698D01*
X3139229Y-14050698D02*
X3024943Y-14164984D01*
X3024943Y-14164984D02*
X3148753Y-14164984D01*
X3272562Y-13964984D02*
X3291610Y-13964984D01*
X3291610Y-13964984D02*
X3310658Y-13974508D01*
X3310658Y-13974508D02*
X3320182Y-13984031D01*
X3320182Y-13984031D02*
X3329705Y-14003079D01*
X3329705Y-14003079D02*
X3339229Y-14041174D01*
X3339229Y-14041174D02*
X3339229Y-14088793D01*
X3339229Y-14088793D02*
X3329705Y-14126888D01*
X3329705Y-14126888D02*
X3320182Y-14145936D01*
X3320182Y-14145936D02*
X3310658Y-14155460D01*
X3310658Y-14155460D02*
X3291610Y-14164984D01*
X3291610Y-14164984D02*
X3272562Y-14164984D01*
X3272562Y-14164984D02*
X3253515Y-14155460D01*
X3253515Y-14155460D02*
X3243991Y-14145936D01*
X3243991Y-14145936D02*
X3234467Y-14126888D01*
X3234467Y-14126888D02*
X3224943Y-14088793D01*
X3224943Y-14088793D02*
X3224943Y-14041174D01*
X3224943Y-14041174D02*
X3234467Y-14003079D01*
X3234467Y-14003079D02*
X3243991Y-13984031D01*
X3243991Y-13984031D02*
X3253515Y-13974508D01*
X3253515Y-13974508D02*
X3272562Y-13964984D01*
X3463039Y-13964984D02*
X3482086Y-13964984D01*
X3482086Y-13964984D02*
X3501134Y-13974508D01*
X3501134Y-13974508D02*
X3510658Y-13984031D01*
X3510658Y-13984031D02*
X3520182Y-14003079D01*
X3520182Y-14003079D02*
X3529705Y-14041174D01*
X3529705Y-14041174D02*
X3529705Y-14088793D01*
X3529705Y-14088793D02*
X3520182Y-14126888D01*
X3520182Y-14126888D02*
X3510658Y-14145936D01*
X3510658Y-14145936D02*
X3501134Y-14155460D01*
X3501134Y-14155460D02*
X3482086Y-14164984D01*
X3482086Y-14164984D02*
X3463039Y-14164984D01*
X3463039Y-14164984D02*
X3443991Y-14155460D01*
X3443991Y-14155460D02*
X3434467Y-14145936D01*
X3434467Y-14145936D02*
X3424943Y-14126888D01*
X3424943Y-14126888D02*
X3415420Y-14088793D01*
X3415420Y-14088793D02*
X3415420Y-14041174D01*
X3415420Y-14041174D02*
X3424943Y-14003079D01*
X3424943Y-14003079D02*
X3434467Y-13984031D01*
X3434467Y-13984031D02*
X3443991Y-13974508D01*
X3443991Y-13974508D02*
X3463039Y-13964984D01*
X3615420Y-14164984D02*
X3615420Y-14031650D01*
X3615420Y-14050698D02*
X3624943Y-14041174D01*
X3624943Y-14041174D02*
X3643991Y-14031650D01*
X3643991Y-14031650D02*
X3672563Y-14031650D01*
X3672563Y-14031650D02*
X3691610Y-14041174D01*
X3691610Y-14041174D02*
X3701134Y-14060222D01*
X3701134Y-14060222D02*
X3701134Y-14164984D01*
X3701134Y-14060222D02*
X3710658Y-14041174D01*
X3710658Y-14041174D02*
X3729705Y-14031650D01*
X3729705Y-14031650D02*
X3758277Y-14031650D01*
X3758277Y-14031650D02*
X3777324Y-14041174D01*
X3777324Y-14041174D02*
X3786848Y-14060222D01*
X3786848Y-14060222D02*
X3786848Y-14164984D01*
X3882086Y-14164984D02*
X3882086Y-14031650D01*
X3882086Y-14050698D02*
X3891610Y-14041174D01*
X3891610Y-14041174D02*
X3910658Y-14031650D01*
X3910658Y-14031650D02*
X3939229Y-14031650D01*
X3939229Y-14031650D02*
X3958277Y-14041174D01*
X3958277Y-14041174D02*
X3967801Y-14060222D01*
X3967801Y-14060222D02*
X3967801Y-14164984D01*
X3967801Y-14060222D02*
X3977324Y-14041174D01*
X3977324Y-14041174D02*
X3996372Y-14031650D01*
X3996372Y-14031650D02*
X4024943Y-14031650D01*
X4024943Y-14031650D02*
X4043991Y-14041174D01*
X4043991Y-14041174D02*
X4053515Y-14060222D01*
X4053515Y-14060222D02*
X4053515Y-14164984D01*
X4443991Y-13955460D02*
X4272563Y-14212603D01*
X4701134Y-13964984D02*
X4720182Y-13964984D01*
X4720182Y-13964984D02*
X4739229Y-13974508D01*
X4739229Y-13974508D02*
X4748753Y-13984031D01*
X4748753Y-13984031D02*
X4758277Y-14003079D01*
X4758277Y-14003079D02*
X4767801Y-14041174D01*
X4767801Y-14041174D02*
X4767801Y-14088793D01*
X4767801Y-14088793D02*
X4758277Y-14126888D01*
X4758277Y-14126888D02*
X4748753Y-14145936D01*
X4748753Y-14145936D02*
X4739229Y-14155460D01*
X4739229Y-14155460D02*
X4720182Y-14164984D01*
X4720182Y-14164984D02*
X4701134Y-14164984D01*
X4701134Y-14164984D02*
X4682087Y-14155460D01*
X4682087Y-14155460D02*
X4672563Y-14145936D01*
X4672563Y-14145936D02*
X4663039Y-14126888D01*
X4663039Y-14126888D02*
X4653515Y-14088793D01*
X4653515Y-14088793D02*
X4653515Y-14041174D01*
X4653515Y-14041174D02*
X4663039Y-14003079D01*
X4663039Y-14003079D02*
X4672563Y-13984031D01*
X4672563Y-13984031D02*
X4682087Y-13974508D01*
X4682087Y-13974508D02*
X4701134Y-13964984D01*
X4853515Y-14145936D02*
X4863039Y-14155460D01*
X4863039Y-14155460D02*
X4853515Y-14164984D01*
X4853515Y-14164984D02*
X4843991Y-14155460D01*
X4843991Y-14155460D02*
X4853515Y-14145936D01*
X4853515Y-14145936D02*
X4853515Y-14164984D01*
X4986848Y-13964984D02*
X5005896Y-13964984D01*
X5005896Y-13964984D02*
X5024944Y-13974508D01*
X5024944Y-13974508D02*
X5034468Y-13984031D01*
X5034468Y-13984031D02*
X5043991Y-14003079D01*
X5043991Y-14003079D02*
X5053515Y-14041174D01*
X5053515Y-14041174D02*
X5053515Y-14088793D01*
X5053515Y-14088793D02*
X5043991Y-14126888D01*
X5043991Y-14126888D02*
X5034468Y-14145936D01*
X5034468Y-14145936D02*
X5024944Y-14155460D01*
X5024944Y-14155460D02*
X5005896Y-14164984D01*
X5005896Y-14164984D02*
X4986848Y-14164984D01*
X4986848Y-14164984D02*
X4967801Y-14155460D01*
X4967801Y-14155460D02*
X4958277Y-14145936D01*
X4958277Y-14145936D02*
X4948753Y-14126888D01*
X4948753Y-14126888D02*
X4939229Y-14088793D01*
X4939229Y-14088793D02*
X4939229Y-14041174D01*
X4939229Y-14041174D02*
X4948753Y-14003079D01*
X4948753Y-14003079D02*
X4958277Y-13984031D01*
X4958277Y-13984031D02*
X4967801Y-13974508D01*
X4967801Y-13974508D02*
X4986848Y-13964984D01*
X5224944Y-14031650D02*
X5224944Y-14164984D01*
X5177325Y-13955460D02*
X5129706Y-14098317D01*
X5129706Y-14098317D02*
X5253515Y-14098317D01*
X5310658Y-13964984D02*
X5443991Y-13964984D01*
X5443991Y-13964984D02*
X5358277Y-14164984D01*
X5510658Y-13984031D02*
X5520182Y-13974508D01*
X5520182Y-13974508D02*
X5539229Y-13964984D01*
X5539229Y-13964984D02*
X5586849Y-13964984D01*
X5586849Y-13964984D02*
X5605896Y-13974508D01*
X5605896Y-13974508D02*
X5615420Y-13984031D01*
X5615420Y-13984031D02*
X5624944Y-14003079D01*
X5624944Y-14003079D02*
X5624944Y-14022127D01*
X5624944Y-14022127D02*
X5615420Y-14050698D01*
X5615420Y-14050698D02*
X5501134Y-14164984D01*
X5501134Y-14164984D02*
X5624944Y-14164984D01*
X5701134Y-13964984D02*
X5701134Y-14003079D01*
X5777325Y-13964984D02*
X5777325Y-14003079D01*
X6072563Y-14241174D02*
X6063039Y-14231650D01*
X6063039Y-14231650D02*
X6043991Y-14203079D01*
X6043991Y-14203079D02*
X6034468Y-14184031D01*
X6034468Y-14184031D02*
X6024944Y-14155460D01*
X6024944Y-14155460D02*
X6015420Y-14107841D01*
X6015420Y-14107841D02*
X6015420Y-14069746D01*
X6015420Y-14069746D02*
X6024944Y-14022127D01*
X6024944Y-14022127D02*
X6034468Y-13993555D01*
X6034468Y-13993555D02*
X6043991Y-13974508D01*
X6043991Y-13974508D02*
X6063039Y-13945936D01*
X6063039Y-13945936D02*
X6072563Y-13936412D01*
X6234468Y-14031650D02*
X6234468Y-14164984D01*
X6186848Y-13955460D02*
X6139229Y-14098317D01*
X6139229Y-14098317D02*
X6263039Y-14098317D01*
X6491610Y-14164984D02*
X6491610Y-13964984D01*
X6577325Y-14164984D02*
X6577325Y-14060222D01*
X6577325Y-14060222D02*
X6567801Y-14041174D01*
X6567801Y-14041174D02*
X6548753Y-14031650D01*
X6548753Y-14031650D02*
X6520182Y-14031650D01*
X6520182Y-14031650D02*
X6501134Y-14041174D01*
X6501134Y-14041174D02*
X6491610Y-14050698D01*
X6701134Y-14164984D02*
X6682087Y-14155460D01*
X6682087Y-14155460D02*
X6672563Y-14145936D01*
X6672563Y-14145936D02*
X6663039Y-14126888D01*
X6663039Y-14126888D02*
X6663039Y-14069746D01*
X6663039Y-14069746D02*
X6672563Y-14050698D01*
X6672563Y-14050698D02*
X6682087Y-14041174D01*
X6682087Y-14041174D02*
X6701134Y-14031650D01*
X6701134Y-14031650D02*
X6729706Y-14031650D01*
X6729706Y-14031650D02*
X6748753Y-14041174D01*
X6748753Y-14041174D02*
X6758277Y-14050698D01*
X6758277Y-14050698D02*
X6767801Y-14069746D01*
X6767801Y-14069746D02*
X6767801Y-14126888D01*
X6767801Y-14126888D02*
X6758277Y-14145936D01*
X6758277Y-14145936D02*
X6748753Y-14155460D01*
X6748753Y-14155460D02*
X6729706Y-14164984D01*
X6729706Y-14164984D02*
X6701134Y-14164984D01*
X6882087Y-14164984D02*
X6863039Y-14155460D01*
X6863039Y-14155460D02*
X6853515Y-14136412D01*
X6853515Y-14136412D02*
X6853515Y-13964984D01*
X7034468Y-14155460D02*
X7015420Y-14164984D01*
X7015420Y-14164984D02*
X6977325Y-14164984D01*
X6977325Y-14164984D02*
X6958277Y-14155460D01*
X6958277Y-14155460D02*
X6948753Y-14136412D01*
X6948753Y-14136412D02*
X6948753Y-14060222D01*
X6948753Y-14060222D02*
X6958277Y-14041174D01*
X6958277Y-14041174D02*
X6977325Y-14031650D01*
X6977325Y-14031650D02*
X7015420Y-14031650D01*
X7015420Y-14031650D02*
X7034468Y-14041174D01*
X7034468Y-14041174D02*
X7043991Y-14060222D01*
X7043991Y-14060222D02*
X7043991Y-14079269D01*
X7043991Y-14079269D02*
X6948753Y-14098317D01*
X7120182Y-14155460D02*
X7139230Y-14164984D01*
X7139230Y-14164984D02*
X7177325Y-14164984D01*
X7177325Y-14164984D02*
X7196372Y-14155460D01*
X7196372Y-14155460D02*
X7205896Y-14136412D01*
X7205896Y-14136412D02*
X7205896Y-14126888D01*
X7205896Y-14126888D02*
X7196372Y-14107841D01*
X7196372Y-14107841D02*
X7177325Y-14098317D01*
X7177325Y-14098317D02*
X7148753Y-14098317D01*
X7148753Y-14098317D02*
X7129706Y-14088793D01*
X7129706Y-14088793D02*
X7120182Y-14069746D01*
X7120182Y-14069746D02*
X7120182Y-14060222D01*
X7120182Y-14060222D02*
X7129706Y-14041174D01*
X7129706Y-14041174D02*
X7148753Y-14031650D01*
X7148753Y-14031650D02*
X7177325Y-14031650D01*
X7177325Y-14031650D02*
X7196372Y-14041174D01*
X7272563Y-14241174D02*
X7282087Y-14231650D01*
X7282087Y-14231650D02*
X7301134Y-14203079D01*
X7301134Y-14203079D02*
X7310658Y-14184031D01*
X7310658Y-14184031D02*
X7320182Y-14155460D01*
X7320182Y-14155460D02*
X7329706Y-14107841D01*
X7329706Y-14107841D02*
X7329706Y-14069746D01*
X7329706Y-14069746D02*
X7320182Y-14022127D01*
X7320182Y-14022127D02*
X7310658Y-13993555D01*
X7310658Y-13993555D02*
X7301134Y-13974508D01*
X7301134Y-13974508D02*
X7282087Y-13945936D01*
X7282087Y-13945936D02*
X7272563Y-13936412D01*
D15*
X2367500Y-14272500D02*
X2497500Y-14402500D01*
X2497500Y-14272500D02*
X2367500Y-14402500D01*
X2432500Y-14272500D02*
X2432500Y-14402500D01*
X2367500Y-14337500D02*
X2497500Y-14337500D01*
D11*
X2863039Y-14428984D02*
X2748753Y-14428984D01*
X2805896Y-14428984D02*
X2805896Y-14228984D01*
X2805896Y-14228984D02*
X2786848Y-14257555D01*
X2786848Y-14257555D02*
X2767801Y-14276603D01*
X2767801Y-14276603D02*
X2748753Y-14286127D01*
X2948753Y-14409936D02*
X2958277Y-14419460D01*
X2958277Y-14419460D02*
X2948753Y-14428984D01*
X2948753Y-14428984D02*
X2939229Y-14419460D01*
X2939229Y-14419460D02*
X2948753Y-14409936D01*
X2948753Y-14409936D02*
X2948753Y-14428984D01*
X3024943Y-14228984D02*
X3148753Y-14228984D01*
X3148753Y-14228984D02*
X3082086Y-14305174D01*
X3082086Y-14305174D02*
X3110658Y-14305174D01*
X3110658Y-14305174D02*
X3129705Y-14314698D01*
X3129705Y-14314698D02*
X3139229Y-14324222D01*
X3139229Y-14324222D02*
X3148753Y-14343269D01*
X3148753Y-14343269D02*
X3148753Y-14390888D01*
X3148753Y-14390888D02*
X3139229Y-14409936D01*
X3139229Y-14409936D02*
X3129705Y-14419460D01*
X3129705Y-14419460D02*
X3110658Y-14428984D01*
X3110658Y-14428984D02*
X3053515Y-14428984D01*
X3053515Y-14428984D02*
X3034467Y-14419460D01*
X3034467Y-14419460D02*
X3024943Y-14409936D01*
X3272562Y-14228984D02*
X3291610Y-14228984D01*
X3291610Y-14228984D02*
X3310658Y-14238508D01*
X3310658Y-14238508D02*
X3320182Y-14248031D01*
X3320182Y-14248031D02*
X3329705Y-14267079D01*
X3329705Y-14267079D02*
X3339229Y-14305174D01*
X3339229Y-14305174D02*
X3339229Y-14352793D01*
X3339229Y-14352793D02*
X3329705Y-14390888D01*
X3329705Y-14390888D02*
X3320182Y-14409936D01*
X3320182Y-14409936D02*
X3310658Y-14419460D01*
X3310658Y-14419460D02*
X3291610Y-14428984D01*
X3291610Y-14428984D02*
X3272562Y-14428984D01*
X3272562Y-14428984D02*
X3253515Y-14419460D01*
X3253515Y-14419460D02*
X3243991Y-14409936D01*
X3243991Y-14409936D02*
X3234467Y-14390888D01*
X3234467Y-14390888D02*
X3224943Y-14352793D01*
X3224943Y-14352793D02*
X3224943Y-14305174D01*
X3224943Y-14305174D02*
X3234467Y-14267079D01*
X3234467Y-14267079D02*
X3243991Y-14248031D01*
X3243991Y-14248031D02*
X3253515Y-14238508D01*
X3253515Y-14238508D02*
X3272562Y-14228984D01*
X3463039Y-14228984D02*
X3482086Y-14228984D01*
X3482086Y-14228984D02*
X3501134Y-14238508D01*
X3501134Y-14238508D02*
X3510658Y-14248031D01*
X3510658Y-14248031D02*
X3520182Y-14267079D01*
X3520182Y-14267079D02*
X3529705Y-14305174D01*
X3529705Y-14305174D02*
X3529705Y-14352793D01*
X3529705Y-14352793D02*
X3520182Y-14390888D01*
X3520182Y-14390888D02*
X3510658Y-14409936D01*
X3510658Y-14409936D02*
X3501134Y-14419460D01*
X3501134Y-14419460D02*
X3482086Y-14428984D01*
X3482086Y-14428984D02*
X3463039Y-14428984D01*
X3463039Y-14428984D02*
X3443991Y-14419460D01*
X3443991Y-14419460D02*
X3434467Y-14409936D01*
X3434467Y-14409936D02*
X3424943Y-14390888D01*
X3424943Y-14390888D02*
X3415420Y-14352793D01*
X3415420Y-14352793D02*
X3415420Y-14305174D01*
X3415420Y-14305174D02*
X3424943Y-14267079D01*
X3424943Y-14267079D02*
X3434467Y-14248031D01*
X3434467Y-14248031D02*
X3443991Y-14238508D01*
X3443991Y-14238508D02*
X3463039Y-14228984D01*
X3615420Y-14428984D02*
X3615420Y-14295650D01*
X3615420Y-14314698D02*
X3624943Y-14305174D01*
X3624943Y-14305174D02*
X3643991Y-14295650D01*
X3643991Y-14295650D02*
X3672563Y-14295650D01*
X3672563Y-14295650D02*
X3691610Y-14305174D01*
X3691610Y-14305174D02*
X3701134Y-14324222D01*
X3701134Y-14324222D02*
X3701134Y-14428984D01*
X3701134Y-14324222D02*
X3710658Y-14305174D01*
X3710658Y-14305174D02*
X3729705Y-14295650D01*
X3729705Y-14295650D02*
X3758277Y-14295650D01*
X3758277Y-14295650D02*
X3777324Y-14305174D01*
X3777324Y-14305174D02*
X3786848Y-14324222D01*
X3786848Y-14324222D02*
X3786848Y-14428984D01*
X3882086Y-14428984D02*
X3882086Y-14295650D01*
X3882086Y-14314698D02*
X3891610Y-14305174D01*
X3891610Y-14305174D02*
X3910658Y-14295650D01*
X3910658Y-14295650D02*
X3939229Y-14295650D01*
X3939229Y-14295650D02*
X3958277Y-14305174D01*
X3958277Y-14305174D02*
X3967801Y-14324222D01*
X3967801Y-14324222D02*
X3967801Y-14428984D01*
X3967801Y-14324222D02*
X3977324Y-14305174D01*
X3977324Y-14305174D02*
X3996372Y-14295650D01*
X3996372Y-14295650D02*
X4024943Y-14295650D01*
X4024943Y-14295650D02*
X4043991Y-14305174D01*
X4043991Y-14305174D02*
X4053515Y-14324222D01*
X4053515Y-14324222D02*
X4053515Y-14428984D01*
X4443991Y-14219460D02*
X4272563Y-14476603D01*
X4701134Y-14228984D02*
X4720182Y-14228984D01*
X4720182Y-14228984D02*
X4739229Y-14238508D01*
X4739229Y-14238508D02*
X4748753Y-14248031D01*
X4748753Y-14248031D02*
X4758277Y-14267079D01*
X4758277Y-14267079D02*
X4767801Y-14305174D01*
X4767801Y-14305174D02*
X4767801Y-14352793D01*
X4767801Y-14352793D02*
X4758277Y-14390888D01*
X4758277Y-14390888D02*
X4748753Y-14409936D01*
X4748753Y-14409936D02*
X4739229Y-14419460D01*
X4739229Y-14419460D02*
X4720182Y-14428984D01*
X4720182Y-14428984D02*
X4701134Y-14428984D01*
X4701134Y-14428984D02*
X4682087Y-14419460D01*
X4682087Y-14419460D02*
X4672563Y-14409936D01*
X4672563Y-14409936D02*
X4663039Y-14390888D01*
X4663039Y-14390888D02*
X4653515Y-14352793D01*
X4653515Y-14352793D02*
X4653515Y-14305174D01*
X4653515Y-14305174D02*
X4663039Y-14267079D01*
X4663039Y-14267079D02*
X4672563Y-14248031D01*
X4672563Y-14248031D02*
X4682087Y-14238508D01*
X4682087Y-14238508D02*
X4701134Y-14228984D01*
X4853515Y-14409936D02*
X4863039Y-14419460D01*
X4863039Y-14419460D02*
X4853515Y-14428984D01*
X4853515Y-14428984D02*
X4843991Y-14419460D01*
X4843991Y-14419460D02*
X4853515Y-14409936D01*
X4853515Y-14409936D02*
X4853515Y-14428984D01*
X4986848Y-14228984D02*
X5005896Y-14228984D01*
X5005896Y-14228984D02*
X5024944Y-14238508D01*
X5024944Y-14238508D02*
X5034468Y-14248031D01*
X5034468Y-14248031D02*
X5043991Y-14267079D01*
X5043991Y-14267079D02*
X5053515Y-14305174D01*
X5053515Y-14305174D02*
X5053515Y-14352793D01*
X5053515Y-14352793D02*
X5043991Y-14390888D01*
X5043991Y-14390888D02*
X5034468Y-14409936D01*
X5034468Y-14409936D02*
X5024944Y-14419460D01*
X5024944Y-14419460D02*
X5005896Y-14428984D01*
X5005896Y-14428984D02*
X4986848Y-14428984D01*
X4986848Y-14428984D02*
X4967801Y-14419460D01*
X4967801Y-14419460D02*
X4958277Y-14409936D01*
X4958277Y-14409936D02*
X4948753Y-14390888D01*
X4948753Y-14390888D02*
X4939229Y-14352793D01*
X4939229Y-14352793D02*
X4939229Y-14305174D01*
X4939229Y-14305174D02*
X4948753Y-14267079D01*
X4948753Y-14267079D02*
X4958277Y-14248031D01*
X4958277Y-14248031D02*
X4967801Y-14238508D01*
X4967801Y-14238508D02*
X4986848Y-14228984D01*
X5234468Y-14228984D02*
X5139229Y-14228984D01*
X5139229Y-14228984D02*
X5129706Y-14324222D01*
X5129706Y-14324222D02*
X5139229Y-14314698D01*
X5139229Y-14314698D02*
X5158277Y-14305174D01*
X5158277Y-14305174D02*
X5205896Y-14305174D01*
X5205896Y-14305174D02*
X5224944Y-14314698D01*
X5224944Y-14314698D02*
X5234468Y-14324222D01*
X5234468Y-14324222D02*
X5243991Y-14343269D01*
X5243991Y-14343269D02*
X5243991Y-14390888D01*
X5243991Y-14390888D02*
X5234468Y-14409936D01*
X5234468Y-14409936D02*
X5224944Y-14419460D01*
X5224944Y-14419460D02*
X5205896Y-14428984D01*
X5205896Y-14428984D02*
X5158277Y-14428984D01*
X5158277Y-14428984D02*
X5139229Y-14419460D01*
X5139229Y-14419460D02*
X5129706Y-14409936D01*
X5434468Y-14428984D02*
X5320182Y-14428984D01*
X5377325Y-14428984D02*
X5377325Y-14228984D01*
X5377325Y-14228984D02*
X5358277Y-14257555D01*
X5358277Y-14257555D02*
X5339229Y-14276603D01*
X5339229Y-14276603D02*
X5320182Y-14286127D01*
X5510658Y-14248031D02*
X5520182Y-14238508D01*
X5520182Y-14238508D02*
X5539229Y-14228984D01*
X5539229Y-14228984D02*
X5586849Y-14228984D01*
X5586849Y-14228984D02*
X5605896Y-14238508D01*
X5605896Y-14238508D02*
X5615420Y-14248031D01*
X5615420Y-14248031D02*
X5624944Y-14267079D01*
X5624944Y-14267079D02*
X5624944Y-14286127D01*
X5624944Y-14286127D02*
X5615420Y-14314698D01*
X5615420Y-14314698D02*
X5501134Y-14428984D01*
X5501134Y-14428984D02*
X5624944Y-14428984D01*
X5701134Y-14228984D02*
X5701134Y-14267079D01*
X5777325Y-14228984D02*
X5777325Y-14267079D01*
X6072563Y-14505174D02*
X6063039Y-14495650D01*
X6063039Y-14495650D02*
X6043991Y-14467079D01*
X6043991Y-14467079D02*
X6034468Y-14448031D01*
X6034468Y-14448031D02*
X6024944Y-14419460D01*
X6024944Y-14419460D02*
X6015420Y-14371841D01*
X6015420Y-14371841D02*
X6015420Y-14333746D01*
X6015420Y-14333746D02*
X6024944Y-14286127D01*
X6024944Y-14286127D02*
X6034468Y-14257555D01*
X6034468Y-14257555D02*
X6043991Y-14238508D01*
X6043991Y-14238508D02*
X6063039Y-14209936D01*
X6063039Y-14209936D02*
X6072563Y-14200412D01*
X6234468Y-14228984D02*
X6196372Y-14228984D01*
X6196372Y-14228984D02*
X6177325Y-14238508D01*
X6177325Y-14238508D02*
X6167801Y-14248031D01*
X6167801Y-14248031D02*
X6148753Y-14276603D01*
X6148753Y-14276603D02*
X6139229Y-14314698D01*
X6139229Y-14314698D02*
X6139229Y-14390888D01*
X6139229Y-14390888D02*
X6148753Y-14409936D01*
X6148753Y-14409936D02*
X6158277Y-14419460D01*
X6158277Y-14419460D02*
X6177325Y-14428984D01*
X6177325Y-14428984D02*
X6215420Y-14428984D01*
X6215420Y-14428984D02*
X6234468Y-14419460D01*
X6234468Y-14419460D02*
X6243991Y-14409936D01*
X6243991Y-14409936D02*
X6253515Y-14390888D01*
X6253515Y-14390888D02*
X6253515Y-14343269D01*
X6253515Y-14343269D02*
X6243991Y-14324222D01*
X6243991Y-14324222D02*
X6234468Y-14314698D01*
X6234468Y-14314698D02*
X6215420Y-14305174D01*
X6215420Y-14305174D02*
X6177325Y-14305174D01*
X6177325Y-14305174D02*
X6158277Y-14314698D01*
X6158277Y-14314698D02*
X6148753Y-14324222D01*
X6148753Y-14324222D02*
X6139229Y-14343269D01*
X6491610Y-14428984D02*
X6491610Y-14228984D01*
X6577325Y-14428984D02*
X6577325Y-14324222D01*
X6577325Y-14324222D02*
X6567801Y-14305174D01*
X6567801Y-14305174D02*
X6548753Y-14295650D01*
X6548753Y-14295650D02*
X6520182Y-14295650D01*
X6520182Y-14295650D02*
X6501134Y-14305174D01*
X6501134Y-14305174D02*
X6491610Y-14314698D01*
X6701134Y-14428984D02*
X6682087Y-14419460D01*
X6682087Y-14419460D02*
X6672563Y-14409936D01*
X6672563Y-14409936D02*
X6663039Y-14390888D01*
X6663039Y-14390888D02*
X6663039Y-14333746D01*
X6663039Y-14333746D02*
X6672563Y-14314698D01*
X6672563Y-14314698D02*
X6682087Y-14305174D01*
X6682087Y-14305174D02*
X6701134Y-14295650D01*
X6701134Y-14295650D02*
X6729706Y-14295650D01*
X6729706Y-14295650D02*
X6748753Y-14305174D01*
X6748753Y-14305174D02*
X6758277Y-14314698D01*
X6758277Y-14314698D02*
X6767801Y-14333746D01*
X6767801Y-14333746D02*
X6767801Y-14390888D01*
X6767801Y-14390888D02*
X6758277Y-14409936D01*
X6758277Y-14409936D02*
X6748753Y-14419460D01*
X6748753Y-14419460D02*
X6729706Y-14428984D01*
X6729706Y-14428984D02*
X6701134Y-14428984D01*
X6882087Y-14428984D02*
X6863039Y-14419460D01*
X6863039Y-14419460D02*
X6853515Y-14400412D01*
X6853515Y-14400412D02*
X6853515Y-14228984D01*
X7034468Y-14419460D02*
X7015420Y-14428984D01*
X7015420Y-14428984D02*
X6977325Y-14428984D01*
X6977325Y-14428984D02*
X6958277Y-14419460D01*
X6958277Y-14419460D02*
X6948753Y-14400412D01*
X6948753Y-14400412D02*
X6948753Y-14324222D01*
X6948753Y-14324222D02*
X6958277Y-14305174D01*
X6958277Y-14305174D02*
X6977325Y-14295650D01*
X6977325Y-14295650D02*
X7015420Y-14295650D01*
X7015420Y-14295650D02*
X7034468Y-14305174D01*
X7034468Y-14305174D02*
X7043991Y-14324222D01*
X7043991Y-14324222D02*
X7043991Y-14343269D01*
X7043991Y-14343269D02*
X6948753Y-14362317D01*
X7120182Y-14419460D02*
X7139230Y-14428984D01*
X7139230Y-14428984D02*
X7177325Y-14428984D01*
X7177325Y-14428984D02*
X7196372Y-14419460D01*
X7196372Y-14419460D02*
X7205896Y-14400412D01*
X7205896Y-14400412D02*
X7205896Y-14390888D01*
X7205896Y-14390888D02*
X7196372Y-14371841D01*
X7196372Y-14371841D02*
X7177325Y-14362317D01*
X7177325Y-14362317D02*
X7148753Y-14362317D01*
X7148753Y-14362317D02*
X7129706Y-14352793D01*
X7129706Y-14352793D02*
X7120182Y-14333746D01*
X7120182Y-14333746D02*
X7120182Y-14324222D01*
X7120182Y-14324222D02*
X7129706Y-14305174D01*
X7129706Y-14305174D02*
X7148753Y-14295650D01*
X7148753Y-14295650D02*
X7177325Y-14295650D01*
X7177325Y-14295650D02*
X7196372Y-14305174D01*
X7272563Y-14505174D02*
X7282087Y-14495650D01*
X7282087Y-14495650D02*
X7301134Y-14467079D01*
X7301134Y-14467079D02*
X7310658Y-14448031D01*
X7310658Y-14448031D02*
X7320182Y-14419460D01*
X7320182Y-14419460D02*
X7329706Y-14371841D01*
X7329706Y-14371841D02*
X7329706Y-14333746D01*
X7329706Y-14333746D02*
X7320182Y-14286127D01*
X7320182Y-14286127D02*
X7310658Y-14257555D01*
X7310658Y-14257555D02*
X7301134Y-14238508D01*
X7301134Y-14238508D02*
X7282087Y-14209936D01*
X7282087Y-14209936D02*
X7272563Y-14200412D01*
D16*
X2345500Y-14525500D02*
X2497500Y-14677500D01*
X2497500Y-14525500D02*
X2345500Y-14677500D01*
X2475241Y-14655241D02*
X2475241Y-14547759D01*
X2367759Y-14547759D01*
X2367759Y-14655241D01*
X2475241Y-14655241D01*
D11*
X2863039Y-14692984D02*
X2748753Y-14692984D01*
X2805896Y-14692984D02*
X2805896Y-14492984D01*
X2805896Y-14492984D02*
X2786848Y-14521555D01*
X2786848Y-14521555D02*
X2767801Y-14540603D01*
X2767801Y-14540603D02*
X2748753Y-14550127D01*
X2948753Y-14673936D02*
X2958277Y-14683460D01*
X2958277Y-14683460D02*
X2948753Y-14692984D01*
X2948753Y-14692984D02*
X2939229Y-14683460D01*
X2939229Y-14683460D02*
X2948753Y-14673936D01*
X2948753Y-14673936D02*
X2948753Y-14692984D01*
X3139229Y-14492984D02*
X3043991Y-14492984D01*
X3043991Y-14492984D02*
X3034467Y-14588222D01*
X3034467Y-14588222D02*
X3043991Y-14578698D01*
X3043991Y-14578698D02*
X3063039Y-14569174D01*
X3063039Y-14569174D02*
X3110658Y-14569174D01*
X3110658Y-14569174D02*
X3129705Y-14578698D01*
X3129705Y-14578698D02*
X3139229Y-14588222D01*
X3139229Y-14588222D02*
X3148753Y-14607269D01*
X3148753Y-14607269D02*
X3148753Y-14654888D01*
X3148753Y-14654888D02*
X3139229Y-14673936D01*
X3139229Y-14673936D02*
X3129705Y-14683460D01*
X3129705Y-14683460D02*
X3110658Y-14692984D01*
X3110658Y-14692984D02*
X3063039Y-14692984D01*
X3063039Y-14692984D02*
X3043991Y-14683460D01*
X3043991Y-14683460D02*
X3034467Y-14673936D01*
X3224943Y-14512031D02*
X3234467Y-14502508D01*
X3234467Y-14502508D02*
X3253515Y-14492984D01*
X3253515Y-14492984D02*
X3301134Y-14492984D01*
X3301134Y-14492984D02*
X3320182Y-14502508D01*
X3320182Y-14502508D02*
X3329705Y-14512031D01*
X3329705Y-14512031D02*
X3339229Y-14531079D01*
X3339229Y-14531079D02*
X3339229Y-14550127D01*
X3339229Y-14550127D02*
X3329705Y-14578698D01*
X3329705Y-14578698D02*
X3215420Y-14692984D01*
X3215420Y-14692984D02*
X3339229Y-14692984D01*
X3463039Y-14492984D02*
X3482086Y-14492984D01*
X3482086Y-14492984D02*
X3501134Y-14502508D01*
X3501134Y-14502508D02*
X3510658Y-14512031D01*
X3510658Y-14512031D02*
X3520182Y-14531079D01*
X3520182Y-14531079D02*
X3529705Y-14569174D01*
X3529705Y-14569174D02*
X3529705Y-14616793D01*
X3529705Y-14616793D02*
X3520182Y-14654888D01*
X3520182Y-14654888D02*
X3510658Y-14673936D01*
X3510658Y-14673936D02*
X3501134Y-14683460D01*
X3501134Y-14683460D02*
X3482086Y-14692984D01*
X3482086Y-14692984D02*
X3463039Y-14692984D01*
X3463039Y-14692984D02*
X3443991Y-14683460D01*
X3443991Y-14683460D02*
X3434467Y-14673936D01*
X3434467Y-14673936D02*
X3424943Y-14654888D01*
X3424943Y-14654888D02*
X3415420Y-14616793D01*
X3415420Y-14616793D02*
X3415420Y-14569174D01*
X3415420Y-14569174D02*
X3424943Y-14531079D01*
X3424943Y-14531079D02*
X3434467Y-14512031D01*
X3434467Y-14512031D02*
X3443991Y-14502508D01*
X3443991Y-14502508D02*
X3463039Y-14492984D01*
X3615420Y-14692984D02*
X3615420Y-14559650D01*
X3615420Y-14578698D02*
X3624943Y-14569174D01*
X3624943Y-14569174D02*
X3643991Y-14559650D01*
X3643991Y-14559650D02*
X3672563Y-14559650D01*
X3672563Y-14559650D02*
X3691610Y-14569174D01*
X3691610Y-14569174D02*
X3701134Y-14588222D01*
X3701134Y-14588222D02*
X3701134Y-14692984D01*
X3701134Y-14588222D02*
X3710658Y-14569174D01*
X3710658Y-14569174D02*
X3729705Y-14559650D01*
X3729705Y-14559650D02*
X3758277Y-14559650D01*
X3758277Y-14559650D02*
X3777324Y-14569174D01*
X3777324Y-14569174D02*
X3786848Y-14588222D01*
X3786848Y-14588222D02*
X3786848Y-14692984D01*
X3882086Y-14692984D02*
X3882086Y-14559650D01*
X3882086Y-14578698D02*
X3891610Y-14569174D01*
X3891610Y-14569174D02*
X3910658Y-14559650D01*
X3910658Y-14559650D02*
X3939229Y-14559650D01*
X3939229Y-14559650D02*
X3958277Y-14569174D01*
X3958277Y-14569174D02*
X3967801Y-14588222D01*
X3967801Y-14588222D02*
X3967801Y-14692984D01*
X3967801Y-14588222D02*
X3977324Y-14569174D01*
X3977324Y-14569174D02*
X3996372Y-14559650D01*
X3996372Y-14559650D02*
X4024943Y-14559650D01*
X4024943Y-14559650D02*
X4043991Y-14569174D01*
X4043991Y-14569174D02*
X4053515Y-14588222D01*
X4053515Y-14588222D02*
X4053515Y-14692984D01*
X4443991Y-14483460D02*
X4272563Y-14740603D01*
X4701134Y-14492984D02*
X4720182Y-14492984D01*
X4720182Y-14492984D02*
X4739229Y-14502508D01*
X4739229Y-14502508D02*
X4748753Y-14512031D01*
X4748753Y-14512031D02*
X4758277Y-14531079D01*
X4758277Y-14531079D02*
X4767801Y-14569174D01*
X4767801Y-14569174D02*
X4767801Y-14616793D01*
X4767801Y-14616793D02*
X4758277Y-14654888D01*
X4758277Y-14654888D02*
X4748753Y-14673936D01*
X4748753Y-14673936D02*
X4739229Y-14683460D01*
X4739229Y-14683460D02*
X4720182Y-14692984D01*
X4720182Y-14692984D02*
X4701134Y-14692984D01*
X4701134Y-14692984D02*
X4682087Y-14683460D01*
X4682087Y-14683460D02*
X4672563Y-14673936D01*
X4672563Y-14673936D02*
X4663039Y-14654888D01*
X4663039Y-14654888D02*
X4653515Y-14616793D01*
X4653515Y-14616793D02*
X4653515Y-14569174D01*
X4653515Y-14569174D02*
X4663039Y-14531079D01*
X4663039Y-14531079D02*
X4672563Y-14512031D01*
X4672563Y-14512031D02*
X4682087Y-14502508D01*
X4682087Y-14502508D02*
X4701134Y-14492984D01*
X4853515Y-14673936D02*
X4863039Y-14683460D01*
X4863039Y-14683460D02*
X4853515Y-14692984D01*
X4853515Y-14692984D02*
X4843991Y-14683460D01*
X4843991Y-14683460D02*
X4853515Y-14673936D01*
X4853515Y-14673936D02*
X4853515Y-14692984D01*
X4986848Y-14492984D02*
X5005896Y-14492984D01*
X5005896Y-14492984D02*
X5024944Y-14502508D01*
X5024944Y-14502508D02*
X5034468Y-14512031D01*
X5034468Y-14512031D02*
X5043991Y-14531079D01*
X5043991Y-14531079D02*
X5053515Y-14569174D01*
X5053515Y-14569174D02*
X5053515Y-14616793D01*
X5053515Y-14616793D02*
X5043991Y-14654888D01*
X5043991Y-14654888D02*
X5034468Y-14673936D01*
X5034468Y-14673936D02*
X5024944Y-14683460D01*
X5024944Y-14683460D02*
X5005896Y-14692984D01*
X5005896Y-14692984D02*
X4986848Y-14692984D01*
X4986848Y-14692984D02*
X4967801Y-14683460D01*
X4967801Y-14683460D02*
X4958277Y-14673936D01*
X4958277Y-14673936D02*
X4948753Y-14654888D01*
X4948753Y-14654888D02*
X4939229Y-14616793D01*
X4939229Y-14616793D02*
X4939229Y-14569174D01*
X4939229Y-14569174D02*
X4948753Y-14531079D01*
X4948753Y-14531079D02*
X4958277Y-14512031D01*
X4958277Y-14512031D02*
X4967801Y-14502508D01*
X4967801Y-14502508D02*
X4986848Y-14492984D01*
X5234468Y-14492984D02*
X5139229Y-14492984D01*
X5139229Y-14492984D02*
X5129706Y-14588222D01*
X5129706Y-14588222D02*
X5139229Y-14578698D01*
X5139229Y-14578698D02*
X5158277Y-14569174D01*
X5158277Y-14569174D02*
X5205896Y-14569174D01*
X5205896Y-14569174D02*
X5224944Y-14578698D01*
X5224944Y-14578698D02*
X5234468Y-14588222D01*
X5234468Y-14588222D02*
X5243991Y-14607269D01*
X5243991Y-14607269D02*
X5243991Y-14654888D01*
X5243991Y-14654888D02*
X5234468Y-14673936D01*
X5234468Y-14673936D02*
X5224944Y-14683460D01*
X5224944Y-14683460D02*
X5205896Y-14692984D01*
X5205896Y-14692984D02*
X5158277Y-14692984D01*
X5158277Y-14692984D02*
X5139229Y-14683460D01*
X5139229Y-14683460D02*
X5129706Y-14673936D01*
X5339229Y-14692984D02*
X5377325Y-14692984D01*
X5377325Y-14692984D02*
X5396372Y-14683460D01*
X5396372Y-14683460D02*
X5405896Y-14673936D01*
X5405896Y-14673936D02*
X5424944Y-14645365D01*
X5424944Y-14645365D02*
X5434468Y-14607269D01*
X5434468Y-14607269D02*
X5434468Y-14531079D01*
X5434468Y-14531079D02*
X5424944Y-14512031D01*
X5424944Y-14512031D02*
X5415420Y-14502508D01*
X5415420Y-14502508D02*
X5396372Y-14492984D01*
X5396372Y-14492984D02*
X5358277Y-14492984D01*
X5358277Y-14492984D02*
X5339229Y-14502508D01*
X5339229Y-14502508D02*
X5329706Y-14512031D01*
X5329706Y-14512031D02*
X5320182Y-14531079D01*
X5320182Y-14531079D02*
X5320182Y-14578698D01*
X5320182Y-14578698D02*
X5329706Y-14597746D01*
X5329706Y-14597746D02*
X5339229Y-14607269D01*
X5339229Y-14607269D02*
X5358277Y-14616793D01*
X5358277Y-14616793D02*
X5396372Y-14616793D01*
X5396372Y-14616793D02*
X5415420Y-14607269D01*
X5415420Y-14607269D02*
X5424944Y-14597746D01*
X5424944Y-14597746D02*
X5434468Y-14578698D01*
X5548753Y-14578698D02*
X5529706Y-14569174D01*
X5529706Y-14569174D02*
X5520182Y-14559650D01*
X5520182Y-14559650D02*
X5510658Y-14540603D01*
X5510658Y-14540603D02*
X5510658Y-14531079D01*
X5510658Y-14531079D02*
X5520182Y-14512031D01*
X5520182Y-14512031D02*
X5529706Y-14502508D01*
X5529706Y-14502508D02*
X5548753Y-14492984D01*
X5548753Y-14492984D02*
X5586849Y-14492984D01*
X5586849Y-14492984D02*
X5605896Y-14502508D01*
X5605896Y-14502508D02*
X5615420Y-14512031D01*
X5615420Y-14512031D02*
X5624944Y-14531079D01*
X5624944Y-14531079D02*
X5624944Y-14540603D01*
X5624944Y-14540603D02*
X5615420Y-14559650D01*
X5615420Y-14559650D02*
X5605896Y-14569174D01*
X5605896Y-14569174D02*
X5586849Y-14578698D01*
X5586849Y-14578698D02*
X5548753Y-14578698D01*
X5548753Y-14578698D02*
X5529706Y-14588222D01*
X5529706Y-14588222D02*
X5520182Y-14597746D01*
X5520182Y-14597746D02*
X5510658Y-14616793D01*
X5510658Y-14616793D02*
X5510658Y-14654888D01*
X5510658Y-14654888D02*
X5520182Y-14673936D01*
X5520182Y-14673936D02*
X5529706Y-14683460D01*
X5529706Y-14683460D02*
X5548753Y-14692984D01*
X5548753Y-14692984D02*
X5586849Y-14692984D01*
X5586849Y-14692984D02*
X5605896Y-14683460D01*
X5605896Y-14683460D02*
X5615420Y-14673936D01*
X5615420Y-14673936D02*
X5624944Y-14654888D01*
X5624944Y-14654888D02*
X5624944Y-14616793D01*
X5624944Y-14616793D02*
X5615420Y-14597746D01*
X5615420Y-14597746D02*
X5605896Y-14588222D01*
X5605896Y-14588222D02*
X5586849Y-14578698D01*
X5701134Y-14492984D02*
X5701134Y-14531079D01*
X5777325Y-14492984D02*
X5777325Y-14531079D01*
X6072563Y-14769174D02*
X6063039Y-14759650D01*
X6063039Y-14759650D02*
X6043991Y-14731079D01*
X6043991Y-14731079D02*
X6034468Y-14712031D01*
X6034468Y-14712031D02*
X6024944Y-14683460D01*
X6024944Y-14683460D02*
X6015420Y-14635841D01*
X6015420Y-14635841D02*
X6015420Y-14597746D01*
X6015420Y-14597746D02*
X6024944Y-14550127D01*
X6024944Y-14550127D02*
X6034468Y-14521555D01*
X6034468Y-14521555D02*
X6043991Y-14502508D01*
X6043991Y-14502508D02*
X6063039Y-14473936D01*
X6063039Y-14473936D02*
X6072563Y-14464412D01*
X6253515Y-14692984D02*
X6139229Y-14692984D01*
X6196372Y-14692984D02*
X6196372Y-14492984D01*
X6196372Y-14492984D02*
X6177325Y-14521555D01*
X6177325Y-14521555D02*
X6158277Y-14540603D01*
X6158277Y-14540603D02*
X6139229Y-14550127D01*
X6377325Y-14492984D02*
X6396372Y-14492984D01*
X6396372Y-14492984D02*
X6415420Y-14502508D01*
X6415420Y-14502508D02*
X6424944Y-14512031D01*
X6424944Y-14512031D02*
X6434468Y-14531079D01*
X6434468Y-14531079D02*
X6443991Y-14569174D01*
X6443991Y-14569174D02*
X6443991Y-14616793D01*
X6443991Y-14616793D02*
X6434468Y-14654888D01*
X6434468Y-14654888D02*
X6424944Y-14673936D01*
X6424944Y-14673936D02*
X6415420Y-14683460D01*
X6415420Y-14683460D02*
X6396372Y-14692984D01*
X6396372Y-14692984D02*
X6377325Y-14692984D01*
X6377325Y-14692984D02*
X6358277Y-14683460D01*
X6358277Y-14683460D02*
X6348753Y-14673936D01*
X6348753Y-14673936D02*
X6339229Y-14654888D01*
X6339229Y-14654888D02*
X6329706Y-14616793D01*
X6329706Y-14616793D02*
X6329706Y-14569174D01*
X6329706Y-14569174D02*
X6339229Y-14531079D01*
X6339229Y-14531079D02*
X6348753Y-14512031D01*
X6348753Y-14512031D02*
X6358277Y-14502508D01*
X6358277Y-14502508D02*
X6377325Y-14492984D01*
X6682087Y-14692984D02*
X6682087Y-14492984D01*
X6767801Y-14692984D02*
X6767801Y-14588222D01*
X6767801Y-14588222D02*
X6758277Y-14569174D01*
X6758277Y-14569174D02*
X6739230Y-14559650D01*
X6739230Y-14559650D02*
X6710658Y-14559650D01*
X6710658Y-14559650D02*
X6691610Y-14569174D01*
X6691610Y-14569174D02*
X6682087Y-14578698D01*
X6891610Y-14692984D02*
X6872563Y-14683460D01*
X6872563Y-14683460D02*
X6863039Y-14673936D01*
X6863039Y-14673936D02*
X6853515Y-14654888D01*
X6853515Y-14654888D02*
X6853515Y-14597746D01*
X6853515Y-14597746D02*
X6863039Y-14578698D01*
X6863039Y-14578698D02*
X6872563Y-14569174D01*
X6872563Y-14569174D02*
X6891610Y-14559650D01*
X6891610Y-14559650D02*
X6920182Y-14559650D01*
X6920182Y-14559650D02*
X6939230Y-14569174D01*
X6939230Y-14569174D02*
X6948753Y-14578698D01*
X6948753Y-14578698D02*
X6958277Y-14597746D01*
X6958277Y-14597746D02*
X6958277Y-14654888D01*
X6958277Y-14654888D02*
X6948753Y-14673936D01*
X6948753Y-14673936D02*
X6939230Y-14683460D01*
X6939230Y-14683460D02*
X6920182Y-14692984D01*
X6920182Y-14692984D02*
X6891610Y-14692984D01*
X7072563Y-14692984D02*
X7053515Y-14683460D01*
X7053515Y-14683460D02*
X7043991Y-14664412D01*
X7043991Y-14664412D02*
X7043991Y-14492984D01*
X7224944Y-14683460D02*
X7205896Y-14692984D01*
X7205896Y-14692984D02*
X7167801Y-14692984D01*
X7167801Y-14692984D02*
X7148753Y-14683460D01*
X7148753Y-14683460D02*
X7139230Y-14664412D01*
X7139230Y-14664412D02*
X7139230Y-14588222D01*
X7139230Y-14588222D02*
X7148753Y-14569174D01*
X7148753Y-14569174D02*
X7167801Y-14559650D01*
X7167801Y-14559650D02*
X7205896Y-14559650D01*
X7205896Y-14559650D02*
X7224944Y-14569174D01*
X7224944Y-14569174D02*
X7234468Y-14588222D01*
X7234468Y-14588222D02*
X7234468Y-14607269D01*
X7234468Y-14607269D02*
X7139230Y-14626317D01*
X7310658Y-14683460D02*
X7329706Y-14692984D01*
X7329706Y-14692984D02*
X7367801Y-14692984D01*
X7367801Y-14692984D02*
X7386849Y-14683460D01*
X7386849Y-14683460D02*
X7396372Y-14664412D01*
X7396372Y-14664412D02*
X7396372Y-14654888D01*
X7396372Y-14654888D02*
X7386849Y-14635841D01*
X7386849Y-14635841D02*
X7367801Y-14626317D01*
X7367801Y-14626317D02*
X7339230Y-14626317D01*
X7339230Y-14626317D02*
X7320182Y-14616793D01*
X7320182Y-14616793D02*
X7310658Y-14597746D01*
X7310658Y-14597746D02*
X7310658Y-14588222D01*
X7310658Y-14588222D02*
X7320182Y-14569174D01*
X7320182Y-14569174D02*
X7339230Y-14559650D01*
X7339230Y-14559650D02*
X7367801Y-14559650D01*
X7367801Y-14559650D02*
X7386849Y-14569174D01*
X7463039Y-14769174D02*
X7472563Y-14759650D01*
X7472563Y-14759650D02*
X7491611Y-14731079D01*
X7491611Y-14731079D02*
X7501134Y-14712031D01*
X7501134Y-14712031D02*
X7510658Y-14683460D01*
X7510658Y-14683460D02*
X7520182Y-14635841D01*
X7520182Y-14635841D02*
X7520182Y-14597746D01*
X7520182Y-14597746D02*
X7510658Y-14550127D01*
X7510658Y-14550127D02*
X7501134Y-14521555D01*
X7501134Y-14521555D02*
X7491611Y-14502508D01*
X7491611Y-14502508D02*
X7472563Y-14473936D01*
X7472563Y-14473936D02*
X7463039Y-14464412D01*
M02*
